<svg xmlns="http://www.w3.org/2000/svg" viewBox="0 0 184.3 227.1">
  <path fill="#00823C" fill-rule="evenodd" d="M68.2 120.3l40.9 13.3-30.4 93.5-17.8-14.6-23.1 1.3 30.4-93.5z"/>
  <path fill="#00823C" fill-rule="evenodd" d="M75.2 133.6l40.9-13.3 30.4 93.5-23.1-1.3-17.9 14.6-30.3-93.5z"/>
  <path fill="#00823C" fill-rule="evenodd" d="M92.1 0A92.1 92.1 0 1 1 0 92.1 92.1 92.1 0 0 1 92.1 0z"/>
  <path fill="#fff" fill-rule="evenodd" d="M48.4 112.1l-2.4-5.8-2.4 5.8zm-4.2-10.6h3.7l7.6 18.2h-4.1l-1.6-4h-7.6l-1.6 4h-4.1l7.7-18.2zM52.9 101.5h4.3l3.7 12.3 4-12.3h3.4l4 12.3 3.7-12.3h4.2L74 119.7h-3.4l-4.1-11.8-4 11.8h-3.4l-6.2-18.2zM89.4 112.1l-2.4-5.8-2.4 5.8zm-4.2-10.6h3.7l7.7 18.2h-4.2l-1.6-4h-7.6l-1.6 4h-4l7.6-18.2zM106 110.3c1.9 0 3-1.1 3-2.6s-1.2-2.6-3.1-2.6H102v5.2zm-7.9-8.8h8.2a7.1 7.1 0 0 1 5.2 1.8 5.7 5.7 0 0 1 1.5 4.2 5.5 5.5 0 0 1-3.8 5.6l4.4 6.6H109l-4-5.9h-3v5.9h-3.9v-18.2zM122.8 116.1a5.2 5.2 0 0 0 5.4-5.5 5.2 5.2 0 0 0-5.4-5.5h-3.1v11zm-7-14.6h7c5.7 0 9.6 3.9 9.6 9.1s-3.9 9.1-9.6 9.1h-7v-18.2zM133.5 117l2.3-2.8a8.4 8.4 0 0 0 5.4 2.2c1.6 0 2.6-.7 2.6-1.8s-.7-1.5-3.7-2.3-5.9-1.9-5.9-5.6 2.6-5.4 6.3-5.4a10 10 0 0 1 6.6 2.3l-2 3a8.7 8.7 0 0 0-4.7-1.8c-1.5 0-2.3.7-2.3 1.6s.8 1.6 3.9 2.4 5.7 2.3 5.7 5.5-2.7 5.6-6.6 5.6a11 11 0 0 1-7.6-2.9zM36.7 88.6v-13h4.9v12.8c0 3.7 1.9 5.6 4.9 5.6s4.8-1.8 4.8-5.4v-13h5v12.8c0 6.9-3.9 10.2-9.9 10.2s-9.7-3.4-9.7-10zM70 86.6c2.4 0 3.8-1.3 3.8-3.3s-1.5-3.2-3.9-3.2H65v6.5zm-10-11h10.3a9 9 0 0 1 6.6 2.3 7.4 7.4 0 0 1 1.9 5.2 7.2 7.2 0 0 1-4.8 7.1l5.5 8.1h-5.8L68.8 91H65v7.3h-5V75.6zM93.1 93.9c2.2 0 3.5-.8 3.5-2.5s-1.2-2.5-3.7-2.5h-5.7v5zm-1.3-9.1c2.1 0 3.5-.7 3.5-2.5S94.2 80 92.1 80h-4.9v4.8zm-9.4-9.2h10.4a8.1 8.1 0 0 1 5.9 2 5.3 5.3 0 0 1 1.5 3.9 5.2 5.2 0 0 1-2.9 4.9c2.6 1 4.2 2.5 4.2 5.7s-3.4 6.2-8.4 6.2H82.4V75.6zM127.7 75.6h4.5l10.5 14v-14h4.9v22.7h-4.2l-10.9-14.4v14.4h-4.8V75.6zM116.7 88.9l-3-7.3-3 7.3zm-5.2-13.3h4.6l9.5 22.7h-5.1l-2-4.9H109l-2 4.9h-5.1l9.6-22.7z"/>
  <path fill="#fff" d="M53.6 66.5v-1.1c-3.1 0-5-1.9-5-4.4s1.9-4.4 5-4.4v-.9h2.2v.9c3 0 4.9 1.9 4.9 4.4s-1.8 4.4-4.9 4.4v1.1zm0-7.9a2.4 2.4 0 0 0-2.7 2.4 2.5 2.5 0 0 0 2.7 2.5zm2.2 4.9a2.5 2.5 0 0 0 2.7-2.5 2.4 2.4 0 0 0-2.7-2.4zM71.3 66.1h-2.2v-6.6l-4.3 6.6h-2.1v-10h2.2v6.6l4.4-6.6h2zM73.9 56.1h2.2v4h4v-4h2.2v10h-2.2v-4h-4v4h-2.2zM87.8 56h2l4.3 10.1h-2.3l-.9-2.2h-4.3l-.9 2.2h-2.2zm2.3 5.9l-1.3-3.2-1.4 3.2zM104 56.1v10h-2.2v-8h-2.9v.7c0 5.9-1 7.5-3.3 7.5l-1.1-.2v-1.8h.4c1.2 0 1.8-.7 1.8-6.1v-2.1zM115.2 66.1H113v-6.6l-4.4 6.6h-2.1v-10h2.2v6.6l4.4-6.6h2.1zM116.9 61.1a5.2 5.2 0 0 1 5.3-5.2 4.7 4.7 0 0 1 3.8 1.7l-1.3 1.5a3.5 3.5 0 0 0-2.6-1.1 3 3 0 0 0-2.9 3.1 3 3 0 0 0 2.9 3.2 3.8 3.8 0 0 0 2.7-1.2l1.4 1.5a5.2 5.2 0 0 1-4.1 1.7 5.1 5.1 0 0 1-5.2-5.2zM130.4 58.1h-3v-2h8.3v2h-3.1v8h-2.2zM64.6 140.4l6.7-5.9c2.8-2.5 3.8-3.9 3.8-5.8a3.5 3.5 0 0 0-3.7-3.5c-2.1 0-3.5 1.1-4.9 3.2l-1.6-1.2c1.7-2.4 3.4-3.9 6.7-3.9s5.7 2.2 5.7 5.3-1.4 4.3-4.7 7.2l-4.9 4.4h9.8v1.9H64.6zM80.3 132.8c0-5.2 3.1-9.5 7.8-9.5s7.8 4.3 7.8 9.5-3.1 9.6-7.8 9.6-7.8-4.4-7.8-9.6zm13.4 0c0-4-2.2-7.6-5.6-7.6s-5.7 3.5-5.7 7.6 2.2 7.7 5.7 7.7 5.6-3.6 5.6-7.7zM101.5 125.6l-3.5 1.1-.5-1.7 4.5-1.6h1.6v18.7h-2.1zM117.3 125.5h-10.2v-1.9h12.6v1.5l-8.4 17H109z"/>
</svg>
