<?xml version="1.0" encoding="UTF-8"?>
<!DOCTYPE svg PUBLIC "-//W3C//DTD SVG 1.1//EN" "http://www.w3.org/Graphics/SVG/1.1/DTD/svg11.dtd">
<!-- Creator: CorelDRAW 2017 -->
<svg xmlns="http://www.w3.org/2000/svg" xml:space="preserve" width="201px" height="199px" version="1.1" shape-rendering="geometricPrecision" text-rendering="geometricPrecision" image-rendering="optimizeQuality" fill-rule="evenodd" clip-rule="evenodd"
viewBox="0 0 116.29 115.54"
 xmlns:xlink="http://www.w3.org/1999/xlink">
 <g id="Слой_x0020_1">
  <metadata id="CorelCorpID_0Corel-Layer"/>
  <path fill="#00823C" d="M110.28 66.43l0.02 -0.02c0,0 -0.03,0.01 -0.02,0.02zm-15.81 -13.9l0.02 -0.02c0,0 -0.02,0.01 -0.02,0.02zm-2.34 -7.02l0.02 -0.03c0,0.01 -0.03,0.02 -0.02,0.03zm13.46 -8.78c0.01,0 0.03,-0.04 0.03,-0.02 -0.01,0 -0.03,0.01 -0.03,0.02zm-16.39 3.95c0.01,0.01 0.03,-0.03 0.03,-0.02 0,0 -0.03,0.01 -0.03,0.02zm-33.94 -33.8c0,0 0.02,-0.04 0.02,-0.03 0,0 -0.03,0.02 -0.02,0.03zm1.75 0c0.01,0 0.02,-0.04 0.02,-0.03 0,0.01 0.01,-0.01 0.01,0 0,0 0,0 -0.01,0 0,0 -0.03,0.02 -0.02,0.03zm-56.7 65.99l0 -0.07c-0.65,-7.85 -0.07,-16.79 -0.07,-24.66l0 -0.13c0,-4.54 -0.26,-10.26 5.79,-10.98 1.46,-0.17 10.88,-0.08 12.72,-0.08l0 41.63c-2.59,0 -5.17,0 -7.76,0 -0.95,0 -4.12,0.1 -5.21,-0.13 -2.95,-0.6 -4.59,-2.26 -5.47,-5.58zm75.2 -1.37c0.22,-0.24 0.13,-0.08 0.46,-0.31l0.39 -0.26c0.06,-0.04 0.08,-0.04 0.15,-0.07 0.02,-0.02 0.08,-0.04 0.1,-0.05 0.01,-0.01 0.03,-0.02 0.04,-0.03 0.02,-0.01 0.03,-0.02 0.05,-0.03 0.07,-0.06 0.14,-0.16 0.26,-0.25 0.14,-0.09 0.18,-0.07 0.32,-0.19l1.14 -0.99c0.15,-0.12 0.13,-0.12 0.26,-0.25l1.76 -2c0.01,-0.01 0.01,-0.03 0.02,-0.03 0.11,-0.22 0.31,-0.26 0.61,-0.84l0.18 -0.32c0.01,-0.01 0.02,-0.03 0.03,-0.03l0.08 -0.13c0.84,-1.38 1.06,-2.43 1.41,-3.09l0 -0.08 0.14 -0.51 0 -0.07c0.05,-0.19 0.14,-0.37 0.17,-0.53 0.02,-0.13 -0.02,-0.03 0.01,-0.21l0.19 -0.8c0,-0.01 0.01,-0.03 0.01,-0.04l0.06 -0.4 0 -0.07 0 -0.07 0 -0.08 0.15 -1.53 0 -0.08 0 -0.07 0 -0.07 0 -0.08 0 -0.07 0 -0.07 0 -0.08 0 -0.07 0 -0.07 0 -0.22 0 -0.07 0 -0.22 0 -0.08c-0.05,-0.23 -0.03,-0.32 -0.06,-0.59 -0.02,-0.11 -0.03,-0.27 -0.04,-0.37 -0.01,-0.1 0.01,-0.14 -0.05,-0.28l0 -0.07 0 -0.22 0 -0.08c-0.1,-0.16 -0.05,-0.45 -0.14,-0.65l0 -0.08c-0.05,-0.11 -0.02,-0.05 -0.03,-0.12 -0.01,-0.02 -0.04,-0.13 -0.05,-0.17 -0.06,-0.25 0,-0.19 -0.08,-0.37l0 -0.07 -0.14 -0.37 0 -0.07c-0.02,-0.26 -0.69,-2.03 -0.73,-2.12l0.07 0 -0.06 -0.09 -0.01 0.09c-0.01,-0.01 -0.02,-0.06 -0.03,-0.05 -0.03,0.1 0,0 -0.12,-0.24l-0.43 -0.88 0.07 0 -0.06 -0.09 -0.01 0.09c-0.01,-0.02 -0.03,-0.06 -0.03,-0.05 -0.03,0.08 0.01,0 -0.15,-0.21l-0.3 -0.51c-0.01,-0.02 -0.04,-0.07 -0.05,-0.09 -0.01,-0.02 -0.02,-0.04 -0.03,-0.05l-0.46 -0.64c-0.05,-0.08 -0.05,-0.1 -0.08,-0.14 -0.09,-0.16 0.01,-0.03 -0.11,-0.18l-0.18 -0.19c-0.01,-0.01 -0.02,-0.02 -0.03,-0.03 -0.01,-0.01 -0.03,-0.03 -0.04,-0.04l-0.16 -0.2c-0.01,-0.01 -0.03,-0.04 -0.03,-0.05 -0.01,0 -0.03,-0.02 -0.04,-0.03 -0.25,-0.39 -0.38,-0.47 -0.4,-0.48 -0.35,-0.36 -1.38,-1.47 -1.81,-1.77 -0.02,-0.01 -0.06,-0.03 -0.07,-0.04l-0.27 -0.2c-0.16,-0.16 -0.03,-0.05 -0.2,-0.17 -0.24,-0.17 -0.06,0.05 -0.25,-0.2l0.08 0 -0.06 -0.08 -0.02 0.08 -0.79 -0.53c-0.03,-0.02 -0.09,-0.04 -0.15,-0.07 -0.05,-0.02 -0.02,-0.02 -0.15,-0.06l-0.67 -0.43c-0.01,0 -0.04,-0.02 -0.05,-0.02l-0.09 -0.06 0.07 0 -0.06 -0.08 -0.01 0.08c-0.12,-0.06 -0.22,-0.09 -0.35,-0.16 -0.08,-0.04 -0.26,-0.13 -0.34,-0.17 -0.24,-0.11 -0.49,-0.2 -0.73,-0.29 -0.22,-0.08 -0.18,-0.06 -0.37,-0.15l-1.14 -0.4 0.08 0 -0.06 -0.08 -0.02 0.08c-0.34,-0.01 -0.22,-0.06 -0.44,-0.08l-0.31 -0.04c-0.21,-0.03 -0.04,-0.03 -0.22,0.01 -0.02,0 -0.08,0.03 -0.1,0.03l-0.61 0.08 -0.07 0c-0.11,0.14 -0.06,0.07 -0.16,0.13 -0.01,0.01 -0.2,0.11 -0.24,0.13 -0.18,0.11 -0.26,0.15 -0.41,0.25l-0.07 0.08 -0.07 0.07 -0.08 0.07 -0.12 0.25c0,0.01 -0.01,0.03 -0.02,0.05l-0.22 0.65 0 0.08c-0.09,0.21 -0.03,0.19 0,0.51l0 0.07c0.05,0.24 0.02,0.06 0.06,0.23 0.07,0.29 0.07,0.5 0.32,0.85l0.5 0.53c0.16,0.17 0.7,0.36 0.86,0.39 0.2,0.03 0.19,-0.01 0.38,0.13l0.07 0c0.08,0.03 0.1,0.03 0.17,0.05l0.15 0.07c0.01,0 0.03,0.01 0.05,0.02l0.07 0c0.22,0.1 0.44,0.12 0.66,0.22 0.43,0.21 1.33,0.65 1.68,0.95l-0.07 0 0.06 0.09 0.01 -0.09 1.36 0.98c0.45,0.38 0.84,0.78 1.15,1.26l0.31 0.36c0.01,0.01 0.02,0.03 0.03,0.04l0.41 0.62c0,0.01 0.01,0.03 0.02,0.05l0.2 0.31c0.49,0.74 0.73,1.56 0.78,1.65l0 0.07c0.24,0.2 0.06,0.01 0.16,0.34l0.32 1.22c0.28,1.12 0.29,2.86 0.1,3.86l-0.08 0.8c-0.16,0.18 -0.27,0.94 -0.37,1.24l-0.98 2.17c-0.21,0.39 -0.61,0.99 -0.92,1.27l-0.11 0.11c-0.01,0.01 -0.03,0.03 -0.04,0.04l-0.07 0.09 -0.05 0.06 0 0.07c-0.04,0.05 -0.09,0.13 -0.14,0.17 -0.12,0.11 -0.01,0.06 -0.17,0.12l0 -0.07 -0.09 0.06 0.09 0.01c-0.09,0.13 -0.13,0.2 -0.26,0.33 -0.11,0.13 0,0.04 -0.15,0.15 -0.11,0.08 -0.03,0.05 -0.18,0.11l0 -0.08 -0.08 0.06 0.08 0.02c-0.27,0.4 -0.95,0.8 -1.29,1.05l-0.5 0.31c-0.22,0.15 -0.39,0.31 -0.7,0.39l-0.07 0c-0.15,0.21 -0.27,0.18 -0.52,0.27l-0.21 0.1c-0.14,-0.14 -8.91,-9.03 -9.22,-9.15l0 -41.19c0,-0.82 0.06,-3.22 -0.05,-3.92 -0.06,-0.36 -0.06,-0.31 -0.06,-0.53 -0.01,-0.27 -0.02,-0.3 -0.1,-0.61 -0.2,-0.77 0.18,-0.19 -0.6,-1.92 -0.4,-0.89 -0.19,-0.33 -0.48,-0.88 -0.22,-0.42 -0.1,-0.27 -0.42,-0.6 -0.05,-0.05 -0.07,-0.07 -0.11,-0.11 -0.44,-0.45 -0.04,-0.18 -0.49,-0.5l-0.24 -0.23c-0.01,-0.01 -0.03,-0.02 -0.04,-0.03 -0.01,-0.01 -0.03,-0.03 -0.04,-0.04l-0.19 -0.18c0,-0.01 -0.02,-0.03 -0.03,-0.04l-0.07 -0.07 -0.4 -0.19c-0.02,-0.01 -0.08,-0.04 -0.1,-0.05l-0.65 -0.34c-0.01,0 -0.03,-0.01 -0.04,-0.01l-0.35 -0.15c-0.42,-0.19 -0.68,-0.2 -1.17,-0.28 -0.24,-0.04 -0.32,-0.07 -0.59,-0.07l-0.07 0 -0.22 0 -0.08 0 -0.22 0 -0.07 0 -0.76 0.1c-0.26,0.02 -0.49,0.12 -0.72,0.17l-1.79 0.7c-0.02,0.01 -0.03,0.02 -0.05,0.03 -0.01,0.01 -0.02,0.02 -0.03,0.03 -0.01,0.01 -0.03,0.02 -0.04,0.03l-0.52 0.29c-0.02,0.01 -0.08,0.04 -0.1,0.05 -5.35,4.23 -15.21,16.46 -19.99,19.67 -0.23,-0.65 -26.16,-26.29 -27.32,-27.41 -0.23,-0.24 -0.65,-0.46 -0.99,-0.54l-1.18 0.06c-0.73,0.26 -1.3,0.74 -1.51,1.48l-0.02 0.09c-0.16,0.51 -0.15,0.98 0.04,1.49l0.1 0.18c0.13,0.19 0.09,0.05 0.15,0.29l0.07 0.07 0.33 0.33c0.01,0.01 0.03,0.03 0.04,0.04 36.79,36.85 73.72,73.63 110.5,110.53 1.33,1.33 2.75,1.24 3.76,0.16 0.59,-0.63 0.79,-2.31 -0.27,-3.22l0.08 0 -0.06 -0.08 -0.02 0.08c-5.8,-5.81 -11.17,-11.18 -16.97,-16.97l0.07 0 -0.06 -0.09 -0.01 0.09 -0.31 -0.28c0.28,-0.3 0.38,-0.45 0.73,-0.66 0.17,-0.09 0.14,-0.09 0.24,-0.23 0.16,-0.06 0.06,-0.03 0.17,-0.12 0.05,-0.04 0.15,-0.13 0.2,-0.17 0.16,-0.12 0.28,-0.19 0.42,-0.3 0.11,0 0.09,0.03 0.09,-0.08l0.39 -0.4c0.84,-0.82 1.99,-1.66 2.75,-2.66l0.73 -0.82c0.17,-0.18 0.22,-0.16 0.41,-0.39 0.37,-0.42 0.3,-0.45 0.7,-0.84l1.09 -1.32 0 0.07 0.08 -0.06 -0.08 -0.01c0.05,-0.21 0.05,-0.11 0.21,-0.3l0.71 -0.97c0.33,-0.37 0.15,-0.26 0.32,-0.49l0.22 -0.22 0 -0.07c0.1,-0.15 0.17,-0.2 0.28,-0.38 0.14,-0.22 0.11,-0.28 0.31,-0.42l0.07 -0.07c0.06,-0.24 0.05,-0.12 0.14,-0.31 0.09,-0.19 0.05,-0.17 0.19,-0.33 0.04,-0.04 0.02,-0.01 0.11,-0.1 0,0 0.08,-0.1 0.08,-0.1 0.03,-0.05 0.04,-0.12 0.12,-0.28 0.12,-0.21 0.23,-0.37 0.36,-0.59l1.34 -2.4c0.01,-0.01 0.02,-0.03 0.03,-0.04l0.3 -0.58c0.01,-0.02 0.02,-0.03 0.03,-0.04l0.34 -0.76c0.03,-0.06 0.04,-0.09 0.07,-0.15l0.6 -1.28c0,-0.01 0.01,-0.02 0.02,-0.03 0,-0.01 0.01,-0.03 0.01,-0.04 0.01,-0.01 0.04,-0.1 0.05,-0.11l0.44 -1.08c0.28,-0.61 0.39,-1.11 0.53,-1.37l0.07 -0.08c-0.07,-0.16 -0.05,-0.09 0.07,-0.21l0 -0.08 0.29 -0.8 0 -0.08 0.3 -0.8 0 -0.07 0.15 -0.53c0.01,-0.01 0.01,-0.04 0.02,-0.05l0.27 -0.94c0,-0.01 0.01,-0.03 0.01,-0.04l0.3 -1.21c0.05,-0.23 0.01,-0.15 0.12,-0.38l0 -0.07c0.01,-0.32 0.1,-0.47 0.16,-0.73 0.04,-0.17 0.03,-0.17 0.05,-0.28 0.05,-0.27 0.06,-0.06 0.09,-0.38l0 -0.08c0.12,-0.25 0.01,-0.08 0.06,-0.32l0.25 -1.27c0.13,-0.56 0.16,-1.35 0.27,-1.85l0 -0.07c0.21,-2.28 0.29,-2.73 0.34,-5.15l-0.34 -6.92 0.08 0 -0.06 -0.09 -0.02 0.09 -0.58 -3.51 0.07 0 -0.06 -0.09 -0.01 0.09c-0.16,-0.18 -0.07,-0.13 -0.16,-0.5l-0.43 -1.84 0.08 0 -0.06 -0.09 -0.02 0.09 -0.34 -1.19c-0.09,-0.26 -0.12,-0.3 -0.19,-0.54l-0.2 -0.61 0 -0.08c-0.07,-0.27 -0.07,-0.09 -0.15,-0.36l0 -0.08c-0.07,-0.14 -0.1,-0.18 -0.14,-0.36l0 -0.08c-0.08,-0.14 -0.1,-0.17 -0.15,-0.36l0 -0.07c-0.21,-0.4 -0.17,-0.53 -0.31,-0.86l-0.13 -0.32c-0.24,-0.5 -0.17,-0.66 -0.36,-0.87l-0.6 -1.48c-0.01,-0.01 -0.02,-0.03 -0.02,-0.04 0,-0.01 -0.01,-0.02 -0.01,-0.03 -0.01,-0.01 -0.02,-0.03 -0.02,-0.04l-0.08 -0.17c-0.01,-0.01 -0.02,-0.03 -0.03,-0.04l-0.12 -0.26c-0.05,-0.11 -0.04,-0.09 -0.09,-0.2 -0.06,-0.15 -0.13,-0.27 -0.19,-0.39 -0.25,-0.49 -0.46,-0.91 -0.71,-1.41l-0.23 -0.43c-0.01,-0.01 -0.02,-0.03 -0.03,-0.05 -0.01,-0.01 -0.02,-0.03 -0.03,-0.04l-0.39 -0.7c-0.01,-0.01 -0.02,-0.03 -0.03,-0.05l-0.06 -0.09 -0.63 -1.12c-0.01,-0.01 -0.03,-0.03 -0.03,-0.04l-0.07 -0.08c-0.01,-0.01 -0.02,-0.03 -0.03,-0.05l-0.16 -0.28c-0.18,-0.27 -0.63,-0.9 -0.69,-1.13l-0.07 -0.08 -1.12 -1.58c-0.1,-0.1 -0.13,-0.15 -0.2,-0.25l0 -0.07c-0.08,-0.09 -0.15,-0.16 -0.24,-0.26 -0.18,-0.22 -0.05,-0.17 -0.27,-0.33 -0.03,-0.13 -0.02,-0.07 -0.07,-0.14l-0.35 -0.46c-0.17,-0.26 -0.3,-0.27 -0.48,-0.54 -0.09,-0.13 -0.11,-0.18 -0.2,-0.31 -0.2,-0.28 -0.42,-0.37 -0.73,-0.81l0 -0.08 -1.09 -1.1c-0.53,-0.53 -1.3,-1.51 -1.76,-1.82 -0.18,-0.25 -0.02,-0.04 -0.2,-0.17l-0.41 -0.39c-0.01,-0.01 -0.03,-0.03 -0.04,-0.04l-0.89 -0.86c-0.12,-0.1 -0.12,-0.09 -0.22,-0.21 0,-0.12 0.03,-0.09 -0.09,-0.09 -0.16,-0.04 -0.09,-0.01 -0.23,-0.11 -0.02,-0.01 -0.07,-0.05 -0.08,-0.06l-0.29 -0.31c-0.12,-0.11 -0.05,-0.05 -0.18,-0.16 0,-0.12 0.03,-0.09 -0.09,-0.09 -0.21,-0.06 -0.36,-0.23 -0.51,-0.36l-1.45 -1.18 -0.08 0c-0.19,-0.13 -0.35,-0.24 -0.56,-0.39l-3.11 -2.08c-0.36,-0.19 -0.72,-0.47 -0.94,-0.53l-1.49 -0.84c-0.77,-0.36 -0.69,-0.44 -1.54,-0.45 -0.23,0 -0.58,-0.01 -0.73,0.04l-0.26 0.11c-0.41,0.14 -0.08,0.03 -0.36,0.25l-0.14 0.07c-0.08,0.06 -0.05,0.04 -0.12,0.12 -0.02,0.02 -0.3,0.32 -0.37,0.71 -0.02,0.13 -0.07,0.25 -0.11,0.43l0 0.08c-0.04,0.69 -0.07,0.55 0.05,1.26 0.05,0.28 0.01,0.2 0.1,0.42 0.07,0.15 -0.01,-0.03 0.08,0.14 0.54,0.99 1.11,1.09 2.2,1.67l0.13 0.09c0.58,0.38 0.53,0.15 0.74,0.45l0.07 0c0.21,0.04 0.11,-0.03 0.22,0.14l0.08 0.07c0.22,0.05 0.29,0.12 0.48,0.25 0.06,0.03 0.17,0.1 0.22,0.12 0.16,0.1 0.09,-0.09 0.17,0.14l-0.07 0 0.06 0.09 0.01 -0.09c0.28,0.08 0.46,0.27 0.66,0.43l0.07 0c0.11,0.08 0.13,0.11 0.25,0.2 0.25,0.16 0.61,0.32 0.78,0.54l-0.08 0 0.06 0.09 0.02 -0.09 0.5 0.31c0.01,0 0.03,0.02 0.04,0.03 0.31,0.26 -0.22,-0.21 0.07,0.07l0.19 0.18 0.07 0c0.4,0.25 0.3,0.27 0.71,0.53l1.01 0.82c0.4,0.42 0.46,0.28 1,0.84 0.01,0.01 0.02,0.02 0.03,0.03l3.48 3.48c0.08,0.09 0.05,0.05 0.14,0.15 0.01,0.02 0.06,0.06 0.07,0.08l0.07 0.07c0.11,0.13 0.11,0.14 0.25,0.26 0.09,0.08 0.03,0.01 0.12,0.1l1.41 1.74c0.01,0.02 0.05,0.07 0.06,0.08l0.07 0.08 2.71 4.03 0 0.07c0.2,0.16 0.09,0.05 0.21,0.29 0.01,0.02 0.02,0.04 0.03,0.05 0.01,0.02 0.02,0.03 0.02,0.05 0.15,0.31 0.05,-0.2 0.1,0.27l0.07 0.07c0.18,0.13 0.49,0.86 0.6,1.09l1.55 3.26c0.05,0.16 -0.01,0 0.04,0.17 0,0.03 0.06,0.17 0.07,0.18l0.7 1.71c0.08,0.18 0.04,0.07 0.07,0.17l0.1 0.39c0.08,0.25 0.09,0.23 0.16,0.4l0.61 1.9c0.07,0.53 0.59,2.22 0.64,2.81l0 0.07c0.01,0.01 0.02,0.02 0.02,0.05l0.27 1.34 0 0.07c0.16,0.33 0.08,0.57 0.16,0.94 0.04,0.18 0.09,0.39 0.09,0.56 0.01,0.23 0.02,0.17 0.04,0.48l0 0.07 0.05 0.11c0,0.01 0.01,0.04 0.01,0.06 0.01,0.01 0.01,0.04 0.02,0.06 0.04,0.25 -0.01,0.53 0.07,0.72l0 0.07c0,0.44 0.09,0.75 0.11,1.05 0.01,0.11 0.01,0.18 0,0.35 0,0.2 0.01,0.13 0.04,0.43l0 0.08 0 0.22 0 0.07 0 0.22 0 0.07 0.03 3.1c-0.01,0.15 0,0.08 -0.01,0.18 0,0.08 -0.02,0.19 -0.02,0.31l0 0.07 0 0.22 0 0.07c-0.04,0.47 -0.13,2.51 -0.29,2.86l-0.08 0 0.06 0.08 0.02 -0.08c0.07,0.13 -0.35,2.68 -0.39,2.83l-0.23 1.08c-0.05,0.55 -0.03,0.19 -0.14,0.59 -0.16,0.59 -0.3,1.55 -0.54,2.1l-1.11 3.35c-0.06,0.23 -0.38,1.05 -0.5,1.17l0 0.07 -0.28 0.7c-0.08,0.17 -0.12,0.25 -0.19,0.39l-0.76 1.58c0,0.01 0.04,0.02 -0.04,0.18l-0.22 0.3 0 0.07 -0.14 0.22 0 0.07c-0.05,0.21 0.01,0.11 -0.14,0.22 -0.11,0 -0.08,-0.02 -0.08,0.09 -0.16,0.54 -0.89,1.6 -1.2,2.15l-1.07 1.57 0 0.07 -0.51 0.73c-0.01,0.02 -0.02,0.03 -0.03,0.04 -0.29,0.35 -0.69,0.99 -0.96,1.24 -0.01,0.02 -0.13,0.15 -0.14,0.16l-0.11 0.17 0 -0.07 -0.09 0.06 0.09 0.01c-0.05,0.07 -0.12,0.18 -0.18,0.26l-0.18 0.19c-0.01,0.01 -0.03,0.02 -0.04,0.03 -0.11,0.14 -0.11,0.16 -0.18,0.26 -0.27,0.42 -0.44,0.44 -0.64,0.68l-0.79 0.96c-0.22,0.26 -0.26,0.21 -0.46,0.42l-0.86 0.9c-0.54,0.52 -1,1 -1.6,1.47l-0.59 0.58c-0.02,0.01 -0.07,0.05 -0.08,0.07 -0.19,0.15 -0.31,0.21 -0.51,0.37l-0.74 0.57c-0.21,0.18 -0.12,0.05 -0.18,0.27 -0.16,-0.05 -2.63,-2.56 -3,-2.93l0.07 0 -0.06 -0.09 -0.01 0.09 -0.58 -0.59 0.07 0 -0.06 -0.08 -0.01 0.08 -0.59 -0.58 0.07 0 -0.06 -0.09 -0.01 0.09 -0.58 -0.59 0.07 0 -0.06 -0.08 -0.01 0.08 -0.59 -0.58 0.07 0 -0.06 -0.09 -0.01 0.09 -0.59 -0.59 0.08 0 -0.06 -0.08 -0.02 0.08 -0.58 -0.58 0.07 0 -0.06 -0.09 -0.01 0.09c-0.16,-0.16 -0.84,-0.82 -0.88,-0.95 0.19,-0.26 -0.02,-0.01 0.28,-0.24l0.2 -0.17c0.01,0 0.03,-0.02 0.04,-0.03 0.44,-0.41 0.24,-0.34 0.81,-0.79l0.21 -0.17 0.58 -0.58 0.59 -0.59 0.58 -0.58 0.07 -0.08c0.56,-0.71 0.62,-0.59 1.13,-1.29l0.53 -0.71c0.01,-0.01 0.12,-0.13 0.14,-0.15l0.56 -0.69c0.04,-0.04 0.09,-0.12 0.12,-0.16l0.67 -1.06c0,-0.01 0.01,-0.03 0.02,-0.04 0.01,-0.01 0.05,-0.05 0.06,-0.06 0.38,-0.4 0.43,-0.74 0.61,-0.92 0.04,-0.04 0.1,-0.09 0.12,-0.11l0 -0.07c0.07,-0.26 0.09,-0.17 0.25,-0.41 0.12,-0.19 0.14,-0.29 0.24,-0.49l0.26 -0.4c0.28,-0.39 0.37,-0.8 0.59,-1.16l0.37 -0.73c0.05,-0.12 0.07,-0.2 0.08,-0.23l0.54 -1.13c0.11,-0.22 0.11,-0.27 0.19,-0.54 0.17,-0.54 0.33,-0.7 0.4,-1.06 0.16,-0.71 0.25,-0.55 0.34,-0.9l0.29 -1c0.09,-0.56 0.25,-0.72 0.31,-1.15 0.03,-0.23 -0.03,0.04 0.02,-0.14l0.11 -0.44c0.02,-0.08 0.06,-0.21 0.07,-0.28l0.32 -1.44c0.1,-0.31 0.01,-0.29 0.05,-0.63l0.06 -0.22c0.09,-0.28 0.07,-0.3 0.08,-0.5l0.16 -1.58c0.01,-0.47 0.11,-0.57 0.12,-0.98l-0.08 -4.7c0,-0.01 0,-0.03 -0.01,-0.04 -0.07,-0.44 -0.13,-1.87 -0.27,-2.27l-0.25 -1.65c-0.06,-0.24 -0.03,-0.07 -0.09,-0.27l-0.83 -3.13c0,-0.02 -0.02,-0.07 -0.03,-0.09 0,-0.01 -0.01,-0.03 -0.01,-0.04l-0.12 -0.36c0,-0.01 -0.01,-0.03 -0.01,-0.04l-0.04 -0.12c-0.06,-0.2 -0.1,-0.27 -0.18,-0.49l-0.39 -1.08c-0.09,-0.19 -0.12,-0.36 -0.2,-0.53l0 -0.07c-0.13,-0.09 -0.42,-0.88 -0.54,-1.14 -0.1,-0.21 -0.18,-0.33 -0.28,-0.53l-1.45 -2.77c0,-0.12 0.04,-0.1 -0.07,-0.1 -0.24,-0.17 -0.08,-0.08 -0.33,-0.48l-0.32 -0.48c-0.01,-0.01 -0.02,-0.03 -0.03,-0.04l-0.21 -0.31c-0.04,-0.06 0,0.02 -0.09,-0.12l-0.17 -0.28c0,-0.01 -0.02,-0.03 -0.03,-0.04l-1.53 -1.98c-0.14,-0.15 -0.2,-0.29 -0.35,-0.46l-1.71 -1.87c-0.05,-0.05 -0.05,-0.05 -0.11,-0.11l-0.4 -0.4c-0.32,-0.33 -0.45,-0.33 -0.58,-0.53l0.08 0 -0.06 -0.08 -0.02 0.08c-0.34,-0.23 -0.53,-0.49 -0.85,-0.75l-0.58 -0.44c-0.61,-0.6 -0.33,-0.26 -0.68,-0.57 -0.01,-0.01 -0.03,-0.02 -0.04,-0.03l-1.48 -1.08c-0.01,-0.01 -0.03,-0.02 -0.04,-0.03l-0.26 -0.19c-0.07,-0.05 -0.06,-0.03 -0.14,-0.08l-3.28 -1.86c-0.21,-0.06 -0.14,-0.05 -0.3,-0.1 -0.24,-0.07 -0.59,-0.04 -0.86,0.05 -0.73,0.26 -0.54,0.12 -1.11,0.65 -0.98,0.91 -1.08,2.29 -0.07,3.31l2.74 1.72c0.01,0.01 0.2,0.18 0.22,0.2 0,0.12 -0.02,0.08 0.12,0.08 0.21,0.07 0.07,0.07 0.48,0.27l0.28 0.24c0.06,0.06 0.1,0.12 0.19,0.18l0.62 0.48c0.35,0.28 0.29,0.11 0.7,0.55l0.48 0.46c0.17,0.14 0.31,0.21 0.43,0.38l-0.08 0 0.06 0.09 0.02 -0.09c0.13,0.09 0.18,0.15 0.32,0.27 0.14,0.11 0.02,-0.02 0.15,0.14 0.09,0.11 0.06,0.02 0.11,0.18l-0.07 0 0.06 0.08 0.01 -0.08c0.2,0.07 0.46,0.4 0.59,0.58l-0.08 0 0.07 0.09 0.01 -0.09 0.58 0.59 -0.07 0 0.06 0.09 0.01 -0.09c0.01,0.01 0.03,0.02 0.04,0.04l0.29 0.37c0.33,0.36 0.07,-0.07 0.58,0.66l0.23 0.28c0.47,0.48 0.21,0.27 0.41,0.54l0.81 1.04 0 0.07 1.56 2.44c0.1,0.18 0.1,0.25 0.18,0.41l-0.07 0 0.06 0.09 0.01 -0.09c0.06,0.07 0.14,0.15 0.2,0.24 0.13,0.21 0.04,0.09 0.14,0.31 0.08,0.2 0.19,0.37 0.28,0.59 0.06,0.15 0.06,0.18 0.12,0.31 0.04,0.09 0.11,0.22 0.15,0.3 0.04,0.08 0.11,0.21 0.15,0.28 0.09,0.17 0.09,0.12 0.13,0.31l0 0.08c0.27,0.38 0.24,0.73 0.47,1.06 0.07,0.1 0.05,0.05 0.08,0.14 0,0 0.02,0.12 0.03,0.19l0 0.07 0.21 0.5c0.01,0.01 0.01,0.03 0.02,0.04l0.07 0.27 0 0.07c0.04,0.06 0.03,0.03 0.08,0.14 0.05,0.12 0.03,0.07 0.06,0.22l0 0.08c0.21,0.15 0.07,0.03 0.16,0.36l0 0.08c0.15,0.32 0.05,0.21 0.14,0.51 0.04,0.12 0.05,0.1 0.09,0.3 0.04,0.2 -0.07,0.02 0.05,0.28l0 0.08c0.18,0.33 0.06,0.2 0.15,0.51 0.03,0.1 0.06,0.13 0.1,0.3 0.02,0.1 0.01,0.1 0.04,0.28l0 0.08c0.13,0.46 0.08,0.55 0.13,0.86l0.13 0.71c0.01,0.21 0.06,0.57 0.12,0.9 0.04,0.16 0.01,0.51 0.13,1.21 0.01,0.01 0.01,0.02 0.01,0.03 0,0.01 0,0.03 0,0.03 0,0.01 0,0.03 0,0.03 0,0.07 0,0 -0.01,0.06 -0.07,0.34 -0.02,0.2 0.03,0.5l-0.01 2.8c-0.01,0.01 -0.01,0.03 -0.01,0.04 -0.14,0.57 -0.08,1.26 -0.19,1.87l-0.07 0.67c-0.03,0.34 -0.14,0.1 -0.14,0.75 0.01,0.23 0,0.13 -0.08,0.4l-0.18 0.92 0 0.07c-0.04,0.18 -0.03,0.11 -0.08,0.28l-0.07 0.23 0 0.08c-0.1,0.22 0.03,0.11 -0.18,0.69l-0.26 0.84 0 0.08 -0.14 0.36 0 0.07c-0.06,0.14 -0.04,0.17 -0.05,0.19 0,0.01 -0.01,0.03 -0.01,0.04l-0.24 0.58 0 0.07c-0.05,0.24 -0.07,0.19 -0.15,0.36l-0.04 0.1c-0.02,0.05 -0.03,0.06 -0.04,0.11 -0.16,0.43 -0.16,0.59 -0.39,1 -0.25,0.46 -0.38,0.94 -0.69,1.51l-1.6 2.7 0 0.08c-0.1,0.27 0.02,0 -0.14,0.24 -0.06,0.09 -0.11,0.18 -0.17,0.26 -0.09,0.13 -0.08,0.09 -0.17,0.2 -0.43,0.53 -0.35,0.62 -0.63,0.9 -0.16,0.16 -0.06,0.04 -0.2,0.24 -0.13,0.17 -0.2,0.29 -0.35,0.46l-0.35 0.45c-0.21,0.32 -0.18,0.21 -0.39,0.41l-0.46 0.5c-0.27,0.28 -0.19,0.29 -0.72,0.82 -0.3,0.3 -0.52,0.55 -0.86,0.81 -0.19,0.15 -0.25,0.24 -0.42,0.39l-0.16 0.14c-0.44,0.4 -0.66,0.61 -1.21,0.98 -1.82,-2.27 -6.51,-6.85 -8.72,-8.76zm-49.89 -37.55c-0.2,0.22 -1.96,2.09 -2.26,2.41 0.3,13.82 0.02,27.88 0.02,41.72 0,0.28 -0.07,0.89 0.27,1.23 8.88,8.94 18.51,18.83 27.53,27.44 3.67,3.67 11.58,0.85 11.54,-8.49l-0.26 -27.54c-0.01,-0.01 0.03,-0.01 -0.11,-0.12 -3.61,-3.5 -36.46,-36.4 -36.73,-36.65zm-1.97 45.36l0 0zm75.58 14.05l0 0zm5.78 -5.93l0.02 0.02c0,0 -0.03,-0.01 -0.02,-0.02zm-15.73 -5.2l0 0zm0.58 -0.58l0 0zm0.59 -0.59l0 0zm0.58 -0.58l0 0zm15.73 -3.59l0 0zm5.86 -2.34l0.02 0.02c0,0 -0.03,-0.01 -0.02,-0.02zm-33.95 -14.63l0 0zm1.24 -12.14l0 0zm-4.09 -3.52l0 0zm36.58 -4.53l0 0zm-2.64 -5.42l0 0zm-29.33 -1.75l0.02 0.02c0,0 -0.03,-0.02 -0.02,-0.02zm22.24 -0.52l0 0zm3.58 -3l0 0zm-4.68 -5.26l0 0zm-9.37 -7.03l0 0zm-30.07 -5.27l0.03 0.03c-0.01,0 -0.03,-0.02 -0.03,-0.03z"/>
 </g>
</svg>
