<svg xmlns="http://www.w3.org/2000/svg" fill-rule="evenodd" clip-rule="evenodd" image-rendering="optimizeQuality" shape-rendering="geometricPrecision" text-rendering="geometricPrecision" viewBox="0 0 93.6 71.9">
  <path fill="#00823C" fill-rule="nonzero" d="M86.3 63.2V8.8l-.5.1L73 12.1c-.8.2-1 .4-1 1.2v46.5l14.3 3.4zm-79.1 0l14.3-3.4v-.3l.1-46.6c0-.5-.2-.7-.7-.8a522 522 0 0 1-9.5-2.1L7.2 8.8v54.4zm21.6-49.9v45.4c12-1.5 24-1.5 36 0V13.3a166 166 0 0 1-36 0zm64.8 55.5c-.5.8-.9 1.7-1.6 2.3-1 1-2.3 1-3.6.5a126.2 126.2 0 0 0-66-4.6C16.7 68 11 69.5 5.3 71.5 2.3 72.5 0 71 0 67.8V44.3 4C0 2.3.6 1 2.2.3c1-.5 2-.3 3 0C12.4 3.4 20 5 27.7 6c9.6 1.2 19.3 1.5 29 .9A104.9 104.9 0 0 0 88.3.4c2.3-1 4.8.2 5.1 2.6l.2.2v65.6z"/>
</svg>
