<svg xmlns="http://www.w3.org/2000/svg" fill-rule="evenodd" clip-rule="evenodd" image-rendering="optimizeQuality" shape-rendering="geometricPrecision" text-rendering="geometricPrecision" viewBox="0 0 60.2 61.3">
  <g fill="#00823C" fill-rule="nonzero">
    <path d="M14.7 48.4a1.8 1.8 0 1 1 0-3.6 1.8 1.8 0 0 1 0 3.6zm0-7.2a5.4 5.4 0 1 0 0 10.8 5.4 5.4 0 0 0 0-10.8z"/>
    <path d="M37 31.9l-2-3L56.5 7.4v5L37 32zm23.2-18.6V3c0-1-.7-1.6-1.6-1.7L44.4 0h-.2c-.8 0-1.6.6-1.7 1.4l-1 5.2-5.2 1c-.8.2-1.3.7-1.4 1.5l-1 5.1-5.3 1c-.6.2-1.1.6-1.3 1.2l-2.1 6.1a19.8 19.8 0 1 0 13.3 13l21.2-21c.3-.3.5-.8.5-1.2zM8.3 52.9a16.2 16.2 0 0 1 17.3-26.4c1 .3 2-.1 2.4-1.1l2.4-6.8 5.3-1c.7-.2 1.3-.8 1.4-1.5l1-5.2 5.2-1c.7-.1 1.3-.7 1.4-1.4l1-4.8 8.7.8-23.2 23c-.7.7-.7 1.9 0 2.6A16.2 16.2 0 0 1 8.3 52.9z"/>
  </g>
</svg>
