<?xml version="1.0" encoding="UTF-8"?>
<!DOCTYPE svg PUBLIC "-//W3C//DTD SVG 1.1//EN" "http://www.w3.org/Graphics/SVG/1.1/DTD/svg11.dtd">
<!-- Creator: CorelDRAW 2017 -->
<svg xmlns="http://www.w3.org/2000/svg" xml:space="preserve" width="201px" height="168px" version="1.1" shape-rendering="geometricPrecision" text-rendering="geometricPrecision" image-rendering="optimizeQuality" fill-rule="evenodd" clip-rule="evenodd"
viewBox="0 0 116.29 97.35"
 xmlns:xlink="http://www.w3.org/1999/xlink">
 <g id="Слой_x0020_1">
  <metadata id="CorelCorpID_0Corel-Layer"/>
  <g id="_1560247043952">
   <path fill="#00823C" fill-rule="nonzero" d="M109.74 6.98c0,2.93 0,5.78 0,8.66 0.55,0 1.05,0 1.57,0 0,-2.92 0,-5.77 0,-8.66 -0.54,0 -1.02,0 -1.57,0zm-20.51 42.76c0.03,-0.02 0.05,-0.03 0.08,-0.04 -0.14,-0.65 -0.22,-1.35 -0.45,-1.94 -0.67,-1.75 -2.13,-1.77 -2.8,-0.01 -0.23,0.63 -0.35,1.43 -0.35,2.15 -0.02,1.67 0.81,3.05 1.74,3.06 0.89,0.01 1.63,-1.19 1.75,-2.85 0.01,-0.12 0.02,-0.25 0.03,-0.37zm22.08 21.88c0,-15.06 0,-30.02 0,-45.01 -0.55,0 -1.05,0 -1.58,0 0,15.03 0,29.99 0,45.01 0.53,0 1.04,0 1.58,0zm-28.6 -59.8c6.36,-1.58 12.65,-3.15 18.94,-4.71 0,-0.04 -0.01,-0.08 -0.01,-0.12 -11,0 -22,0 -33.08,0 0,29.73 0,59.4 0,89.13 -1.67,0 -3.27,0 -4.91,0 0,-32.05 0,-64.08 0,-96.12 17.55,0 35.08,0 52.64,0 0,32.1 0,64.17 0,96.26 -1.63,0 -3.23,0 -4.91,0 0,-4.54 0,-9.07 0,-13.65 -0.58,0 -1.08,0 -1.67,0 0,4.52 0,9.04 0,13.69 -1.78,-0.61 -3.46,-1.19 -5.13,-1.77 -6.99,-2.43 -13.98,-4.87 -20.97,-7.25 -0.73,-0.25 -0.92,-0.66 -0.92,-1.68 0.02,-24.15 0.02,-48.29 0.02,-72.44 0,-0.4 0,-0.81 0,-1.34z"/>
   <g>
    <path fill="#00823C" d="M41.38 35.04c-0.01,-1.07 0.62,-4.58 1.22,-5.28 0.28,-0.33 0.37,-0.3 0.49,-0.29 0.44,0 0.59,-0.21 1.19,-0.61 0.34,-0.22 0.73,-0.46 1.12,-0.66 0.75,-0.37 1.35,-0.55 1.94,-0.83 0.37,-0.17 0.31,-0.13 0.61,0.05 -0.04,0.18 -1.02,1.66 -1.2,1.94 -1.1,1.68 -2.54,4.18 -3.43,5.93l0.05 -3.55c0.28,-0.23 0.77,-0.38 0.59,-1.01 -0.15,-0.53 -0.32,-0.66 -0.9,-0.71 -0.11,0.12 -0.24,0.37 -0.34,0.54 -0.13,0.27 -0.15,0.38 -0.12,0.71 0.04,0.59 -0.13,0.8 -0.32,1.31 -0.09,0.26 -0.75,2.27 -0.9,2.46zm-28.3 0.58c-0.39,-1.34 -1.5,-4.29 -1.98,-5.45 -0.66,-1.63 -1.06,-2.55 -2.11,-3.85 -0.24,-0.29 -0.81,-0.77 -0.97,-1.01 0.37,0.11 1.49,0.88 1.86,1.16 0.82,0.63 1.53,2.09 1.97,3.02 0.54,1.16 1.3,5.17 1.42,6.54l-0.19 -0.41zm-8.67 -14.69c0.18,0.18 0.25,0.44 0.4,0.66 0.48,0.64 0.82,0.92 1.02,1.2 0.15,0.22 0.22,0.57 0.17,0.92 -0.15,-0.1 -0.24,-0.16 -0.4,-0.22 -0.88,1.26 -0.11,0.78 -1.43,1.32 -0.85,0.35 -1.07,0.66 -1.51,1.26 -0.74,1.01 -1.51,2.19 -2.01,3.58 -0.64,1.79 -0.66,2.87 -0.39,4.85 0.45,3.38 1.24,6.26 1.71,9.41 0.15,0.98 -0.02,1.48 -0.27,2.39 -0.68,2.42 -1.1,4.47 -1.35,7.02 -0.08,0.8 -0.5,4.69 -0.29,5.15l0.13 0.06c0.27,0.1 1.41,0.15 1.83,0.26l0.79 3.26c0.34,1.22 0.66,1.98 0.77,3.35 0.28,3.57 -0.2,3.79 -0.95,7.08 -1.24,5.39 -1.12,7.95 -1.07,13.21 0.01,0.6 0.09,1.53 0.04,2.08 0.08,0.26 0.07,1.58 0.09,2 0.04,0.79 0.22,1.1 0.71,1.38 0.05,0.72 -0.21,0.64 1.28,0.71 0.65,0.03 1.33,0.09 1.97,0.08l0.13 -0.4c0.35,0 1.66,0.04 1.87,0.19l0.35 0.04 0.04 0.16 -0.03 2.24c0.72,0.27 1.59,0.52 2.44,0.61 0.79,0.08 0.07,-0.36 1.18,-0.09 0.42,0.11 0.8,0.21 1.25,0.29 1.83,0.33 3.82,0.27 5.74,0.24 0.8,0.03 1.87,-0.12 2.3,-0.58 0.24,-0.25 0.05,-0.74 -0.09,-1.03 -0.19,-0.39 -0.44,-0.48 -0.88,-0.6 -2.84,-0.81 -4.01,-1.11 -4.81,-3.91 -0.09,-0.33 -0.37,-0.67 -0.55,-0.86 -0.42,-0.45 -0.45,-0.28 -0.43,-1.07 0.04,-1.84 -0.19,-3.68 -0.35,-5.47 -0.51,-5.36 -0.22,-5.59 0.21,-10.77 0.23,-2.76 -0.53,-5.34 -0.73,-7.86 -0.08,-0.91 0.03,-1.92 0.07,-2.83 0.65,-0.27 0.59,0.27 0.63,-1.27 0.04,-1.92 0.07,-3.96 -0.02,-5.87 -0.14,-2.56 -0.1,-5.11 -0.21,-7.66 0.53,0.23 0.36,0.25 1.24,0.55 0.45,0.15 0.93,0.29 1.42,0.42 0.83,0.23 2.09,0.59 2.92,0.68l0.47 -0.86 0.31 0.17c-0.06,0.14 -0.1,0.12 -0.21,0.21 0.01,0.33 0.12,0.42 0.21,0.64l0.44 0.01c-0.01,0.45 -0.01,0.46 0.36,0.61 0.31,0.13 0.11,-0.05 0.25,0.24 0.07,0.15 0.01,0.19 0.23,0.27 0.21,0.08 0.22,-0.02 0.39,0.1 0.12,0.09 0.05,0.16 0.24,0.25 0.07,0.04 0.69,0.19 0.81,0.18 0.24,0 0.46,-0.14 0.81,-0.19 0.37,-0.04 0.39,-0.17 0.65,-0.33 0.59,-0.38 0.73,0.02 1.13,-0.83l0.59 -0.04c0.11,0.74 0.06,1.34 0.48,1.84 0.23,0.27 0.5,0.1 0.87,0 2.47,-0.69 5.85,-1.68 8.22,-2.46 1.69,-0.56 1.38,-0.5 2.12,-1.44l0.57 -0.69c-0.04,2.92 -0.35,5.69 -0.61,8.55 -0.15,1.7 -0.61,7.28 -0.53,8.67 0.64,0.07 0.97,0.17 1.68,0.15 -0.02,2.37 -0.07,4.77 -0.02,7.15 0.06,2.39 0.14,4.73 0.2,7.13 0.06,3.02 0.2,3.07 1.27,5.97 0.33,0.9 0.65,1.76 1,2.63 0.85,2.1 0.62,1.21 1.26,2.45 -0.14,0.22 -0.23,0.24 -0.39,0.44 -0.11,0.14 -0.24,0.31 -0.34,0.45 -1.14,1.62 0.46,2.24 -1.49,3.43 -1.45,0.89 -3.1,-0.22 -3.68,1.24 -0.25,0.64 -0.16,0.9 0.4,1.08 1.36,0.41 3.44,0.55 4.95,0.41 -0.43,0.41 -1.43,0.52 -1.35,1.99 0.03,0.61 0.39,0.59 0.95,0.68 0.48,0.08 1,0.11 1.53,0.14 2.35,0.13 4.9,-0.4 7.17,-0.91 0.59,-0.13 0.87,-0.12 0.91,-0.77 0.03,-0.58 -0.17,-1.07 -0.08,-1.59 0.09,-0.5 0.18,-0.92 0.25,-1.42 0.2,-1.3 0.01,-1.69 -0.12,-2.9 -0.11,-1.02 -0.12,-2.11 -0.25,-3.12 0.17,-1.53 -0.27,-6.97 -0.51,-8.72 -0.25,-1.88 -0.2,-0.88 -0.13,-2.9 0.08,-2.02 0.14,-4.05 0.17,-6.08 0.03,-2.28 -0.17,-3.66 0.38,-5.86 0.47,-0.21 0.63,0.13 0.76,-0.65 1.34,0.34 0.73,-1.23 0.81,-3.07 0.4,-0.23 0.31,0.23 0.56,-0.77 0.45,-1.79 2.27,-9.28 2.36,-10.18 0.08,-0.85 0.06,-1.88 0.09,-2.75 0.08,-3.54 0.54,-7.08 0.62,-10.47 0.03,-0.99 0,-1.48 -0.37,-2.33 -0.65,-1.54 -1.52,-1.99 -2.89,-2.69l-2.81 -1.38c-1.03,-0.48 -0.54,-0.31 -1.14,-0.95 -0.82,-0.88 -0.63,-0.38 -1.2,-0.77 -0.28,-0.19 -0.17,-1.08 -0.03,-1.32 0.28,-0.51 1.39,-1.27 1.67,-2.67 0.34,-0.97 0.42,-3.44 -0.01,-4.32 -0.37,-0.74 -0.66,-0.83 -0.82,-1.03 -0.09,-0.11 -0.17,-0.26 -0.25,-0.36 -2.15,-2.43 -6.03,-1.85 -7.96,-0.03 -0.3,0.28 -0.36,0.4 -0.32,0.92 0.08,0.11 0.22,0.33 0.28,0.43 -1.04,2.46 -0.1,2.03 -0.4,2.87 -0.08,0.23 -0.55,0.84 -0.71,1.08 -1.2,1.82 0.22,1.3 0.53,1.45 0.5,0.24 0.01,0.78 0.61,1.01l0.15 0.06c-0.17,0.08 -0.28,0.25 -0.16,0.49 0.13,0.23 0.25,0 0.2,0.46 -0.04,0.37 -0.3,0.74 -0.19,1.18 0.16,0.68 1.58,0.45 2.22,0.49 0.22,0.3 0.48,1 0.54,1.41 -0.26,0.17 -0.45,0.39 -0.73,0.55l-1.64 0.87c-1.99,1.15 -2.59,1.23 -2.99,3.22 -0.14,0.69 -0.34,1.32 -0.51,2.02 -0.15,0.68 -0.27,1.37 -0.45,2.01 -0.95,3.55 -2.18,3.6 -2.36,3.89 -0.29,0.46 -0.02,0.36 -0.59,0.65 -0.53,0.27 -1.18,0.51 -1.8,0.71 -1.61,0.54 -3.41,0.85 -5.14,1.13 -0.91,0.14 -0.72,0.22 -0.98,0.25 -0.51,0.05 -1.04,-0.56 -1.45,-1 -0.13,-0.13 -0.49,-0.49 -0.82,-0.48 -0.32,0.02 -0.55,0.36 -0.73,0.51 -0.2,0.16 -0.56,-0.03 -0.9,-0.09 -0.36,-0.07 -0.71,-0.12 -1.07,-0.18 -0.11,-0.45 -0.22,-0.39 -0.71,-0.57l-2.76 -1.05c-0.59,-0.24 -1.21,-0.53 -1.78,-0.8 -0.44,-0.21 -1.32,-0.67 -1.73,-0.77 0.08,-2.69 -0.17,-6.33 -0.99,-8.74 -0.28,-0.83 -1.11,-2.54 -1.58,-3.27l-1.03 -1.43c-0.19,-0.38 0.24,-1.48 0.44,-1.82 0.59,0 1.91,0.3 2.07,-0.42 0.07,-0.3 -0.08,-0.78 0.01,-1.16 0.09,-0.42 0.14,-0.16 0.25,-0.38 0.12,-0.24 0.01,-0.37 -0.13,-0.46 0.02,-0.01 0.04,-0.02 0.05,-0.03 0.01,0 0.03,-0.02 0.04,-0.02 0.66,-0.34 0.12,-0.73 0.62,-1 0.59,-0.31 1.87,0.52 0.06,-2.1 -0.23,-0.33 -0.34,-0.53 -0.2,-1.03 0.2,-0.73 -0.01,-0.62 -0.05,-1.2 -0.1,-0.12 -0.37,-0.83 -0.33,-0.97 0.04,-0.1 0.19,-0.21 0.24,-0.43 0.05,-0.23 0.02,-0.36 -0.09,-0.55 -0.28,-0.45 -0.98,-0.92 -1.58,-1.19 -1.34,-0.6 -3.06,-0.88 -4.58,-0.33 -1.44,0.53 -1.63,1.24 -2.31,1.87 -0.87,0.82 -0.85,2.13 -0.79,3.24 0.07,1.36 0.34,1.77 0.39,2.31z"/>
    <path fill="#00823C" d="M25.29 76.35c0.27,-0.81 1.41,-1.31 2.38,-1.14 0.84,0.15 1.71,0.89 1.7,1.82l-4.08 -0.68zm-5.93 11.86c0,1.98 -0.15,1.67 1.04,2.08 0.78,0.27 1.59,0.51 2.39,0.74 1.63,0.46 3.18,0.9 4.86,1.34 3.61,0.96 2.81,0.89 6.24,-0.06 0.19,-0.05 0.44,-0.11 0.62,-0.18 0.29,-0.11 0.23,-0.13 0.24,-0.48 0.04,-1.84 0.16,-13.32 -0.05,-13.64 -0.31,-0.22 -1.68,-0.37 -2.19,-0.46 -3.36,-0.61 -1.65,0.03 -2.5,-1.6 -0.86,-1.66 -3.14,-2.05 -4.65,-1.02 -0.71,0.49 -0.74,0.85 -1.04,1.29 -1.16,-0.04 -0.63,-0.24 -2.4,-0.04 -0.69,0.08 -1.56,0.12 -2.24,0.27 -0.31,1.12 -0.32,9.76 -0.32,11.76z"/>
    <path fill="#00823C" d="M8.04 91.93l-0.04 -0.16 -0.35 -0.04 -0.16 0c0.08,0.05 0.15,0.08 0.23,0.12 0.22,0.09 0.13,0.08 0.32,0.08z"/>
   </g>
  </g>
 </g>
</svg>
