<?xml version="1.0" encoding="UTF-8"?>
<!DOCTYPE svg PUBLIC "-//W3C//DTD SVG 1.1//EN" "http://www.w3.org/Graphics/SVG/1.1/DTD/svg11.dtd">
<!-- Creator: CorelDRAW 2017 -->
<svg xmlns="http://www.w3.org/2000/svg" xml:space="preserve" width="154px" height="137px" version="1.1" shape-rendering="geometricPrecision" text-rendering="geometricPrecision" image-rendering="optimizeQuality" fill-rule="evenodd" clip-rule="evenodd"
viewBox="0 0 53.75 47.77"
 xmlns:xlink="http://www.w3.org/1999/xlink">
 <g id="Слой_x0020_1">
  <metadata id="CorelCorpID_0Corel-Layer"/>
  <g id="_1560241811904">
   <path fill="#00823C" d="M11.24 46.57c0.01,-0.07 0.01,-0.15 0.03,-0.24l0 -1.22c0,-0.26 0.2,-0.47 0.46,-0.47l15.14 0 15.15 0c0.26,0 0.46,0.21 0.46,0.47l0 1.22c0.02,0.09 0.02,0.17 0.03,0.24l0 0.73c0,0.26 0.21,0.47 0.47,0.47l7.96 0c0.26,0 0.47,-0.21 0.47,-0.47 0,-3.72 0.67,-18.81 -0.61,-21.25l2.52 -0.22c0.6,-0.88 0.54,-3.06 0.01,-3.76 -0.52,-0.47 -5.8,-0.34 -6.3,-0.28 -0.73,0.11 -0.48,-0.02 -1.12,0.62l-0.25 0.29c-0.45,-2.95 -2.22,-8.31 -5.61,-8.63 -2.26,-0.21 -7.69,-0.39 -13.18,-0.42 -5.48,0.03 -10.91,0.21 -13.17,0.42 -3.39,0.32 -5.16,5.68 -5.61,8.63l-0.25 -0.29c-0.64,-0.64 -0.39,-0.51 -1.12,-0.62 -0.5,-0.06 -5.78,-0.19 -6.3,0.28 -0.53,0.7 -0.59,2.88 0.01,3.76l2.52 0.22c-1.28,2.44 -0.61,17.53 -0.61,21.25 0,0.26 0.21,0.47 0.47,0.47l7.96 0c0.26,0 0.47,-0.21 0.47,-0.47l0 -0.73zm-2.19 -22.42c0.74,-0.35 1.23,-1.82 2,-3.09 2.85,-4.7 2.42,-4.17 10.29,-4.49 3.72,-0.15 16.7,-0.48 19.31,-0.81 -2.26,-0.94 -20.33,-0.62 -24.97,-0.34 -2.02,0.12 -2.81,0.03 -3.71,1.45 -1.03,1.63 -2.4,5.34 -2.92,7.28zm38.03 8.59c-3.38,-0.52 -3.93,-0.47 -7.32,0 -0.43,0.05 -0.78,0.34 -0.78,0.76l0 2.66c0,0.42 0.35,0.71 0.78,0.76 3.28,0.4 4.05,0.48 7.32,0 0.42,-0.06 0.78,-0.34 0.78,-0.76l0 -2.66c0,-0.42 -0.36,-0.7 -0.78,-0.76zm-1.71 8.01c-0.93,-0.05 -2,-0.07 -2.93,-0.02 -0.53,0.02 -1.15,0.06 -1.95,0.11 -0.36,0.02 -0.67,0.13 -0.67,0.28l0 0.99c0,0.16 0.31,0.27 0.67,0.29 2.78,0.15 3.43,0.18 6.21,0 0.36,-0.02 0.66,-0.13 0.66,-0.29l0 -0.99c0,-0.15 -0.3,-0.26 -0.66,-0.28 -0.51,-0.04 -0.95,-0.06 -1.33,-0.09zm-38.7 -8.01c3.38,-0.52 3.93,-0.47 7.32,0 0.43,0.05 0.79,0.34 0.79,0.76l0 2.66c0,0.42 -0.36,0.71 -0.79,0.76 -3.28,0.4 -4.05,0.48 -7.32,0 -0.42,-0.06 -0.78,-0.34 -0.78,-0.76l0 -2.66c0,-0.42 0.36,-0.7 0.78,-0.76zm1.71 8.01c0.93,-0.05 2,-0.07 2.93,-0.02 0.53,0.02 1.15,0.06 1.95,0.11 0.36,0.02 0.67,0.13 0.67,0.28l0 0.99c0,0.16 -0.31,0.27 -0.67,0.29 -2.78,0.15 -3.43,0.18 -6.21,0 -0.36,-0.02 -0.66,-0.13 -0.66,-0.29l0 -0.99c0,-0.15 0.3,-0.26 0.66,-0.28 0.51,-0.04 0.95,-0.06 1.33,-0.09z"/>
   <path fill="#00823C" d="M26.15 0.07c-6.8,2.61 -15.84,7.21 -23.07,10.23 -1.23,0.51 -2.67,0.8 -2.14,2.59 0.69,2.37 5.02,-0.28 6.55,-0.98l13.21 -5.85c1.09,-0.48 2.26,-0.96 3.39,-1.48 1.18,-0.54 2.35,-1.41 3.55,-0.93l23.06 10.22c1.46,0.37 2.72,-0.88 2.03,-2.28 -0.51,-1.05 -17.17,-7.99 -19.55,-9.05 -1.36,-0.61 -5.71,-2.98 -7.03,-2.47z"/>
  </g>
 </g>
</svg>
