<?xml version="1.0" encoding="UTF-8"?>
<!DOCTYPE svg PUBLIC "-//W3C//DTD SVG 1.1//EN" "http://www.w3.org/Graphics/SVG/1.1/DTD/svg11.dtd">
<!-- Creator: CorelDRAW 2017 -->
<svg xmlns="http://www.w3.org/2000/svg" xml:space="preserve" width="201px" height="222px" version="1.1" shape-rendering="geometricPrecision" text-rendering="geometricPrecision" image-rendering="optimizeQuality" fill-rule="evenodd" clip-rule="evenodd"
viewBox="0 0 51.62 57.09"
 xmlns:xlink="http://www.w3.org/1999/xlink">
 <g id="Слой_x0020_1">
  <metadata id="CorelCorpID_0Corel-Layer"/>
  <g id="_1560244408608">
   <path fill="#00823C" d="M51.18 26.48l0 0c-9.71,-10.44 -15.74,-16.82 -24.42,-25.91 -0.28,-0.38 -0.58,-0.57 -0.88,-0.57 -0.43,0 -0.88,0.19 -1.17,0.57l-24.27 25.72c-0.29,0.39 -0.44,0.77 -0.44,1.16 0,0.38 0.15,0.77 0.44,0.96 0.59,0.77 1.46,0.77 2.06,0l23.38 -24.55 23.24 24.93c0.15,0.2 0.59,0.39 1.04,0.39 0.43,0 0.73,-0.19 1.02,-0.39 0.59,-0.57 0.59,-1.73 0,-2.31zm-8.08 -1.16c-0.9,0 -1.48,0.59 -1.48,1.55l0 21.46c-15.04,0 -16.59,0 -31.62,0l0 -20.7c0,-0.95 -0.74,-1.54 -1.47,-1.54 -0.89,0 -1.47,0.59 -1.47,1.54l0 22.44c0,0.77 0.58,1.56 1.47,1.56 26.17,0 8.26,0 34.57,0 0.73,0 1.47,-0.79 1.47,-1.56l0 -23.2c0,-0.96 -0.74,-1.55 -1.47,-1.55z"/>
   <path fill="#00823C" d="M27.56 27.99c-0.06,-0.08 -0.09,-0.07 -0.16,-0.14 -0.47,-0.43 -1.13,-0.52 -1.74,-0.37 -0.32,0.08 -0.66,0.33 -0.83,0.51 0.41,-1.3 2.54,-1.06 2.73,0zm-9.56 0.48c-0.06,0.07 -0.07,0.06 -0.19,0.23 -0.46,0.63 -0.51,1.21 -0.51,1.99 0,0.56 0,1.13 0,1.69l2.55 0c0.02,-1.36 -0.3,-2.12 0.95,-2.19 0.52,-0.02 1.05,-0.01 1.57,0 0.27,0 1.42,-0.04 1.59,0 0.14,0.04 0.42,0.41 0.6,0.57 0.07,0.06 0.14,0.11 0.23,0.17 1.11,0.8 2.69,0.4 3.38,-0.52l5.24 -0.01 0 -3.05 -5.18 0c-0.24,-0.33 -0.58,-0.62 -0.97,-0.79l0 -2.14c0.19,-0.01 0.39,0 0.57,0.01 0.26,0 0.27,0.04 0.46,0.14 0.29,0.15 0.52,0.27 0.94,0.26 0.64,-0.02 1.25,-0.48 1.26,-1.13 0,-0.66 -0.58,-1.1 -1.22,-1.15 -0.71,-0.06 -0.97,0.35 -1.41,0.37 -0.2,0.01 -0.41,0.01 -0.6,0.01 -0.01,-0.49 0.08,-0.41 -1.04,-0.41 -1.13,0 -1.03,-0.08 -1.04,0.41 -0.19,0 -0.39,0 -0.57,-0.01 -0.48,-0.01 -0.72,-0.42 -1.42,-0.37 -0.66,0.04 -1.24,0.49 -1.24,1.15 0.01,0.65 0.62,1.11 1.26,1.13 0.43,0.01 0.61,-0.11 0.92,-0.25 0.19,-0.09 0.21,-0.15 0.45,-0.15 0.2,-0.01 0.4,-0.01 0.6,-0.01l0 2.11c-0.24,0.17 -0.22,0.06 -0.7,0.48 -0.27,0.24 -0.32,0.39 -0.41,0.47 -0.07,0.08 -0.11,0.15 -0.15,0.16l-3.54 0 -0.2 0.01 -0.4 0 -0.38 0.03c-0.49,0.06 -1.1,0.4 -1.4,0.79z"/>
   <path fill="#00823C" d="M18.5 43.03c-0.73,0.18 -1.48,-0.25 -1.45,-1.12 0.06,0.03 0.09,0.14 0.13,0.19 0.39,0.65 0.75,0.75 1.44,0.87 -0.05,0.05 -0.04,0.04 -0.12,0.06zm-0.11 -6.64c-0.91,0.76 -2.44,4.86 -1.84,6.08 0.68,1.4 2.3,1.59 3.24,0.64 1.62,-1.66 -0.79,-6.01 -1.4,-6.72z"/>
   <path fill="#00823C" d="M36.37 31.6l0.02 -5.59c-0.15,-0.01 -1.08,-0.02 -1.15,0.02 -0.25,-0.03 -0.68,0.18 -0.82,0.29 -0.25,0.22 -0.32,0.37 -0.32,0.81l0 3.36c0,0.2 -0.02,0.33 0.07,0.49 0.31,0.57 0.98,0.64 1.66,0.64 0.18,0 0.36,-0.01 0.54,-0.02z"/>
   <path fill="#00823C" d="M17.06 33.41c0,-0.14 -0.04,-0.28 0.1,-0.3 0.18,-0.03 0.18,0.04 0.18,0.19l0 1.06c0,0.1 0.02,0.17 -0.06,0.2 -0.29,0.12 -0.22,-0.33 -0.22,-0.39l0 -0.76zm-0.22 -0.56c-0.21,0.07 -0.17,0.26 -0.17,0.5 0,1.52 -0.15,1.53 0.53,1.53 0.33,0 2.59,0.02 2.71,-0.01 0.21,-0.06 0.17,-0.28 0.17,-0.51 0,-1.54 0.15,-1.52 -0.54,-1.52 -0.34,0 -2.58,-0.03 -2.7,0.01z"/>
   <path fill="#00823C" d="M44.55 36.97l-2.93 0 0 18.57c0,0.96 0.58,1.55 1.46,1.55 0.74,0 1.47,-0.59 1.47,-1.55l0 -18.57z"/>
   <path fill="#00823C" d="M27.47 54.15l-8.78 0 -10.09 0c-0.96,0 -1.54,0.59 -1.54,1.47 0,0.73 0.58,1.47 1.54,1.47l10.09 0 8.78 0 10.09 0c0.96,0 1.55,-0.74 1.55,-1.47 0,-0.88 -0.59,-1.47 -1.55,-1.47l-10.09 0z"/>
  </g>
 </g>
</svg>
