<?xml version="1.0" encoding="UTF-8"?>
<!DOCTYPE svg PUBLIC "-//W3C//DTD SVG 1.1//EN" "http://www.w3.org/Graphics/SVG/1.1/DTD/svg11.dtd">
<!-- Creator: CorelDRAW 2017 -->
<svg xmlns="http://www.w3.org/2000/svg" xml:space="preserve" width="219px" height="226px" version="1.1" shape-rendering="geometricPrecision" text-rendering="geometricPrecision" image-rendering="optimizeQuality" fill-rule="evenodd" clip-rule="evenodd"
viewBox="0 0 60.38 62.33"
 xmlns:xlink="http://www.w3.org/1999/xlink">
 <g id="Слой_x0020_1">
  <metadata id="CorelCorpID_0Corel-Layer"/>
  <g id="_1560202783952">
   <path fill="#097F43" fill-rule="nonzero" d="M5.07 10.25l41.94 0c1.4,0 2.66,0.57 3.58,1.49 0.92,0.92 1.49,2.19 1.49,3.58l0 41.94c0,1.4 -0.57,2.67 -1.49,3.59 -0.92,0.91 -2.19,1.48 -3.58,1.48l-41.94 0c-1.39,0 -2.66,-0.57 -3.58,-1.48l0 -0.01c-0.92,-0.92 -1.49,-2.18 -1.49,-3.58l0 -41.94c0,-1.39 0.57,-2.66 1.49,-3.57 0.91,-0.93 2.18,-1.5 3.58,-1.5zm41.94 3.35l-41.94 0c-0.47,0 -0.9,0.2 -1.21,0.51 -0.32,0.31 -0.51,0.74 -0.51,1.21l0 41.94c0,0.48 0.19,0.91 0.5,1.22l0.01 0c0.31,0.31 0.74,0.5 1.21,0.5l41.94 0c0.47,0 0.9,-0.19 1.22,-0.5 0.3,-0.32 0.5,-0.75 0.5,-1.22l0 -41.94c0,-0.47 -0.2,-0.9 -0.51,-1.21 -0.31,-0.31 -0.74,-0.51 -1.21,-0.51z"/>
   <path fill="#097F43" d="M9.63 48.8c-1.07,-0.72 -2.05,-2.48 -2.95,-2.48 -0.72,0 -1.06,0.56 -1.06,1.3l0 7.9c0,0.72 0.47,1.19 1.3,1.19l7.79 0c0.73,0 1.3,-0.34 1.3,-1.07 0,-0.9 -1.76,-1.87 -2.48,-2.95 0.43,-0.64 1.97,-2.03 2.62,-2.68l5.43 -5.43c1.02,-1.02 2.22,-1.81 2.22,-3.45 0,-1.39 -1.18,-2.6 -2.84,-2.6 -1.33,0 -2.42,1.42 -3.15,2.15l-5.43 5.43c-0.67,0.67 -2.09,2.25 -2.75,2.69z"/>
   <path fill="#097F43" d="M38.55 20.12c-0.34,0.51 -1.14,1.19 -1.62,1.68 -1.38,1.37 -7.92,7.72 -8.33,8.55 -1,2.02 0.76,3.93 2.28,3.93 1.6,0 2.48,-1.24 3.33,-2.1 0.94,-0.93 1.78,-1.78 2.72,-2.71 0.83,-0.83 4.99,-5.11 5.52,-5.46 0.57,0.39 2.29,2.48 2.83,2.48 0.65,0 1.18,-0.41 1.18,-1.06l0 -8.27c0,-0.72 -0.56,-1.06 -1.3,-1.06l-7.79 0c-1.46,0 -1.57,1.21 -0.74,2.04 0.53,0.54 1.56,1.43 1.92,1.98z"/>
   <path fill="#097F43" d="M38.55 52.69c-0.72,1.08 -3.46,2.63 -2.1,3.76 0.22,0.18 0.54,0.26 0.92,0.26l7.79 0c0.89,0 1.3,-0.42 1.3,-1.3l0 -8.03c0,-0.58 -0.48,-1.06 -1.06,-1.06 -0.91,0 -1.88,1.76 -2.95,2.48 -0.55,-0.37 -7.07,-7 -8.12,-8.06 -1.04,-1.04 -1.75,-2.21 -3.45,-2.21 -1.81,0 -3.12,2 -2.32,3.85 0.47,1.09 9.35,9.36 9.99,10.31z"/>
   <path fill="#097F43" d="M5.62 17.4l0 7.79c0,0.76 0.4,1.3 1.06,1.3 0.62,0 1.2,-0.78 1.57,-1.15 0.45,-0.46 0.87,-0.99 1.38,-1.33 0.95,0.63 9.13,9.41 10.23,9.95 1.64,0.81 3.94,-0.13 3.94,-2.51 0,-1.39 -1.4,-2.4 -2.16,-3.16 -1.06,-1.07 -7.74,-7.63 -8.11,-8.17 0.72,-1.08 2.48,-2.05 2.48,-2.96 0,-0.72 -0.57,-1.06 -1.3,-1.06l-7.79 0c-0.89,0 -1.3,0.42 -1.3,1.3z"/>
   <path fill="#966D45" fill-rule="nonzero" d="M56.37 14.29c2.58,0 4.01,-1.75 4.01,-3.8 0,-4.27 -5.78,-4.27 -5.78,-6.97 0,-0.98 0.65,-1.61 1.77,-1.61 1.06,0 1.75,0.63 1.79,1.95l2.03 0c-0.06,-2.34 -1.48,-3.86 -3.84,-3.86 -2.33,0 -3.78,1.5 -3.78,3.48 0,4.1 5.77,4.26 5.77,6.99 0,1.11 -0.65,1.89 -1.97,1.89 -1.22,0 -1.99,-0.69 -2.01,-2.1l-2.03 0c0.02,2.52 1.6,4.03 4.04,4.03z"/>
  </g>
 </g>
</svg>
