<?xml version="1.0" encoding="UTF-8"?>
<!DOCTYPE svg PUBLIC "-//W3C//DTD SVG 1.1//EN" "http://www.w3.org/Graphics/SVG/1.1/DTD/svg11.dtd">
<!-- Creator: CorelDRAW 2017 -->
<svg xmlns="http://www.w3.org/2000/svg" xml:space="preserve" width="201px" height="193px" version="1.1" shape-rendering="geometricPrecision" text-rendering="geometricPrecision" image-rendering="optimizeQuality" fill-rule="evenodd" clip-rule="evenodd"
viewBox="0 0 51.62 49.61"
 xmlns:xlink="http://www.w3.org/1999/xlink">
 <g id="Слой_x0020_1">
  <metadata id="CorelCorpID_0Corel-Layer"/>
  <path fill="#00823C" fill-rule="nonzero" d="M0.22 45.93c-0.15,0.27 -0.22,0.57 -0.22,0.85l0 0.05c0.01,0.66 0.37,1.3 1,1.63 0.91,0.48 2.05,0.13 2.53,-0.78 0.02,-0.04 3.5,-3.39 20.88,-3.39 18.82,0 23.97,4.73 23.99,4.74 0.37,0.39 0.86,0.58 1.35,0.58 0.47,0 0.93,-0.17 1.3,-0.52 0.74,-0.72 0.77,-1.9 0.06,-2.65 -0.3,-0.31 -1.95,-1.85 -6.22,-3.28 0.38,-0.39 0.62,-0.92 0.62,-1.52l0 -10.09 1.7 0c0.94,0 1.1,-0.75 0.36,-1.68l-8.89 -11.06c-0.73,-0.92 -1.93,-0.92 -2.66,0.02l-0.4 0.5c0.81,0.65 1.14,1.73 0.82,2.73 -0.32,1.01 -1.26,1.71 -2.34,1.74l-0.18 0 5.4 5.91c0.66,0.73 0.84,1.79 0.43,2.7 -0.39,0.91 -1.3,1.5 -2.29,1.5l-6.5 0 0 6.84c-0.35,-0.02 -0.71,-0.04 -1.07,-0.06l0 -7.85 7.57 0c0.57,0 1.08,-0.34 1.31,-0.86 0.23,-0.52 0.13,-1.12 -0.25,-1.54l-6.99 -7.66 2.55 -0.05c0.62,-0.01 1.15,-0.41 1.34,-0.99 0.19,-0.59 -0.02,-1.23 -0.51,-1.59l-3.09 -2.3 0.33 0c0.76,0.01 1.45,-0.64 1.45,-1.43 0,-0.38 -0.15,-0.72 -0.39,-0.97l-3.6 -5.05 0.37 0c0.78,-0.02 1.43,-0.64 1.43,-1.43 0,-0.39 -0.15,-0.74 -0.4,-1l-5.61 -7.4c-0.25,-0.33 -0.61,-0.55 -1.03,-0.57l-0.14 0c-0.46,0.01 -0.88,0.23 -1.15,0.61l-5.17 7.31c-0.31,0.44 -0.35,1.02 -0.11,1.49 0.22,0.42 0.62,0.7 1.08,0.76l-3.84 5.32c-0.27,0.37 -0.33,0.84 -0.19,1.27 0.65,0.12 1.27,0.48 1.75,1.01l0.38 0.45 3.94 4.91 0.74 -0.97c0.32,-0.44 0.37,-1.02 0.13,-1.5 -0.24,-0.49 -0.74,-0.8 -1.28,-0.8l-1.17 0 2.26 -2.59c0.36,-0.42 0.45,-1.02 0.21,-1.53 -0.23,-0.52 -0.74,-0.84 -1.3,-0.84l-1.51 0 3.83 -5.31c0.31,-0.43 0.35,-1.01 0.11,-1.49 -0.22,-0.43 -0.63,-0.71 -1.1,-0.77l2.45 -3.47 2.79 3.68 -0.25 0c-0.54,0 -1.03,0.3 -1.27,0.78 -0.25,0.48 -0.21,1.05 0.11,1.49l3.69 5.18 -1.86 0c-0.62,0 -1.17,0.39 -1.36,0.98 -0.2,0.59 0.01,1.23 0.5,1.6l3.19 2.37 -1.52 0.04c-0.57,0.01 -1.07,0.34 -1.29,0.86 -0.22,0.52 -0.12,1.12 0.25,1.54l6.94 7.6 -5.76 0c-0.79,0 -1.43,0.64 -1.43,1.43l0 9.18c-0.7,-0.02 -1.42,-0.03 -2.16,-0.04l0 -7.65c-0.22,0.06 -0.45,0.1 -0.71,0.1l-0.27 0 0 7.55c-0.36,0 -0.71,0.01 -1.06,0.01l0 -9.01 1.7 0c0.94,0 1.1,-0.75 0.36,-1.67l-8.89 -11.07c-0.74,-0.92 -1.93,-0.92 -2.67,0.02l-8.66 11.03c-0.73,0.93 -0.56,1.69 0.38,1.69l1.7 0 0 10.09c0,0.22 0.05,0.42 0.1,0.61 -4.85,1.29 -6.24,2.96 -6.62,3.68zm15.22 -14.26l2.59 0 0 3.8 -2.59 0 0 -3.8zm0 5.49l2.59 0 0 3.55c-0.92,0.05 -1.78,0.11 -2.59,0.18l0 -3.73zm-4.29 -5.49l2.59 0 0 3.8 -2.59 0 0 -3.8zm0 5.49l2.59 0 0 3.81 -2.59 0 0 -3.81z"/>
 </g>
</svg>
