<svg xmlns="http://www.w3.org/2000/svg" fill-rule="evenodd" clip-rule="evenodd" image-rendering="optimizeQuality" shape-rendering="geometricPrecision" text-rendering="geometricPrecision" viewBox="0 0 61.4 42.3">
  <g fill="#00823C" fill-rule="nonzero">
    <path d="M3.5 0h54.3a3.5 3.5 0 0 1 3.6 3.5V10a3.6 3.6 0 0 1-3.6 3.5H3.5A3.6 3.6 0 0 1 0 10V3.6A3.6 3.6 0 0 1 3.5 0zm54.3 1.7H3.5c-.5 0-1 .2-1.3.5-.3.4-.5.8-.5 1.4V10c0 .5.2 1 .5 1.3.4.3.8.5 1.3.5h54.3c.5 0 1-.2 1.3-.5.4-.4.6-.8.6-1.3V3.6c0-.6-.2-1-.6-1.4-.3-.3-.8-.5-1.3-.5z"/>
    <path d="M7.8 11.8H13v26H7v-26h.8zm3.6 1.7H8.6v22.7h2.7V13.5z"/>
    <path d="M4.2 41.5V40a3.7 3.7 0 0 1 3.6-3.7H12a3.7 3.7 0 0 1 3.7 3.7v2.3H4.2v-.8zM5.9 40v.7h8V40c0-.6-.2-1-.5-1.4A2 2 0 0 0 12 38H7.8a2 2 0 0 0-1.3.6 2 2 0 0 0-.6 1.4zM49.3 11.8h5.3v26h-6.1v-26h.8zm3.6 1.7h-2.7v22.7h2.7V13.5z"/>
    <path d="M45.7 41.5V40c0-1 .4-2 1.1-2.6.7-.7 1.6-1.1 2.6-1.1h4.1a3.7 3.7 0 0 1 3.7 3.7v2.3H45.7v-.8zm1.7-1.5v.7h8.1V40c0-.6-.2-1-.6-1.4a2 2 0 0 0-1.4-.6h-4.1a2 2 0 0 0-2 2zM.7 10.8L9.6.2l1.3 1-9 10.7zM10 11.8L20 .2l1.3 1L11.3 13zM20.3 11.8L30.1.2l1.3 1L21.6 13zM30.6 11.8L40.4.2l1.3 1L32 13zM40.9 11.8L50.7.2l1.3 1L42 13zM51.1 12.6l9-10.6 1.3 1-9 10.7z"/>
  </g>
</svg>
