<svg xmlns="http://www.w3.org/2000/svg" fill-rule="evenodd" clip-rule="evenodd" image-rendering="optimizeQuality" shape-rendering="geometricPrecision" text-rendering="geometricPrecision" viewBox="0 0 96.2 71.2">
  <path fill="#00823C" d="M65.6 26.3l-.4-.7-1-1.9-.8-1.3c.6.3 1.6 1 2.4.6l-.2 3.3zm-5 26.4c0 .5-.5 1.2-.1 1.6 0 .4.2.4.1.8 0 1.4-.2.6.4 1.6.4.7 1.7 1.5 2.6 1.5 1.4 0 .5-1 .4-1.3-.4-.8-.4-.5-.7-1.3-.2-.5 0 0 .3-1.4.2-.9-.7-1.4-.5-4.6.1-1.7.4-1.4.5-2.2.1-.8.3-1.3.7-2 .4-.8.7-1.8 1-2.8l.4-.9 1.1 1.8c1 1.7 1 2.1 1.5 4l2.3 8.7.3 1c.4 1.3.2.6.5 1-.2.5-.2.5 0 1 .3 1.1 1 .5 1.6.5h1c1 0 3.2-.6 3.6-1.2-.4-1-1.4.3-3.1-.7l-.8-.6.1-.3c.1-.3 0-.5-.1-.8-.5-1.6-.8-7.4-1.4-8.4-.2-.4-.5-.4-.4-1 .1-.6-.6-1.1-.6-2.2l-.2-1.1c0-1-.1-1.6-.3-2.5l-.6-2-.1-.2-.2-.6c0-.2.2-.2.2-.5l-.3-1.3c.5-.1.7-1.3.8-1.4l.4-.4c.4-.5.3-2 .2-2.6v-.7-.7c0-.6.1-.8-.1-1.4l-1-2c-.2-.8-.6-.8-.7-2.4 0-1-.6-1.2-1.5-1.4-1.5-.5-1.1-.2-1.5-.8-.4-.5 0-.7.2-1.7l.1-.6c.1-.4.1-.3.3-.5l-.2-1.2c-.5-2-3.8-1.8-4.4.4-.2.9-.1 1.3 0 2l.4.5.2-1c0-.4 0-.6.3-.8.1.4 0 .7.3.9.1-.2 0-.4.4-.7.4-.4 1.3 0 2-.1.4 0 .4-.3.8-.3l-.2 1-.2.8c-.5 1.6-.4 2.4-2.3 1.4-.7-.3-1-.3-1.2-1-.3.3-.4.3-.6.9-.2.3-.2.2-.4.3-1 .3-1.9.7-2.7 1.2-1 .6-.7.8-1 1.9-.5 1.2-.1 1-.5 2.6-1 4 .1 7.7 0 8.2 0 .3-.4.6 0 1.2 0 .2.4.4.6.8-.4 0-.8-.3-1.2 0v.6l-.4 4-.1 1.2v1.2l3.3 1V50l.7 2.7zm-3.4-13.9h.7c.6.1.5.1.5.3.2.3 0 .3.5.3.8 0 1.6-.2 2.4 0l1.3.3c.2.6 1 6.5 1 7.1-1.4.6-2.4.1-3.6-.3-.7-.2-3-.8-3.3-1l.5-6.7z"/>
  <path fill="#00823C" d="M74.1 45.8c0-.5.5-1 .9-1.2 1.7-1.2 3.2-1.7 5-2.7.5-.4 1.1-.8.2-1.1l-.6-.1c.3 0 .8.2 1 .4 0 .4-1.4 1-1.7 1.2-.5.3-1.3.6-1.8 1l-1 .4-.8.5c-.6.3-1.3.9-1.5 1.4-.3.4.3 1.5.5 1.8.3.5.6 1 1 1.3l1 1 .3.2c3 2.8 9.6 6.4 13.2 8.3l6.4 3.2v-1.1L93.4 59l-2.7-1.3-2.8-1.4c-3.2-1.6-3.1-1.6-6.3-3.4l-3-2c-1.2-.8-1.5-1-2.4-1.8l-.6-.6c-.7-.7-1.5-1.5-1.5-2.7zM60.7 39.7l1.4.4v6.3l.2-6.5-1.4-.3h-.2zM14 45.5l-.4-1.5 6-3.6 6-3.6 6-3.6 13.6-8.8 6.3-4.5 5-4 1.1-1.2c1.5-1.5 3-3 2.8-4.5l.4-.4.2-.2c.7.4-.3 2.2-.6 2.7-.6 1-1.3 1.7-2 2.5l-1.9 1.8-.7.5a262.1 262.1 0 0 1-28 20c-1 .5-13 8-13.9 8.4zM56.3 45l-.3.3a12.6 12.6 0 0 0-3.4 9.3c0 3 .6 6.1 1.3 8.9l1.8 5.8c.2.6.6 1.3.7 1.9h1.8l-.5-1.6c-2.1-6-5.3-15.4-2.6-21.5l1.2-2v-1zM58.6 39.6c2.2 0 2-.4 1.8 1.1-.4 0-.7-.3-1-.5-.4-.2-.7-.3-.8-.6zm-.5.6l2.4.7c0-.3.2-1 0-1.3-.2-.3-1.5 0-2-.1l-.2-.3-.2 1z"/>
  <g fill="#FEFEFE" fill-rule="nonzero">
    <path d="M51.1 16c0 2.3-.9 4.2-1.7 4.1-.8 0-1.3-2-1.2-4.3.1-2.4 1-4.3 1.7-4.2.8 0 1.4 2 1.2 4.3zM41.5 2s1.3 2.4 1.6 6.9l1.1-.2v-.3s-.5-4-2-6.6c-.6-.3-.7.2-.7.2zM45.8 2s.7 1.3 1.6 5.1c.2.2.5.1.5.1l-.2-.2S47 4 46 2.2c-.2-.4-.2-.1-.2-.1zM31.8 24.4c.2-1.4.6-2.6 1.1-3.2-.3.7-.6 1.6-.7 2.7-.3 2.2.2 4 1.2 4.2.3 0 .7-.2 1-.6-.4.7-.9 1.2-1.4 1.1-1-.1-1.5-2-1.2-4.2z"/>
  </g>
  <g fill="#00823C" fill-rule="nonzero">
    <path d="M35.6 24.7c-.4 3.3-1.9 5.8-3.3 5.7-1.5-.2-2.4-3-2-6.3.3-3.3 1.8-5.8 3.3-5.6 1.5.2 2.4 3 2 6.2z"/>
    <path d="M32.6 30.4s-3.6.9-5-1.5c1.1-3.9 2.5-5.3 2.5-5.3l3 3.2-.5 3.6zM37 10.2h.9s.4-1.8 1-1.9c.7 0 2.8 0 3 .3.2.3.6 2.4-.5 2.5-1 0-3.2.4-3.7.1l-1.2.6.1-1.3.4-.3z"/>
    <g>
      <path d="M36.2 25.2l-2 .6-2.9-7.8s5.6-2.1 5.8-2c.2 0 1.5 3.3 1.5 3.3l-2.4 5.9zM49.6 20.1s-.4.3-2.8-.1c-.7-.1-.2-1.3-.2-2.3-.1-2 2.6-3.1 2.6-3.1l.4 5.5z"/>
      <path d="M49.8 18.6c-.4 0-.7-1.4-.6-3 0-1 .1-1.8.3-2.3-.3.5-.5 1.5-.5 2.7 0 1.7.2 3 .6 3 .2.1.4-.2.6-.6-.1.2-.3.3-.4.2z"/>
      <path d="M0 24.8A5 5 0 0 0 2.4 27c3.3 1.5 14.9 2.5 16.6 3 1.7.3 7.5 0 10.8-1.3 0 0 .8-10.3 4.6-11.6 3.9-1.3 1.8 8 1.8 8S48 19 47.9 18.9c-.1-.2.7-7.7 2.6-7.9 2-.2.7 5.3.7 5.3s2-3 1.2-8c0 0 0-2.4-.7-2.4 0 0-.4-1.3-1.7-.7 0 0-1-2.8-6.2-4.4-5.2-1.5-19-.6-21 .5-2 1-4 1.7-9.8 7.7C13 9 2.5 11.7 1 16.6c0 0-1 1-.6 4.4 0 0-.3 2 .3 2.5 0 0-1 .7-.8 1.3z"/>
    </g>
  </g>
  <path fill="#FEFEFE" fill-rule="nonzero" d="M36.7 11.5l12.5-5-1-2.7c-.6-.7-3.3-3.5-8.2-1.3-1.9 1-3.3 9-3.3 9zM14.4 8.8s19.6 2 19.8 1.9c.3-.2 3.1-6.5 2.6-7-.4-.6-15.1-1.2-16.2-1-1 .3-6.9 5.8-6.2 6zM3.7 17s-.6-.7-.3-1.7c.3-1.1 2.2-3.3 2.2-3.3-2.1 1.2-4 2.7-4.5 4.6 0 0 0 2 2.5 2.7V17z"/>
  <path fill="#FEFEFE" fill-rule="nonzero" d="M4.3 19.7s-.3-2.5 0-2.6c.4-.1 2.3.7 5.4 1 3.1.3 7.4.4 7.6.6.6.3-1.6 3-2.2 3.1l-4.1.6c-.6-.1-3.4-.4-4-.6-.4-.2-2.7-1.5-2.7-2.1zM17.6 21.4s1.3-2.3 2-2.6c.8-.2 8.3-4.2 9-4 .6.2-.6 4.3-2.2 5.2-1.5 1-9.2 2-8.8 1.4zM.6 24s1.7 1.8 1.7 1.6l-.6-2.8-.2 1.3-1-.2v.1zM18.5 28.4s5.3-.2 6.2-.4c1.1-.3 3.2-.4 3.8-4 0 0-1 .7-2.7 1.3-1.7.6-6.3 1.2-6.3 1.2l-1 1.9zM28.3 26.4c.6-2.3 2-10.2 5.5-11.4 3.4-1.2 3.5 4.8 3.5 4.8s-.5-5-3.4-4c-2.8.8-5.6 10.6-5.6 10.6zM47.9 15.1s.7-5.8 2.5-6.1c1.8-.4 1.6 4.4 1.6 4.4s-.1-3.8-1.5-3.6c-1.4.2-2.6 5.3-2.6 5.3zM41.6 8.8l-.3-.1c.2.4.4 1.4-.1 1.7-.8.3-2.3.4-2.7.2.4.3 1.9.2 2.7.2.8-.1.5-1.8.4-2zM35.3 10l2.5-7c.7-2.2 4.4-2.2 6-2 0 0-4.5-.4-5.5 2s-2.5 7.8-2.5 7.8l-.5-.8z"/>
  <path fill="#FEFEFE" fill-rule="nonzero" d="M50.9 16c-.1 1.8-.7 3.3-1.3 3.3-.6 0-1-1.6-.9-3.5.1-2 .7-3.4 1.3-3.4.6 0 1 1.6.9 3.5z"/>
  <path fill="#00823C" fill-rule="nonzero" d="M35.3 24.8c-.3 2.6-1.4 4.6-2.5 4.4-1.1 0-1.8-2.3-1.5-4.9.3-2.6 1.5-4.6 2.5-4.5 1.1.2 1.8 2.4 1.5 5z"/>
  <path fill="#FEFEFE" fill-rule="nonzero" d="M5 22.5l8.5 1.3.1 2.4-8.4-1.4zM36.1 23.6s.9-4.5-.3-5.6c-.9-.8-2 0-2 0s2.4-1.5 2.3 5.6z"/>
</svg>
