<?xml version="1.0" encoding="UTF-8"?>
<!DOCTYPE svg PUBLIC "-//W3C//DTD SVG 1.1//EN" "http://www.w3.org/Graphics/SVG/1.1/DTD/svg11.dtd">
<!-- Creator: CorelDRAW 2017 -->
<svg xmlns="http://www.w3.org/2000/svg" xml:space="preserve" width="154px" height="181px" version="1.1" shape-rendering="geometricPrecision" text-rendering="geometricPrecision" image-rendering="optimizeQuality" fill-rule="evenodd" clip-rule="evenodd"
viewBox="0 0 59.32 69.77"
 xmlns:xlink="http://www.w3.org/1999/xlink">
 <g id="Слой_x0020_1">
  <metadata id="CorelCorpID_0Corel-Layer"/>
  <g id="_1560245426544">
   <path fill="#00823C" d="M19.44 18.81c0,2.25 2.42,4.35 5.34,1.94 0.4,-0.33 1.48,-1.29 1.88,-1.4l0 31.07c-1.87,-0.99 -2.17,-2.45 -4.5,-2.45 -1.56,0 -2.72,1.4 -2.72,3 0,1.43 1,2.11 1.85,2.78l6.58 5.28c2.46,1.84 4.65,-0.91 7.44,-3.1 0.93,-0.73 1.73,-1.4 2.64,-2.12 0.86,-0.68 1.93,-1.36 1.93,-2.84 0,-1.6 -1.17,-3 -2.73,-3 -1.68,0 -1.96,0.53 -3.52,1.79 -0.31,0.25 -0.58,0.56 -0.97,0.66l0 -31.07c1.84,0.98 2.15,2.45 4.49,2.45 1.49,0 2.73,-1.35 2.73,-2.99 0,-1.67 -1.68,-2.69 -3.14,-3.82l-5.29 -4.25c-2.5,-1.87 -4.77,1 -7.44,3.1 -0.93,0.74 -1.74,1.4 -2.65,2.12 -0.85,0.68 -1.92,1.36 -1.92,2.85z"/>
   <path fill="#00823C" d="M3.06 5.86l53.19 0c4.19,0 3.85,-5.86 0.41,-5.86l-54.01 0c-3.44,0 -3.77,5.86 0.41,5.86z"/>
   <path fill="#00823C" d="M3.06 69.77l53.19 0c4.19,0 3.85,-5.86 0.41,-5.86l-54.01 0c-3.44,0 -3.77,5.86 0.41,5.86z"/>
  </g>
 </g>
</svg>
