<svg xmlns="http://www.w3.org/2000/svg" fill-rule="evenodd" clip-rule="evenodd" image-rendering="optimizeQuality" shape-rendering="geometricPrecision" text-rendering="geometricPrecision" viewBox="0 0 59.3 69.8">
  <g fill="#00823C">
    <path d="M19.4 18.8c0 2.3 2.5 4.4 5.4 2l1.9-1.5v31.1c-2-1-2.2-2.4-4.5-2.4-1.6 0-2.8 1.4-2.8 3 0 1.4 1 2 1.9 2.7l6.6 5.3c2.4 1.9 4.6-.9 7.4-3l2.7-2.2c.8-.7 1.9-1.3 1.9-2.8 0-1.6-1.2-3-2.7-3-1.7 0-2 .5-3.6 1.8-.3.2-.5.5-1 .6v-31c1.9 1 2.2 2.4 4.6 2.4 1.4 0 2.7-1.4 2.7-3 0-1.7-1.7-2.7-3.2-3.8l-5.3-4.3c-2.4-1.8-4.7 1-7.4 3.1L21.4 16c-.9.6-2 1.3-2 2.8zM3 5.9h53.3c4.1 0 3.8-5.9.4-5.9h-54C-.9 0-1.2 5.9 3 5.9zM3 69.8h53.3c4.1 0 3.8-5.9.4-5.9h-54c-3.5 0-3.8 5.9.4 5.9z"/>
  </g>
</svg>
