<?xml version="1.0" encoding="UTF-8"?>
<!DOCTYPE svg PUBLIC "-//W3C//DTD SVG 1.1//EN" "http://www.w3.org/Graphics/SVG/1.1/DTD/svg11.dtd">
<!-- Creator: CorelDRAW 2017 -->
<svg xmlns="http://www.w3.org/2000/svg" xml:space="preserve" width="278px" height="206px" version="1.1" shape-rendering="geometricPrecision" text-rendering="geometricPrecision" image-rendering="optimizeQuality" fill-rule="evenodd" clip-rule="evenodd"
viewBox="0 0 96.24 71.16"
 xmlns:xlink="http://www.w3.org/1999/xlink">
 <g id="Слой_x0020_1">
  <metadata id="CorelCorpID_0Corel-Layer"/>
  <path fill="#00823C" d="M65.59 26.3l-0.39 -0.67c-0.39,-0.63 -0.73,-1.26 -1.09,-1.91 -0.17,-0.3 -0.62,-1.02 -0.7,-1.27 0.64,0.26 1.57,0.95 2.43,0.57 0.04,1.02 -0.15,2.25 -0.25,3.28zm-4.99 26.39c-0.01,0.47 -0.48,1.21 -0.14,1.59 0.01,0.38 0.2,0.42 0.18,0.82 -0.07,1.38 -0.23,0.56 0.34,1.62 0.38,0.7 1.73,1.49 2.65,1.48 1.33,-0.03 0.51,-0.99 0.39,-1.26 -0.37,-0.84 -0.37,-0.55 -0.68,-1.32 -0.2,-0.5 0.01,-0.01 0.29,-1.44 0.17,-0.87 -0.73,-1.38 -0.51,-4.62 0.11,-1.63 0.36,-1.39 0.48,-2.13 0.13,-0.8 0.35,-1.32 0.69,-1.95 0.46,-0.85 0.72,-1.87 1.08,-2.86 0.08,-0.2 0.25,-0.75 0.37,-0.89 0.31,0.34 0.81,1.28 1.07,1.74 0.97,1.75 1,2.17 1.46,4.03 0.74,2.97 1.57,5.74 2.36,8.66 0.1,0.36 0.2,0.7 0.3,1.07 0.35,1.29 0.16,0.57 0.43,0.96 -0.12,0.48 -0.13,0.56 0.03,1.04 0.35,1.1 1.04,0.52 1.62,0.43 0.18,-0.02 0.78,0.06 1.08,0.05 0.96,-0.03 3.13,-0.61 3.48,-1.24 -0.36,-0.95 -1.4,0.34 -3.11,-0.65 -0.31,-0.18 -0.45,-0.43 -0.73,-0.59 0.05,-0.27 0.07,-0.1 0.12,-0.31 0.06,-0.3 -0.12,-0.55 -0.19,-0.82 -0.46,-1.59 -0.73,-7.36 -1.36,-8.41 -0.23,-0.38 -0.47,-0.39 -0.4,-0.94 0.1,-0.65 -0.55,-1.18 -0.58,-2.21 -0.01,-0.52 -0.13,-0.72 -0.19,-1.16 -0.11,-0.89 -0.13,-1.59 -0.37,-2.43 -0.12,-0.42 -0.59,-1.81 -0.6,-2.11l-0.09 -0.12c-0.05,-0.17 -0.18,-0.45 -0.14,-0.62 0.05,-0.19 0.21,-0.18 0.21,-0.53 0,-0.32 -0.21,-0.89 -0.29,-1.22 0.42,-0.17 0.65,-1.3 0.8,-1.48 0.09,-0.11 0.25,-0.21 0.37,-0.36 0.41,-0.49 0.3,-1.93 0.23,-2.63 -0.04,-0.35 0.03,-0.39 0.01,-0.71 -0.01,-0.23 -0.05,-0.44 -0.05,-0.69 0.01,-0.62 0.13,-0.75 -0.13,-1.33 -0.33,-0.72 -0.59,-1.34 -0.89,-2.14 -0.25,-0.67 -0.68,-0.73 -0.75,-2.29 -0.04,-1.03 -0.66,-1.22 -1.55,-1.46 -1.48,-0.42 -1.1,-0.13 -1.52,-0.77 -0.32,-0.5 0.01,-0.65 0.25,-1.7 0.05,-0.23 0.04,-0.41 0.11,-0.63 0.1,-0.36 0.11,-0.25 0.31,-0.43 0.01,-0.47 -0.16,-0.83 -0.26,-1.25 -0.49,-1.91 -3.81,-1.78 -4.35,0.46 -0.21,0.86 -0.13,1.27 0.05,1.95 0.08,0.31 0.11,0.28 0.32,0.46 0.08,-0.32 0.18,-0.62 0.16,-0.93 -0.04,-0.4 -0.01,-0.66 0.31,-0.78 0.16,0.35 0.07,0.66 0.3,0.85 0.15,-0.18 0.05,-0.4 0.43,-0.72 0.42,-0.37 1.28,-0.03 1.98,-0.07 0.46,-0.03 0.47,-0.29 0.78,-0.29 0.1,0.38 -0.11,0.55 -0.18,0.94 -0.06,0.41 -0.08,0.51 -0.2,0.89 -0.48,1.59 -0.34,2.31 -2.32,1.39 -0.68,-0.32 -0.94,-0.35 -1.17,-1.08 -0.33,0.38 -0.38,0.38 -0.63,0.93 -0.13,0.27 -0.13,0.25 -0.4,0.34 -0.9,0.32 -1.83,0.7 -2.61,1.17 -1.02,0.6 -0.72,0.78 -1.13,1.9 -0.44,1.24 -0.04,1.01 -0.42,2.61 -0.94,3.95 0.1,7.72 0.01,8.18 -0.07,0.35 -0.42,0.58 -0.09,1.18 0.15,0.28 0.49,0.48 0.65,0.87 -0.39,-0.09 -0.78,-0.32 -1.15,-0.02 -0.11,0.12 -0.1,0.39 -0.11,0.57l-0.35 4.11c-0.04,0.56 -0.06,0.89 -0.07,1.09 -0.04,0.89 -0.12,1.12 0.08,1.19l3.21 1.03c0.03,1.12 -0.06,2.17 0.08,3.28 0.13,0.96 0.36,1.84 0.64,2.71zm-3.41 -13.84c0.22,-0.13 0.41,-0.16 0.68,-0.09 0.63,0.15 0.49,0.15 0.55,0.3 0.14,0.36 0.03,0.33 0.52,0.32 0.8,-0.03 1.56,-0.14 2.33,0.03 0.34,0.08 1.07,0.18 1.33,0.33 0.24,0.54 1.03,6.51 0.91,7.08 -1.26,0.62 -2.31,0.1 -3.55,-0.28 -0.63,-0.19 -2.92,-0.83 -3.29,-1.08 -0.05,-0.48 0.42,-5.81 0.52,-6.61z"/>
  <path fill="#00823C" d="M74.1 45.84c0.01,-0.52 0.51,-0.96 0.88,-1.22 1.68,-1.18 3.27,-1.75 5.01,-2.76 0.56,-0.33 1.12,-0.76 0.24,-1.08l-0.61 -0.1c0.33,0.04 0.77,0.17 0.92,0.43 0.1,0.39 -1.3,1.07 -1.59,1.21 -0.58,0.28 -1.31,0.61 -1.87,0.93l-0.91 0.45c-0.35,0.18 -0.6,0.34 -0.91,0.52 -0.52,0.29 -1.3,0.83 -1.47,1.37 -0.26,0.4 0.3,1.52 0.48,1.8 0.34,0.55 0.68,0.93 1.05,1.35 0.38,0.43 0.71,0.66 0.92,0.89 0.13,0.14 0.19,0.16 0.32,0.28 3.1,2.81 9.63,6.4 13.27,8.32 0.42,0.22 6.04,3.1 6.41,3.17l0 -1.15 -2.79 -1.3c-0.93,-0.41 -1.88,-0.85 -2.78,-1.3 -0.92,-0.47 -1.81,-0.88 -2.74,-1.35 -3.2,-1.61 -3.17,-1.61 -6.36,-3.44 -1.02,-0.62 -2.03,-1.25 -2.97,-1.89 -1.21,-0.85 -1.46,-1.13 -2.39,-1.87l-0.61 -0.6c-0.7,-0.73 -1.46,-1.5 -1.5,-2.66l0 0z"/>
  <path fill="#00823C" d="M60.7 39.66l1.41 0.42 -0.02 6.37 0.21 -6.55 -1.38 -0.32c-0.22,-0.01 -0.1,-0.04 -0.22,0.08z"/>
  <path fill="#00823C" d="M13.93 45.51l-0.33 -1.49 6.04 -3.59c2,-1.16 4.06,-2.39 6.01,-3.6 1.98,-1.22 3.89,-2.37 5.9,-3.62 6.88,-4.27 6.84,-4.27 13.64,-8.82 2.17,-1.5 4.31,-3 6.27,-4.48 2.55,-1.92 3.04,-2.46 4.97,-4.06l1.22 -1.19c1.42,-1.44 2.94,-2.95 2.71,-4.49 0.29,-0.16 0.22,-0.1 0.44,-0.33 0.06,-0.05 0.12,-0.14 0.18,-0.22 0.71,0.36 -0.25,2.19 -0.57,2.67 -0.64,0.95 -1.3,1.67 -2.05,2.48 -0.74,0.82 -1.44,1.35 -1.85,1.79 -0.27,0.27 -0.4,0.34 -0.66,0.58 -6.32,5.78 -20.3,14.9 -28.1,19.88 -0.91,0.57 -13,8.16 -13.82,8.49z"/>
  <path fill="#00823C" d="M56.27 45.05c-0.07,0.06 -0.16,0.14 -0.27,0.25 -2.35,2.36 -3.43,5.48 -3.44,9.29 -0.01,3.07 0.62,6.11 1.34,8.87 0.5,1.94 1.16,3.95 1.82,5.84 0.19,0.55 0.54,1.34 0.66,1.86l1.81 0c-0.12,-0.47 -0.37,-1.03 -0.53,-1.51 -2.09,-6.06 -5.28,-15.47 -2.53,-21.51 0.27,-0.6 0.76,-1.5 1.2,-2.08l-0.09 -0.01 0.03 -1z"/>
  <path fill="#00823C" d="M58.61 39.62c2.15,-0.02 1.96,-0.4 1.79,1.11 -0.42,0 -0.65,-0.33 -0.93,-0.49 -0.5,-0.27 -0.77,-0.33 -0.86,-0.62zm-0.54 0.63l2.42 0.64c0.02,-0.33 0.17,-1.06 0.06,-1.32 -0.29,-0.24 -1.55,-0.03 -2.05,-0.08l-0.2 -0.31c-0.12,0.19 -0.21,0.78 -0.23,1.07z"/>
  <g id="_1606148108000">
   <path fill="#FEFEFE" fill-rule="nonzero" d="M51.14 15.94c-0.13,2.35 -0.89,4.22 -1.7,4.18 -0.8,-0.05 -1.35,-1.99 -1.22,-4.35 0.13,-2.35 0.89,-4.22 1.69,-4.18 0.81,0.04 1.36,1.99 1.23,4.35z"/>
   <path fill="#FEFEFE" fill-rule="nonzero" d="M41.52 1.99c0,0 1.29,2.39 1.54,6.9l1.14 -0.21 -0.01 -0.25c0,0 -0.5,-4.07 -1.94,-6.62 -0.68,-0.3 -0.73,0.18 -0.73,0.18z"/>
   <path fill="#FEFEFE" fill-rule="nonzero" d="M45.76 2.08c0,0 0.77,1.18 1.63,5.05 0.25,0.15 0.49,0.07 0.49,0.07l-0.21 -0.18c0,0 -0.63,-3.02 -1.63,-4.82 -0.27,-0.39 -0.28,-0.12 -0.28,-0.12z"/>
   <path fill="#FEFEFE" fill-rule="nonzero" d="M31.8 24.41c0.16,-1.39 0.59,-2.57 1.12,-3.24 -0.37,0.68 -0.65,1.63 -0.77,2.69 -0.25,2.21 0.29,4.09 1.22,4.2 0.35,0.04 0.71,-0.18 1.03,-0.58 -0.4,0.75 -0.89,1.18 -1.38,1.13 -0.93,-0.11 -1.48,-1.99 -1.22,-4.2z"/>
  </g>
  <g id="_1606148088320">
   <g>
    <path fill="#00823C" fill-rule="nonzero" d="M35.62 24.74c-0.37,3.28 -1.88,5.8 -3.35,5.63 -1.48,-0.17 -2.37,-2.97 -2,-6.24 0.38,-3.28 1.88,-5.8 3.36,-5.63 1.48,0.17 2.37,2.97 1.99,6.24z"/>
    <path fill="#00823C" fill-rule="nonzero" d="M32.65 30.36c0,0 -3.6,0.9 -5.05,-1.46 1.13,-3.88 2.46,-5.3 2.46,-5.3l2.97 3.18 -0.38 3.58z"/>
    <path fill="#00823C" fill-rule="nonzero" d="M36.95 10.16l0.91 -0.05c0,0 0.48,-1.75 1.09,-1.79 0.6,-0.03 2.73,-0.06 2.93,0.24 0.21,0.31 0.62,2.45 -0.45,2.51 -1.08,0.06 -3.24,0.47 -3.69,0.14l-1.24 0.63 0.13 -1.38 0.32 -0.3z"/>
   </g>
   <g>
    <g>
     <path fill="#00823C" fill-rule="nonzero" d="M36.16 25.17l-1.92 0.65 -2.93 -7.81c0,0 5.62,-2.11 5.82,-2.1 0.2,0.01 1.43,3.34 1.43,3.34l-2.4 5.92z"/>
     <path fill="#00823C" fill-rule="nonzero" d="M49.62 20.1c0,0 -0.44,0.28 -2.79,-0.12 -0.77,-0.13 -0.19,-1.25 -0.25,-2.32 -0.1,-1.92 2.67,-3.06 2.67,-3.06l0.37 5.5z"/>
     <path fill="#00823C" fill-rule="nonzero" d="M49.83 18.64c-0.42,-0.03 -0.72,-1.42 -0.66,-3.09 0.03,-0.91 0.16,-1.71 0.33,-2.26 -0.27,0.48 -0.48,1.5 -0.52,2.7 -0.06,1.68 0.24,3.07 0.66,3.1 0.2,0.02 0.39,-0.26 0.54,-0.72 -0.11,0.19 -0.23,0.28 -0.35,0.27z"/>
    </g>
    <path fill="#00823C" fill-rule="nonzero" d="M0.02 24.78c0,0 0.62,1.45 2.41,2.29 3.31,1.56 14.84,2.57 16.54,2.94 1.7,0.38 7.49,0.01 10.85,-1.19 0,0 0.8,-10.35 4.62,-11.62 3.83,-1.28 1.72,7.97 1.72,7.97 0,0 11.84,-6.07 11.74,-6.29 -0.1,-0.21 0.7,-7.64 2.65,-7.84 1.96,-0.2 0.7,5.23 0.7,5.23 0,0 1.98,-2.96 1.12,-8.06 0,0 -0.04,-2.33 -0.62,-2.29 0,0 -0.48,-1.36 -1.74,-0.71 0,0 -1.05,-2.85 -6.24,-4.4 -5.19,-1.55 -18.96,-0.57 -21.01,0.44 -2.05,1.01 -3.89,1.74 -9.78,7.7 0,0 -10.46,2.7 -11.84,7.62 0,0 -1.11,1.06 -0.66,4.39 0,0 -0.23,2.12 0.33,2.53 0,0 -0.95,0.71 -0.79,1.29z"/>
   </g>
  </g>
  <path fill="#FEFEFE" fill-rule="nonzero" d="M36.68 11.48l12.48 -5.06c0,0 -0.57,-1.81 -1.05,-2.59 -0.48,-0.77 -3.25,-3.51 -8.06,-1.3 -1.91,0.88 -3.37,8.95 -3.37,8.95z"/>
  <path fill="#FEFEFE" fill-rule="nonzero" d="M14.45 8.78c0,0 19.58,2.05 19.79,1.91 0.22,-0.15 3.09,-6.53 2.61,-7.04 -0.47,-0.51 -15.18,-1.16 -16.2,-0.9 -1.02,0.26 -6.94,5.71 -6.2,6.03z"/>
  <path fill="#FEFEFE" fill-rule="nonzero" d="M3.66 17.03c0,0 -0.54,-0.75 -0.27,-1.7 0.34,-1.16 2.16,-3.36 2.16,-3.36l0 0c-2.07,1.2 -3.89,2.74 -4.41,4.6 0,0 -0.07,1.95 2.46,2.72 0,0 -0.11,-0.97 0.06,-2.26z"/>
  <path fill="#FEFEFE" fill-rule="nonzero" d="M4.27 19.68c0,0 -0.3,-2.5 0.06,-2.59 0.36,-0.09 2.29,0.71 5.39,0.99 3.11,0.29 7.39,0.46 7.62,0.61 0.52,0.34 -1.66,3.01 -2.23,3.11 -0.58,0.1 -3.6,0.63 -4.14,0.56 -0.55,-0.07 -3.41,-0.35 -3.9,-0.55 -0.48,-0.21 -2.74,-1.53 -2.8,-2.13z"/>
  <path fill="#FEFEFE" fill-rule="nonzero" d="M17.56 21.41c0,0 1.39,-2.36 2.09,-2.58 0.71,-0.22 8.23,-4.21 8.87,-4.02 0.64,0.18 -0.53,4.32 -2.09,5.21 -1.56,0.89 -9.25,2.01 -8.87,1.39z"/>
  <path fill="#FEFEFE" fill-rule="nonzero" d="M0.59 24.01c0.06,0.03 1.68,1.75 1.73,1.6 0.06,-0.16 -0.63,-2.79 -0.63,-2.79l-0.18 1.29 -0.93 -0.17 0.01 0.07z"/>
  <path fill="#FEFEFE" fill-rule="nonzero" d="M18.5 28.38c0,0 5.28,-0.22 6.24,-0.43 1.09,-0.24 3.12,-0.38 3.72,-3.97 0,0 -0.98,0.71 -2.67,1.34 -1.7,0.63 -6.27,1.21 -6.27,1.21l-1.02 1.85z"/>
  <path fill="#FEFEFE" fill-rule="nonzero" d="M28.3 26.36c0.6,-2.22 2.04,-10.13 5.47,-11.35 3.42,-1.22 3.57,4.81 3.57,4.81 0,0 -0.59,-5.02 -3.4,-4.11 -2.82,0.92 -5.64,10.65 -5.64,10.65z"/>
  <path fill="#FEFEFE" fill-rule="nonzero" d="M47.89 15.1c0,0 0.71,-5.79 2.53,-6.13 1.82,-0.35 1.62,4.41 1.62,4.41 0,0 -0.15,-3.78 -1.53,-3.57 -1.38,0.21 -2.62,5.29 -2.62,5.29z"/>
  <path fill="#FEFEFE" fill-rule="nonzero" d="M41.57 8.78c-0.03,-0.05 -0.11,-0.08 -0.24,-0.11 0.17,0.41 0.36,1.43 -0.14,1.68 -0.75,0.37 -2.3,0.41 -2.67,0.3 0.34,0.26 1.85,0.15 2.69,0.1 0.84,-0.05 0.52,-1.73 0.36,-1.97z"/>
  <path fill="#FEFEFE" fill-rule="nonzero" d="M35.29 10.04c0,0 1.68,-4.95 2.47,-7.08 0.78,-2.12 4.39,-2.12 6.02,-1.94 0,0 -4.48,-0.39 -5.45,1.98 -0.98,2.37 -2.53,7.79 -2.53,7.79l-0.51 -0.75z"/>
  <path fill="#FEFEFE" fill-rule="nonzero" d="M50.88 15.91c-0.11,1.9 -0.68,3.42 -1.28,3.39 -0.59,-0.03 -0.99,-1.61 -0.89,-3.51 0.11,-1.91 0.68,-3.43 1.28,-3.4 0.59,0.03 0.99,1.61 0.89,3.52z"/>
  <path fill="#00823C" fill-rule="nonzero" d="M35.27 24.76c-0.29,2.59 -1.42,4.6 -2.51,4.47 -1.09,-0.12 -1.73,-2.33 -1.44,-4.93 0.3,-2.59 1.43,-4.6 2.52,-4.47 1.09,0.12 1.73,2.33 1.43,4.93z"/>
  <polygon fill="#FEFEFE" fill-rule="nonzero" points="5.09,22.5 13.48,23.81 13.62,26.24 5.22,24.82 "/>
  <path fill="#FEFEFE" fill-rule="nonzero" d="M36.1 23.56c0,0 0.86,-4.49 -0.3,-5.58 -0.86,-0.8 -1.98,0.11 -1.98,0.11 0,0 2.35,-1.56 2.28,5.47z"/>
 </g>
</svg>
