<svg xmlns="http://www.w3.org/2000/svg" fill-rule="evenodd" clip-rule="evenodd" image-rendering="optimizeQuality" shape-rendering="geometricPrecision" text-rendering="geometricPrecision" viewBox="0 0 60.4 62.3">
  <path fill="#097F43" fill-rule="nonzero" d="M5 10.3h42a5 5 0 0 1 5 5v42a5 5 0 0 1-5 5H5a5 5 0 0 1-5-5v-42a5 5 0 0 1 1.5-3.6A5 5 0 0 1 5 10.3zm42 3.3H5c-.4 0-.8.2-1.1.5-.4.3-.5.7-.5 1.2v42c0 .4.1.9.5 1.2.3.3.7.5 1.2.5h42c.4 0 .8-.2 1.1-.5.3-.3.5-.8.5-1.2v-42a1.7 1.7 0 0 0-1.7-1.7z"/>
  <path fill="#097F43" d="M9.6 48.8c-1-.7-2-2.5-3-2.5-.6 0-1 .6-1 1.3v8c0 .6.5 1.1 1.3 1.1h7.8c.7 0 1.3-.3 1.3-1 0-1-1.7-2-2.5-3 .5-.7 2-2 2.7-2.7l5.4-5.4c1-1 2.2-1.8 2.2-3.5 0-1.4-1.2-2.6-2.8-2.6-1.4 0-2.5 1.4-3.2 2.2L12.4 46c-.7.7-2.1 2.3-2.8 2.7zM38.5 20.1c-.3.5-1 1.2-1.6 1.7-1.3 1.4-7.9 7.7-8.3 8.6-1 2 .8 3.9 2.3 3.9 1.6 0 2.5-1.3 3.3-2.1l2.7-2.7c.9-.9 5-5.1 5.6-5.5.5.4 2.2 2.5 2.8 2.5.6 0 1.2-.4 1.2-1v-8.3c0-.8-.6-1.1-1.3-1.1h-7.8c-1.5 0-1.6 1.2-.8 2l2 2zM38.5 52.7c-.7 1-3.4 2.6-2 3.7.2.2.5.3.9.3h7.8c.8 0 1.3-.4 1.3-1.3v-8c0-.6-.5-1-1.1-1-1 0-1.9 1.7-3 2.4l-8-8c-1.1-1.1-1.8-2.3-3.5-2.3-1.8 0-3.1 2-2.3 3.9.4 1 9.3 9.3 10 10.3zM5.6 17.4v7.8c0 .7.4 1.3 1 1.3.7 0 1.3-.8 1.7-1.2.4-.4.8-1 1.3-1.3 1 .6 9.2 9.4 10.3 10 1.6.8 3.9-.2 3.9-2.6 0-1.3-1.4-2.4-2.2-3.1-1-1-7.7-7.6-8-8.2.7-1 2.4-2 2.4-3 0-.7-.6-1-1.3-1H7c-.9 0-1.3.4-1.3 1.3z"/>
  <path fill="#966D45" fill-rule="nonzero" d="M56.4 14.3c2.5 0 4-1.8 4-3.8 0-4.3-5.8-4.3-5.8-7 0-1 .6-1.6 1.8-1.6 1 0 1.7.6 1.8 2h2c0-2.4-1.5-3.9-3.9-3.9-2.3 0-3.7 1.5-3.7 3.5 0 4 5.7 4.2 5.7 7 0 1-.6 1.9-2 1.9-1.2 0-2-.7-2-2.1h-2c0 2.5 1.6 4 4 4z"/>
</svg>
