<svg xmlns="http://www.w3.org/2000/svg" fill-rule="evenodd" clip-rule="evenodd" image-rendering="optimizeQuality" shape-rendering="geometricPrecision" text-rendering="geometricPrecision" viewBox="0 0 54.5 58.4">
  <g fill="#00823C" fill-rule="nonzero">
    <path d="M14.6 0l.3.1c1 .3 1.6 1.2 1.6 2.2V9a2.3 2.3 0 0 1-4.6 0V2.2c0-1 .8-1.9 1.8-2.1l.2-.1h.7zM40.5 0l1 .5c.6.4 1 1 1 1.7v7c0 1.3-1.1 2.2-2.4 2.2-1.2 0-2.3-1-2.3-2.2v-7c0-1 .8-1.9 1.7-2.1l.3-.1h.7z"/>
    <path d="M50.5 21.1H4V49c0 3 2.3 5.3 5.2 5.3h35.9c.4 0 .9 0 1.3-.2 2.4-.6 4-2.6 4-5.2V21.4v-.3zM0 49.3V12v-.3c.1-1 .3-1.9.8-2.7a9 9 0 0 1 6-4.8l2-.4V9l.1 1c.4 2.8 3.3 5 6 4.5A5.3 5.3 0 0 0 19.7 9V4.2v-.3h15.2v5.8A5.3 5.3 0 0 0 45.5 9V4.2v-.3c1.3 0 2.6.3 3.8.8 2.5 1.1 4.2 3 5 5.7l.2 1.6V49.7c0 1-.3 2.1-.8 3a9 9 0 0 1-8.6 5.6H8.3a9.3 9.3 0 0 1-8-7l-.3-2z"/>
    <path d="M11.8 42.4c1.4 0 2.3-.9 2.3-2.4v-4c0-1.4-.9-2.3-2.3-2.3-1.3 0-2.2.9-2.2 2.4v4c0 1.4.9 2.3 2.3 2.3zm0-1c-.7 0-1-.5-1-1.4v-4c0-.8.3-1.2 1-1.2.8 0 1.2.4 1.2 1.3v4c0 .8-.4 1.2-1.2 1.2zm5.6-7.8c-1.3 0-2.2 1-2.2 2.3v1.3c0 1.3.9 2.2 2 2.2.4 0 .9-.2 1.1-.5v1.4c0 .6-.4 1-1 1-.5 0-.8-.4-.9-1h-1.2c.1 1.3 1 2.1 2.2 2.1 1.2 0 2.1-.8 2.1-2.2V36c0-1.4-.9-2.3-2.1-2.3zm0 4.7c-.6 0-1-.4-1-1.1v-1.3c0-.7.4-1.1 1-1.1.5 0 1 .4 1 1v1.4c0 .7-.5 1-1 1zm6.8-6l-4 11.5h1.1l4-11.4h-1.1zm1.5 10H30v-1h-3.2c0-2 3.1-3.3 3.1-5.6 0-1-.7-2-2.1-2-1.3 0-2.1.8-2.2 2.2H27c0-.7.4-1.1 1-1.1s1 .4 1 1c0 1.7-3.2 2.9-3.2 5.7v.8zm7.6.1c1.4 0 2.3-.9 2.3-2.4v-4c0-1.4-.9-2.3-2.3-2.3-1.3 0-2.2.9-2.2 2.4v4c0 1.4.8 2.3 2.2 2.3zm0-1c-.7 0-1-.5-1-1.4v-4c0-.8.3-1.2 1-1.2.8 0 1.2.4 1.2 1.3v4c0 .8-.5 1.2-1.2 1.2zm4.8-7.6l-1.6 1.1v1.4l1.3-1v7H39v-8.5H38zm5.9 4c.5-.3.8-1 .8-1.7v-.2c0-1.4-.8-2.3-2.2-2.3-1.3 0-2.1 1-2.1 2.3v.2c0 .7.3 1.4.8 1.8-.6.3-1 1-1 1.8v.3c0 1.5 1 2.4 2.3 2.4 1.4 0 2.3-.9 2.3-2.4v-.3c0-.8-.3-1.5-1-1.8zM41.7 36c0-.7.3-1.1 1-1.1.6 0 1 .4 1 1.1v.2c0 .8-.4 1.3-1 1.3-.7 0-1-.5-1-1.3V36zm2 4.1c0 .9-.4 1.3-1 1.3-.8 0-1.2-.4-1.2-1.3v-.3c0-.8.4-1.2 1.1-1.2.7 0 1.2.4 1.2 1.2v.3z"/>
  </g>
</svg>
