<?xml version="1.0" encoding="UTF-8"?>
<!DOCTYPE svg PUBLIC "-//W3C//DTD SVG 1.1//EN" "http://www.w3.org/Graphics/SVG/1.1/DTD/svg11.dtd">
<!-- Creator: CorelDRAW 2017 -->
<svg xmlns="http://www.w3.org/2000/svg" xml:space="preserve" width="201px" height="174px" version="1.1" shape-rendering="geometricPrecision" text-rendering="geometricPrecision" image-rendering="optimizeQuality" fill-rule="evenodd" clip-rule="evenodd"
viewBox="0 0 51.63 44.85"
 xmlns:xlink="http://www.w3.org/1999/xlink">
 <g id="Слой_x0020_1">
  <metadata id="CorelCorpID_0Corel-Layer"/>
  <g id="_1560242806400">
   <path fill="#00823C" d="M35.19 14.54c0,1.08 0.15,0.52 0.2,1.14 -1.19,0.3 -1.51,2.75 0.81,2.75 0.48,0 0.4,-0.18 0.81,-0.28l0 5.13 -3.11 0 0 -3.06 0.9 0 -1.46 -1.77 -1.45 -1.78 -0.49 0.61c-0.09,0.09 -0.17,0.19 -0.26,0.31l-0.7 0.86 -1.45 1.77 0.89 0 0 3.06 -10.42 0c-2.78,0 -3.07,4.27 0.3,4.27l0 15.19c0,2.98 3.43,2.44 3.43,0.57l0 -15.76 14.36 0 8.43 0 0 15.19c0,2.98 3.43,2.44 3.43,0.57l0 -15.76c3.04,-0.06 2.83,-4.27 0.1,-4.27l-2.82 0 0 -3.23c2.2,1.09 3.5,-1.57 1.51,-2.57 0.17,-0.68 0.49,-0.76 0.11,-1.52 -0.22,-0.43 -0.66,-0.85 -1.32,-0.85 -0.68,0 -0.83,0.23 -1.21,0.48 -0.53,-0.34 -1.3,-0.88 -2.2,-0.08 -0.69,0.61 -0.62,1.26 -0.22,1.97 -1.9,0.95 -0.78,2.85 0.5,2.85 0.61,0 0.61,-0.18 1.01,-0.28l0 3.23 -6.15 0 0 -5.13c1.26,0.63 2.52,0.25 2.52,-1.33 0,-0.71 -0.63,-0.89 -0.9,-1.23 0.1,-0.42 0.71,-1.78 -0.84,-2.26 -0.3,-0.1 -0.59,-0.09 -0.87,-0.03 -0.58,0.14 -0.36,0.27 -0.82,0.39 -0.31,-0.2 -0.68,-0.61 -1.58,-0.37 -0.45,0.12 -1.04,0.66 -1.04,1.22z"/>
   <path fill="#00823C" d="M0 42.65c0,2.54 3.38,2.91 4.3,0.91 0.26,-0.57 2.19,-8.28 2.6,-9.8 0.45,-1.71 0.5,-3.78 0.73,-5.48 0.08,-0.53 0.1,-0.86 0.14,-1.39 0.04,-0.41 0.16,-1.02 0.2,-1.43 2.98,1.49 2.34,0.47 3.31,3.34 0.72,2.13 1.25,3.19 1.22,5.4 0.11,1.65 0.22,7.97 0.63,9.19 0.65,1.97 3.97,2 4.39,-0.39 0.29,-1.57 -0.52,-7.77 -0.58,-9.85 -0.07,-2.22 -0.01,-1.69 -0.82,-3.97l-1.45 -4.35c-0.21,-0.66 -0.01,-0.69 0.32,-1.3 0.31,-0.59 1.22,-2.11 1.35,-2.63 -0.16,-0.22 -0.12,-0.16 -0.35,-0.34 -1.16,-0.92 -1.11,-2 -1.43,-3.49l-0.71 -4.27 1.85 3.86c0.15,0.32 0.29,0.54 0.42,0.84 1.12,2.61 1.21,2.14 5.04,2.75 1.5,0.24 3.61,0.65 5.06,0.65 1.02,0 1.71,-0.77 1.71,-1.88l0.74 0 0 -3.69 0.89 0 -1.45 -1.78 -1.45 -1.78 -1.45 1.78 -1.46 1.78 0.72 0c0.05,0.02 0.12,0.04 0.18,0.05l0 1.72 -4.63 -0.71c-0.43,-0.14 -0.23,-0.2 -0.69,-1.06l-2.29 -4.78c0.52,0.57 2.52,2.77 3.13,3.33 2.19,-3.89 -4.27,-6.74 -6.86,-6.74 -1.5,0 -2.18,0.87 -2.72,1.89 -1.46,2.74 -6.55,11.27 -6.82,13.14 -0.13,0.93 -0.16,1.74 -0.3,2.67 -0.25,1.75 -0.68,6.92 -0.99,8.08 -0.51,1.91 -2.48,8.34 -2.48,9.73z"/>
   <path fill="#00823C" d="M15.93 3.81c0,3.67 3.98,5.16 6.62,3.47 2.62,-1.67 2.42,-5.45 -0.43,-6.83 -2.95,-1.42 -6.19,0.73 -6.19,3.36z"/>
  </g>
 </g>
</svg>
