<?xml version="1.0" encoding="UTF-8"?>
<!DOCTYPE svg PUBLIC "-//W3C//DTD SVG 1.1//EN" "http://www.w3.org/Graphics/SVG/1.1/DTD/svg11.dtd">
<!-- Creator: CorelDRAW 2017 -->
<svg xmlns="http://www.w3.org/2000/svg" xml:space="preserve" width="201px" height="154px" version="1.1" shape-rendering="geometricPrecision" text-rendering="geometricPrecision" image-rendering="optimizeQuality" fill-rule="evenodd" clip-rule="evenodd"
viewBox="0 0 49.54 38.05"
 xmlns:xlink="http://www.w3.org/1999/xlink">
 <g id="Слой_x0020_1">
  <metadata id="CorelCorpID_0Corel-Layer"/>
  <g id="_1560243905744">
   <g>
    <path fill="#00823C" fill-rule="nonzero" d="M17.86 25.33l2.53 0c0.22,0 0.41,0.18 0.41,0.41l0 2.12c0,0.23 -0.19,0.41 -0.41,0.41l-2.53 0c-0.23,0 -0.42,-0.18 -0.42,-0.41l0 -2.12c0,-0.23 0.19,-0.41 0.42,-0.41z"/>
    <path fill="#00823C" fill-rule="nonzero" d="M12.46 23.89c-0.07,-0.13 -0.06,-0.29 0.04,-0.43l2.63 -3.91 -0.81 0c-0.17,0 -0.3,-0.08 -0.37,-0.21 -0.07,-0.12 -0.05,-0.28 0.04,-0.42l2.68 -3.87 -0.86 0c-0.17,0 -0.3,-0.07 -0.37,-0.2 -0.06,-0.13 -0.04,-0.28 0.06,-0.41l3.27 -4.47c0.09,-0.12 0.22,-0.19 0.36,-0.19 0.14,0 0.28,0.07 0.37,0.19l3.27 4.47c0.1,0.13 0.12,0.28 0.06,0.41 -0.07,0.13 -0.2,0.2 -0.37,0.2l-0.86 0 2.68 3.87c0.09,0.14 0.11,0.29 0.04,0.42 -0.07,0.13 -0.2,0.21 -0.37,0.21l-0.81 0 2.63 3.92c0.06,0.07 0.08,0.16 0.08,0.24 0,0.07 -0.01,0.12 -0.04,0.18 -0.07,0.12 -0.2,0.2 -0.36,0.2l-12.63 0c-0.16,0 -0.3,-0.08 -0.36,-0.2z"/>
    <path fill="#00823C" fill-rule="nonzero" d="M10.21 25.79l1.97 0c0.22,0 0.41,0.19 0.41,0.42l0 1.65c0,0.23 -0.19,0.41 -0.41,0.41l-1.97 0c-0.22,0 -0.41,-0.18 -0.41,-0.41l0 -1.65c0,-0.23 0.19,-0.42 0.41,-0.42z"/>
    <path fill="#00823C" fill-rule="nonzero" d="M5.83 24.26l2.05 -3.06 -0.52 0c-0.17,0 -0.3,-0.07 -0.37,-0.2 -0.06,-0.12 -0.05,-0.27 0.05,-0.41l2.08 -3.01 -0.55 0c-0.25,0 -0.34,-0.14 -0.37,-0.2 -0.03,-0.06 -0.09,-0.22 0.05,-0.41l2.59 -3.52c0.09,-0.12 0.22,-0.19 0.36,-0.19 0.14,0 0.27,0.07 0.36,0.19l1.11 1.5c0.15,0.21 0.15,0.52 0,0.72l-0.68 0.93 0.97 0c0.16,0 0.3,0.08 0.36,0.2 0.07,0.13 0.05,0.29 -0.04,0.42l-2.68 3.87 0.88 0c0.17,0 0.3,0.08 0.37,0.2 0.06,0.13 0.05,0.28 -0.04,0.42l-1.92 2.84c-0.12,0.18 -0.38,0.31 -0.62,0.31l-3.12 0c-0.16,0 -0.3,-0.07 -0.37,-0.19 -0.06,-0.13 -0.05,-0.28 0.05,-0.41z"/>
    <g>
     <path fill="#00823C" fill-rule="nonzero" d="M31.37 25.91l-1.76 0c-0.24,0 -0.44,0.2 -0.44,0.44l0 1.48c0,0.25 0.2,0.44 0.44,0.44l1.76 0c0.24,0 0.44,-0.19 0.44,-0.44l0 -1.48c0,-0.24 -0.2,-0.44 -0.44,-0.44z"/>
     <path fill="#00823C" fill-rule="nonzero" d="M39.28 25.91l-1.76 0c-0.24,0 -0.44,0.2 -0.44,0.44l0 1.48c0,0.25 0.2,0.44 0.44,0.44l1.76 0c0.25,0 0.44,-0.19 0.44,-0.44l0 -1.48c0,-0.24 -0.19,-0.44 -0.44,-0.44z"/>
     <path fill="#00823C" fill-rule="nonzero" d="M42.5 21.24c0.09,-0.22 0.14,-0.46 0.14,-0.71 0,-0.75 -0.44,-1.39 -1.03,-1.56 0.09,-0.21 0.14,-0.44 0.14,-0.69 0,-0.87 -0.59,-1.54 -1.33,-1.54l-0.09 0c0.03,-0.15 0.05,-0.3 0.05,-0.45 0,-1.08 -0.87,-1.95 -1.94,-1.95 -0.48,0 -0.95,0.18 -1.3,0.5 -0.13,0.11 -0.21,0.26 -0.22,0.43 -0.01,0.1 -0.04,0.46 0.12,0.68 0.1,0.14 0.19,0.25 0.29,0.38 0.52,0.64 0.83,1.44 0.89,2.31 0.02,0.14 0.09,0.29 0.18,0.36 0.95,0.74 1.52,1.93 1.52,3.2 0,0.57 -0.11,1.13 -0.32,1.62l-0.01 0.01c-0.02,0.05 -0.09,0.21 0.01,0.37 0.07,0.12 0.2,0.17 0.37,0.17l2.5 0c0.73,0 1.33,-0.7 1.33,-1.56 0,-0.85 -0.58,-1.55 -1.3,-1.57z"/>
     <path fill="#00823C" fill-rule="nonzero" d="M38.19 22.2c0,-1.19 -0.82,-2.17 -1.82,-2.17l-0.11 0c0.16,-0.32 0.24,-0.7 0.24,-1.09 0,-1.09 -0.68,-1.99 -1.57,-2.13 0.18,-0.33 0.28,-0.73 0.28,-1.14 0,-1.19 -0.79,-2.12 -1.81,-2.12l-0.3 0c0.08,-0.26 0.12,-0.53 0.12,-0.8 0,-1.49 -1.21,-2.7 -2.69,-2.7 -1.49,0 -2.7,1.22 -2.7,2.71 0,0.26 0.04,0.53 0.12,0.79l-0.3 0c-0.98,0 -1.75,0.87 -1.81,2l0.04 0.05c0.1,0.14 0.12,0.29 0.06,0.42 -0.02,0.03 -0.04,0.06 -0.06,0.08 0.04,0.25 0.12,0.49 0.24,0.71 -0.28,0.04 -0.54,0.16 -0.77,0.34l2.03 2.94c0.1,0.13 0.11,0.29 0.05,0.42 -0.07,0.13 -0.21,0.2 -0.37,0.2l-0.81 0 2.46 3.66 7.66 0c1,0 1.82,-0.97 1.82,-2.17z"/>
    </g>
   </g>
   <path fill="#00823C" fill-rule="nonzero" d="M47.49 35.48c0,-9.57 0,-23.22 0,-32.84 -16.12,3.33 -29.2,4.55 -45.46,-0.01 0,9.64 0,23.28 0,32.86 17.7,-4.23 29.58,-3.81 45.46,-0.01zm2.05 0.96c-0.26,0.41 -0.46,0.89 -0.8,1.21 -0.55,0.51 -1.24,0.47 -1.91,0.23 -13.43,-4.82 -30.76,-4.8 -44.06,-0.01 -1.54,0.55 -2.76,-0.33 -2.76,-1.97 -0.02,-11.26 0,-22.52 -0.01,-33.78 0,-1.6 1.29,-2.55 2.78,-1.93 11,4.61 33.05,5.01 43.95,0.01 1.21,-0.56 2.56,0.12 2.74,1.37 0.01,0.04 0.05,0.08 0.07,0.12 0,11.59 0,23.17 0,34.75z"/>
  </g>
 </g>
</svg>
