<svg xmlns="http://www.w3.org/2000/svg" fill-rule="evenodd" clip-rule="evenodd" image-rendering="optimizeQuality" shape-rendering="geometricPrecision" text-rendering="geometricPrecision" viewBox="0 0 51.6 57.1">
  <g fill="#00823C">
    <path d="M51.2 26.5A2392.8 2392.8 0 0 0 25.9 0c-.4 0-.9.2-1.2.6L.4 26.3a2 2 0 0 0-.4 1.1c0 .4.2.8.4 1 .6.8 1.5.8 2.1 0L25.9 4 49 28.8c.2.2.6.4 1 .4.5 0 .8-.2 1-.4.7-.6.7-1.7 0-2.3zM43 25.3c-.9 0-1.5.6-1.5 1.6v21.4H10V27.6c0-1-.7-1.5-1.5-1.5-.9 0-1.4.6-1.4 1.5v22.5c0 .7.5 1.5 1.4 1.5h34.6c.7 0 1.5-.8 1.5-1.5V26.9c0-1-.8-1.6-1.5-1.6z"/>
    <path d="M27.6 28l-.2-.2a1.9 1.9 0 0 0-2.6.2c.4-1.3 2.6-1 2.8 0zm-9.6.5l-.2.2c-.5.6-.5 1.2-.5 2v1.7h2.5c0-1.4-.3-2.1 1-2.2H24l.6.6.2.1c1.1.8 2.7.4 3.4-.5h5.2v-3h-5.2c-.2-.4-.6-.7-1-.8v-2.2h.6c.3 0 .3 0 .5.2l1 .2c.6 0 1.2-.5 1.2-1.1 0-.7-.6-1.1-1.2-1.1-.7-.1-1 .3-1.4.3h-.6c0-.5 0-.4-1-.4-1.2 0-1.1 0-1.1.4h-.6c-.5 0-.7-.4-1.4-.3-.7 0-1.2.4-1.2 1.1 0 .7.6 1.1 1.2 1.1.4 0 .6 0 1-.2.1-.1.1-.2.4-.2h.6v2.1c-.3.2-.2 0-.7.5-.3.2-.3.4-.4.5l-.2.1H19.4c-.5.1-1.1.5-1.4.9zM18.5 43c-.7.2-1.5-.2-1.4-1v.1c.5.7.8.8 1.5.9h-.1zm-.1-6.6c-1 .8-2.4 4.9-1.8 6 .6 1.5 2.2 1.7 3.2.7 1.6-1.7-.8-6-1.4-6.7zM36.4 31.6V26h-1.2l-.8.3c-.2.2-.3.4-.3.8V31c.4.5 1 .6 1.7.6h.6zM17 33.4c0-.1 0-.3.2-.3l.1.2v1.3c-.3 0-.2-.4-.2-.4v-.8zm-.2-.6c-.2.1-.1.3-.1.5 0 1.6-.2 1.6.5 1.6h2.7c.2 0 .2-.3.2-.5 0-1.6.1-1.6-.6-1.6h-2.7zM44.5 37h-2.9v18.5c0 1 .6 1.6 1.5 1.6.7 0 1.4-.6 1.4-1.6V37zM27.5 54.1H8.6c-1 0-1.5.6-1.5 1.5 0 .7.5 1.5 1.5 1.5h28.9c1 0 1.6-.8 1.6-1.5 0-.9-.6-1.5-1.5-1.5H27.5z"/>
  </g>
</svg>
