<?xml version="1.0" encoding="UTF-8"?>
<!DOCTYPE svg PUBLIC "-//W3C//DTD SVG 1.1//EN" "http://www.w3.org/Graphics/SVG/1.1/DTD/svg11.dtd">
<!-- Creator: CorelDRAW 2017 -->
<svg xmlns="http://www.w3.org/2000/svg" xml:space="preserve" width="154px" height="165px" version="1.1" shape-rendering="geometricPrecision" text-rendering="geometricPrecision" image-rendering="optimizeQuality" fill-rule="evenodd" clip-rule="evenodd"
viewBox="0 0 54.53 58.35"
 xmlns:xlink="http://www.w3.org/1999/xlink">
 <g id="Слой_x0020_1">
  <metadata id="CorelCorpID_0Corel-Layer"/>
  <g id="_1560243879888">
   <path fill="#00823C" fill-rule="nonzero" d="M14.59 0c0.11,0.04 0.22,0.08 0.33,0.11 0.95,0.29 1.62,1.16 1.63,2.15 0.01,2.29 0.01,4.58 0,6.87 -0.01,1.26 -1.06,2.27 -2.32,2.28 -1.25,0 -2.32,-1 -2.33,-2.26 -0.02,-2.3 -0.01,-4.6 0,-6.9 0.01,-1.05 0.75,-1.93 1.78,-2.19 0.06,-0.01 0.13,-0.04 0.19,-0.06 0.24,0 0.48,0 0.72,0z"/>
   <path fill="#00823C" fill-rule="nonzero" d="M40.48 0c0.36,0.16 0.75,0.27 1.07,0.49 0.57,0.4 0.9,0.99 0.9,1.7 0.02,2.35 0.03,4.7 0,7.04 -0.02,1.22 -1.09,2.18 -2.32,2.18 -1.23,-0.01 -2.3,-0.99 -2.32,-2.22 -0.02,-2.32 -0.02,-4.65 0,-6.98 0.01,-1 0.75,-1.87 1.74,-2.14 0.07,-0.02 0.14,-0.04 0.22,-0.07 0.24,0 0.47,0 0.71,0z"/>
   <g>
    <path fill="#00823C" fill-rule="nonzero" d="M50.48 21.11c-15.5,0 -30.95,0 -46.42,0 0,0.11 0,0.2 0,0.29 0,9.19 -0.01,18.39 0,27.59 0,2.99 2.3,5.31 5.29,5.31 11.94,0 23.89,0 35.83,-0.01 0.45,0 0.92,-0.05 1.35,-0.16 2.38,-0.61 3.94,-2.68 3.95,-5.2 0,-9.17 0,-18.33 0,-27.5 0,-0.1 0,-0.2 0,-0.32zm-50.48 28.24c0,-12.44 0,-24.88 0,-37.32 0.02,-0.12 0.04,-0.24 0.05,-0.35 0.07,-0.94 0.3,-1.84 0.71,-2.69 1.27,-2.57 3.37,-4.1 6.1,-4.81 0.64,-0.17 1.31,-0.23 2.01,-0.35 0,0.19 0,0.3 0,0.41 0,1.57 -0.01,3.13 0,4.7 0,0.32 0.02,0.64 0.06,0.95 0.37,2.83 3.24,4.95 6.05,4.48 2.75,-0.45 4.6,-2.63 4.6,-5.41 0.01,-1.59 0,-3.17 0,-4.76 0,-0.11 0,-0.21 0,-0.32 5.09,0 10.13,0 15.19,0 0,0.85 0,1.67 0.01,2.49 0,1.1 -0.05,2.21 0.05,3.3 0.27,3.09 3.35,5.3 6.39,4.64 2.52,-0.55 4.25,-2.67 4.27,-5.26 0.01,-1.62 0,-3.24 0,-4.85 0,-0.11 0,-0.21 0,-0.33 1.34,0.05 2.59,0.3 3.77,0.83 2.5,1.14 4.26,2.96 5,5.66 0.14,0.54 0.18,1.11 0.27,1.67 0,12.42 0,24.84 0,37.26 -0.02,0.14 -0.04,0.28 -0.05,0.41 -0.06,1.07 -0.29,2.11 -0.75,3.07 -1.75,3.64 -4.64,5.56 -8.68,5.57 -11.86,0.02 -23.71,0.01 -35.57,0 -0.38,0 -0.77,-0.02 -1.15,-0.05 -3.82,-0.36 -7.17,-3.28 -8.03,-7.01 -0.14,-0.63 -0.2,-1.28 -0.3,-1.93z"/>
    <path fill="#00823C" fill-rule="nonzero" d="M11.85 42.43c1.4,0 2.26,-0.91 2.26,-2.39l0 -3.98c0,-1.49 -0.86,-2.41 -2.26,-2.41 -1.38,0 -2.26,0.92 -2.26,2.41l0 3.98c0,1.48 0.88,2.39 2.26,2.39zm0 -1.11c-0.71,0 -1.11,-0.46 -1.11,-1.28l0 -3.98c0,-0.84 0.4,-1.3 1.11,-1.3 0.72,0 1.12,0.46 1.12,1.3l0 3.98c0,0.82 -0.4,1.28 -1.12,1.28zm5.51 -7.68c-1.26,0 -2.18,0.87 -2.18,2.24l0 1.35c0,1.27 0.89,2.14 2.01,2.14 0.46,0 0.88,-0.16 1.16,-0.43l0 1.31c0,0.68 -0.41,1.05 -0.98,1.05 -0.54,0 -0.9,-0.38 -0.95,-1.04l-1.2 0c0.08,1.33 0.93,2.18 2.15,2.18 1.27,0 2.17,-0.86 2.17,-2.22l0 -4.34c0,-1.37 -0.92,-2.24 -2.18,-2.24zm0.02 4.63c-0.58,0 -1.01,-0.4 -1.01,-1.1l0 -1.28c0,-0.72 0.42,-1.11 0.99,-1.11 0.57,0 0.99,0.39 0.99,1.11l0 1.27c0,0.71 -0.41,1.11 -0.97,1.11zm6.8 -5.88l-3.94 11.37 1.06 0 3.93 -11.37 -1.05 0zm1.49 9.92l4.4 0 0 -1.1 -3.18 0c0,-1.9 3.12,-3.2 3.12,-5.5 0,-1.07 -0.75,-2.07 -2.16,-2.07 -1.26,0 -2.05,0.84 -2.12,2.29l1.13 0c0.03,-0.78 0.4,-1.18 1,-1.18 0.65,0 0.98,0.46 0.98,1 0,1.76 -3.17,2.94 -3.17,5.74l0 0.82zm7.66 0.12c1.4,0 2.27,-0.91 2.27,-2.39l0 -3.98c0,-1.49 -0.87,-2.41 -2.27,-2.41 -1.38,0 -2.26,0.92 -2.26,2.41l0 3.98c0,1.48 0.88,2.39 2.26,2.39zm0 -1.11c-0.71,0 -1.11,-0.46 -1.11,-1.28l0 -3.98c0,-0.84 0.4,-1.3 1.11,-1.3 0.72,0 1.12,0.46 1.12,1.3l0 3.98c0,0.82 -0.4,1.28 -1.12,1.28zm4.77 -7.55l-1.59 1.16 0 1.34 1.28 -0.9 0 6.9 1.18 0 0 -8.5 -0.87 0zm5.89 4.09c0.5,-0.41 0.8,-1.04 0.8,-1.76l0 -0.2c0,-1.39 -0.83,-2.26 -2.14,-2.26 -1.32,0 -2.15,0.87 -2.15,2.26l0 0.2c0,0.72 0.3,1.37 0.79,1.76 -0.58,0.36 -0.94,1.06 -0.94,1.87l0 0.3c0,1.51 0.89,2.41 2.3,2.41 1.4,0 2.29,-0.9 2.29,-2.41l0 -0.3c0,-0.81 -0.35,-1.51 -0.95,-1.87zm-2.33 -1.92c0,-0.77 0.36,-1.16 0.99,-1.16 0.62,0 0.98,0.39 0.98,1.16l0 0.18c0,0.81 -0.36,1.24 -0.98,1.24 -0.63,0 -0.99,-0.43 -0.99,-1.24l0 -0.18zm2.11 4.09c0,0.83 -0.42,1.25 -1.12,1.25 -0.71,0 -1.13,-0.42 -1.13,-1.25l0 -0.3c0,-0.83 0.42,-1.26 1.13,-1.26 0.7,0 1.12,0.43 1.12,1.26l0 0.3z"/>
   </g>
  </g>
 </g>
</svg>
