<svg xmlns="http://www.w3.org/2000/svg" fill-rule="evenodd" clip-rule="evenodd" image-rendering="optimizeQuality" shape-rendering="geometricPrecision" text-rendering="geometricPrecision" viewBox="0 0 52 42.5">
  <g fill="#00823C" fill-rule="nonzero">
    <path d="M29.3 31.3c-.9.5-2 .9-3.3.9-1.2 0-2.4-.4-3.3-1L7.6 22s-1.4-.8-1.4 1v9.3c0 4.9 8.9 10.2 19.8 10.2 11 0 19.8-5.3 19.8-10.2v-9.8c0-1.5-1-.7-1-.7l-15.5 9.5z"/>
    <path d="M51.1 14.6c1.2-.7 1.2-1.8 0-2.5L28.1.5a4 4 0 0 0-2-.5H26a4 4 0 0 0-2.1.5L.9 12.1c-1.2.7-1.2 1.8 0 2.5l23 14.2c1.2.7 3 .7 4.2 0l23-14.2zM50.2 35.6V20s0-.8-.5-.5l-1.5 1c-.3.2-.2.9-.2.9v14.2c0 .2-.2.3-.3.3a2.7 2.7 0 1 0 2.7 0s-.2-.1-.2-.3z"/>
  </g>
  <path fill="#FEFEFE" d="M49 38.2h.1zM48 13.4L26.8 2.8l-.8-.2c-.2 0-.6 0-.7.2h-.1L4 13.4l21.3 13.1a2 2 0 0 0 1.4 0l21.3-13z"/>
  <path fill="#FEFEFE" d="M8.8 25.9v6.4c0 1.9 3 3.9 4.4 4.6 3.8 2 8.5 3 12.8 3 4.3 0 9-1 12.8-3 1.3-.7 4.4-2.7 4.4-4.6V26l-12.5 7.6a9 9 0 0 1-4.7 1.3c-1.6 0-3.3-.4-4.7-1.3L8.8 26z"/>
</svg>
