<?xml version="1.0" encoding="UTF-8"?>
<!DOCTYPE svg PUBLIC "-//W3C//DTD SVG 1.1//EN" "http://www.w3.org/Graphics/SVG/1.1/DTD/svg11.dtd">
<!-- Creator: CorelDRAW 2017 -->
<svg xmlns="http://www.w3.org/2000/svg" xml:space="preserve" width="226px" height="156px" version="1.1" shape-rendering="geometricPrecision" text-rendering="geometricPrecision" image-rendering="optimizeQuality" fill-rule="evenodd" clip-rule="evenodd"
viewBox="0 0 61.38 42.34"
 xmlns:xlink="http://www.w3.org/1999/xlink">
 <g id="Слой_x0020_1">
  <metadata id="CorelCorpID_0Corel-Layer"/>
  <g id="_1560243887248">
   <path fill="#00823C" fill-rule="nonzero" d="M3.55 0l54.28 0c0.98,0 1.87,0.4 2.51,1.04 0.64,0.65 1.04,1.54 1.04,2.51l0 6.41c0,0.98 -0.4,1.86 -1.04,2.51 -0.64,0.64 -1.53,1.04 -2.51,1.04l-54.28 0c-0.97,0 -1.86,-0.4 -2.51,-1.04 -0.64,-0.65 -1.04,-1.53 -1.04,-2.51l0 -6.41c0,-0.97 0.4,-1.86 1.04,-2.51 0.65,-0.64 1.54,-1.04 2.51,-1.04zm54.28 1.69l-54.28 0c-0.51,0 -0.97,0.21 -1.31,0.55 -0.34,0.34 -0.55,0.8 -0.55,1.31l0 6.41c0,0.51 0.21,0.97 0.55,1.31 0.34,0.34 0.8,0.55 1.31,0.55l54.28 0c0.51,0 0.98,-0.21 1.31,-0.55 0.34,-0.34 0.55,-0.8 0.55,-1.31l0 -6.41c0,-0.51 -0.21,-0.97 -0.55,-1.31 -0.33,-0.34 -0.8,-0.55 -1.31,-0.55z"/>
   <g>
    <path fill="#00823C" fill-rule="nonzero" d="M7.78 11.82l5.26 0 0 26.05 -6.11 0 0 -26.05 0.85 0zm3.57 1.69l-2.73 0 0 22.66 2.73 0 0 -22.66z"/>
    <path fill="#00823C" fill-rule="nonzero" d="M4.18 41.5l0 -1.54c0,-1.01 0.42,-1.93 1.08,-2.59 0.67,-0.66 1.58,-1.08 2.59,-1.08l4.15 0c1.01,0 1.92,0.42 2.59,1.08 0.66,0.66 1.08,1.58 1.08,2.59l0 2.38 -11.49 0 0 -0.84zm1.7 -1.54l0 0.69 8.09 0 0 -0.69c0,-0.54 -0.22,-1.04 -0.58,-1.39 -0.36,-0.36 -0.85,-0.58 -1.39,-0.58l-4.15 0c-0.54,0 -1.03,0.22 -1.39,0.58 -0.36,0.35 -0.58,0.85 -0.58,1.39z"/>
    <g>
     <path fill="#00823C" fill-rule="nonzero" d="M49.31 11.82l5.26 0 0 26.05 -6.11 0 0 -26.05 0.85 0zm3.57 1.69l-2.72 0 0 22.66 2.72 0 0 -22.66z"/>
     <path fill="#00823C" fill-rule="nonzero" d="M45.72 41.5l0 -1.54c0,-1.01 0.41,-1.93 1.08,-2.59 0.66,-0.66 1.58,-1.08 2.59,-1.08l4.14 0c1.01,0 1.93,0.42 2.59,1.08 0.67,0.66 1.08,1.58 1.08,2.59l0 2.38 -11.48 0 0 -0.84zm1.69 -1.54l0 0.69 8.1 0 0 -0.69c0,-0.54 -0.22,-1.04 -0.58,-1.39 -0.36,-0.36 -0.86,-0.58 -1.4,-0.58l-4.14 0c-0.54,0 -1.04,0.22 -1.4,0.58 -0.36,0.35 -0.58,0.85 -0.58,1.39z"/>
    </g>
   </g>
   <polygon fill="#00823C" fill-rule="nonzero" points="0.67,10.77 9.6,0.18 10.89,1.27 1.96,11.86 "/>
   <polygon fill="#00823C" fill-rule="nonzero" points="10.04,11.84 19.88,0.18 21.16,1.27 11.33,12.93 "/>
   <polygon fill="#00823C" fill-rule="nonzero" points="20.32,11.84 30.15,0.18 31.44,1.27 21.6,12.93 "/>
   <polygon fill="#00823C" fill-rule="nonzero" points="30.59,11.84 40.42,0.18 41.71,1.27 31.88,12.93 "/>
   <polygon fill="#00823C" fill-rule="nonzero" points="40.86,11.84 50.69,0.18 51.98,1.27 42.15,12.93 "/>
   <polygon fill="#00823C" fill-rule="nonzero" points="51.13,12.59 60.06,2 61.35,3.09 52.42,13.68 "/>
  </g>
 </g>
</svg>
