<?xml version="1.0" encoding="UTF-8"?>
<!DOCTYPE svg PUBLIC "-//W3C//DTD SVG 1.1//EN" "http://www.w3.org/Graphics/SVG/1.1/DTD/svg11.dtd">
<!-- Creator: CorelDRAW 2017 -->
<svg xmlns="http://www.w3.org/2000/svg" xml:space="preserve" width="201px" height="157px" version="1.1" shape-rendering="geometricPrecision" text-rendering="geometricPrecision" image-rendering="optimizeQuality" fill-rule="evenodd" clip-rule="evenodd"
viewBox="0 0 116.29 91.14"
 xmlns:xlink="http://www.w3.org/1999/xlink">
 <g id="Слой_x0020_1">
  <metadata id="CorelCorpID_0Corel-Layer"/>
  <g id="_1560247047120">
   <path fill="#00823C" d="M12.1 0l92.09 0c6.66,0 12.1,5.45 12.1,12.1l0 59.96c0,6.66 -5.44,12.1 -12.1,12.1l-92.09 0c-6.65,0 -12.1,-5.44 -12.1,-12.1l0 -59.96c0,-6.65 5.45,-12.1 12.1,-12.1zm93.61 15.45l-25.89 0 0 3.64 25.89 0 0 -3.64zm0 8.26l-25.89 0 0 3.63 25.89 0 0 -3.63zm0 8.28l-25.89 0 0 3.63 25.89 0 0 -3.63zm0 8.26l-25.89 0 0 3.64 25.89 0 0 -3.64zm0 8.28l-25.89 0 0 3.63 25.89 0 0 -3.63zm0 8.28l-25.89 0 0 3.63 25.89 0 0 -3.63zm0 8.28l-25.89 0 0 3.63 25.89 0 0 -3.63zm-67.53 -52.14c16.55,0 29.98,13.42 29.98,29.97 0,16.56 -13.43,29.98 -29.98,29.98 -16.56,0 -29.98,-13.42 -29.98,-29.98 0,-16.55 13.42,-29.97 29.98,-29.97z"/>
   <path fill="#00823C" fill-rule="nonzero" d="M18.26 91.14c-1.58,0 -3.16,0 -4.74,0 -0.14,0 -0.29,-0.01 -0.44,-0.01 -0.25,-0.01 -0.41,-0.13 -0.42,-0.39 0,-0.95 0,-1.89 0,-2.84 0,-0.27 0.15,-0.38 0.41,-0.4 0.14,0 0.29,0 0.43,0 3.14,-0.01 6.28,-0.01 9.42,0 0.86,0 0.86,0 0.86,0.88 0,0.71 0.01,1.42 0,2.13 0,0.56 -0.07,0.63 -0.62,0.63 -1.64,0 -3.27,0 -4.9,0 0,0 0,0 0,0z"/>
   <path fill="#00823C" fill-rule="nonzero" d="M98.22 87.5c1.54,0 3.08,0 4.62,0 0.15,0 0.3,0 0.44,0.01 0.37,0.02 0.45,0.08 0.46,0.45 0.01,0.38 0,0.76 0,1.15 0,0.45 0,0.9 0,1.36 -0.01,0.6 -0.07,0.66 -0.65,0.66 -0.54,0.01 -1.07,0.01 -1.61,0.01l-0.04 0 -0.03 0 -0.04 0 -0.58 0 -0.04 0 -0.03 0 -0.04 0 -0.04 0c-2.36,0 -4.72,0 -7.08,0 -0.09,0 -0.18,0 -0.27,-0.01 -0.62,0 -0.68,-0.06 -0.68,-0.69 0,-0.78 0,-1.56 0.01,-2.34 0,-0.54 0.05,-0.59 0.59,-0.6 1.67,0 3.34,0 5.01,0z"/>
   <g>
    <path fill="#00823C" fill-rule="nonzero" d="M38.18 42.92c1.27,-2.01 2.28,-4.16 3.32,-6.29 0.99,-2.04 1.88,-4.12 2.65,-6.25 0.69,-1.91 1.32,-3.85 1.58,-5.87 0.11,-0.93 0.07,-1.89 0.09,-2.83 0,-0.17 -0.08,-0.35 -0.12,-0.53 -0.03,-0.17 -0.05,-0.34 -0.09,-0.61 0.5,0.2 0.9,0.35 1.29,0.52 2.59,1.2 5.09,2.56 7.36,4.3 1.52,1.16 2.91,2.46 3.97,4.07 0.78,1.17 1.3,2.44 1.4,3.84 0.12,1.62 -0.39,3.07 -1.22,4.44 -1.13,1.85 -2.79,3.07 -4.73,3.94 -1.18,0.53 -2.4,0.9 -3.66,1.19 -2.45,0.55 -4.92,0.73 -7.41,0.61 -1.18,-0.05 -2.35,-0.24 -3.52,-0.37 -0.23,-0.02 -0.46,-0.03 -0.76,-0.05 0.03,0.19 0.03,0.33 0.07,0.46 1.42,3.9 2.99,7.74 4.93,11.42 1.11,2.1 2.31,4.15 3.88,5.96 0.75,0.86 1.55,1.68 2.6,2.2 0.1,0.04 0.19,0.11 0.38,0.22 -0.47,0.24 -0.79,0.43 -1.13,0.58 -1.98,0.89 -4.01,1.68 -6.11,2.26 -1.98,0.54 -4,0.93 -6.06,0.92 -1.41,-0.01 -2.78,-0.22 -4.09,-0.79 -1.84,-0.8 -3.03,-2.19 -3.74,-4.03 -0.72,-1.89 -0.79,-3.81 -0.33,-5.78 0.54,-2.31 1.57,-4.39 2.87,-6.35 1.59,-2.39 3.49,-4.5 5.67,-6.37 0.32,-0.27 0.62,-0.55 0.93,-0.83 0,0 -0.02,0.02 -0.02,0.02z"/>
    <path fill="#00823C" fill-rule="nonzero" d="M38.18 42.92c0,0 0.02,-0.02 0.02,-0.02 -0.84,-0.14 -1.68,-0.28 -2.52,-0.41 -1.23,-0.2 -2.47,-0.4 -3.71,-0.58 -0.66,-0.1 -1.33,-0.18 -2,-0.25 -1.15,-0.12 -2.31,-0.25 -3.46,-0.33 -2.65,-0.19 -5.3,-0.24 -7.93,0.16 -1.28,0.2 -2.53,0.51 -3.64,1.22 -0.04,0.03 -0.1,0.03 -0.22,0.07 -0.02,-0.15 -0.07,-0.28 -0.06,-0.41 0.12,-1.08 0.2,-2.17 0.39,-3.24 0.22,-1.28 0.48,-2.57 0.82,-3.83 0.67,-2.53 1.58,-4.97 3.21,-7.08 0.98,-1.27 2.19,-2.27 3.75,-2.76 1.05,-0.34 2.12,-0.43 3.22,-0.24 1.33,0.23 2.59,0.63 3.74,1.38 1.75,1.15 3.08,2.69 4.21,4.42 1.32,2.06 2.3,4.27 3.02,6.6 0.54,1.74 0.99,3.49 1.16,5.3z"/>
   </g>
  </g>
 </g>
</svg>
