<svg xmlns="http://www.w3.org/2000/svg" fill-rule="evenodd" clip-rule="evenodd" image-rendering="optimizeQuality" shape-rendering="geometricPrecision" text-rendering="geometricPrecision" viewBox="0 0 116.3 91.1">
  <g fill="#00823C">
    <path d="M12.1 0h92c6.8 0 12.2 5.5 12.2 12.1v60c0 6.6-5.5 12-12.1 12H12C5.4 84.2 0 78.8 0 72.2V12C0 5.5 5.4 0 12.1 0zm93.6 15.4H79.8v3.7h26v-3.7zm0 8.3H79.8v3.6h26v-3.6zm0 8.3H79.8v3.6h26V32zm0 8.3H79.8v3.6h26v-3.6zm0 8.2H79.8v3.7h26v-3.7zm0 8.3H79.8v3.6h26v-3.6zm0 8.3H79.8v3.6h26v-3.6zM38.2 13a30 30 0 1 1 0 60 30 30 0 0 1 0-60z"/>
    <path fill-rule="nonzero" d="M18.3 91.1H13c-.3 0-.4-.1-.4-.4V88c0-.3.1-.4.4-.4h9.8c.9 0 .9 0 .9.9v2.1c0 .6 0 .6-.6.6h-5zM98.2 87.5h5.1c.4 0 .4 0 .4.5v2.5c0 .6 0 .6-.6.6h-9.8c-.6 0-.7 0-.7-.7v-2.3c0-.5 0-.6.6-.6h5z"/>
    <g fill-rule="nonzero">
      <path d="M38.2 43a64.7 64.7 0 0 0 7.5-18.4l.1-3-.1-.5v-.6l1.2.6c2.6 1.2 5 2.5 7.4 4.3 1.5 1.1 2.9 2.4 4 4a7.9 7.9 0 0 1 1.3 3.9c.1 1.6-.4 3-1.2 4.4-1.1 1.9-2.8 3-4.7 4a27.6 27.6 0 0 1-11 1.8L39 43h-.8l.1.4c1.4 3.9 3 7.7 5 11.4 1 2.1 2.2 4.2 3.8 6 .8.8 1.6 1.6 2.6 2.2l.4.2-1.1.6c-2 .9-4 1.6-6.1 2.2-2 .6-4 1-6.1 1-1.4 0-2.8-.3-4.1-.8-1.8-.8-3-2.2-3.7-4a9.7 9.7 0 0 1-.4-5.9c.6-2.3 1.6-4.3 2.9-6.3a31 31 0 0 1 5.7-6.4l.9-.8z"/>
      <path d="M38.2 43v-.1l-2.5-.4a220.6 220.6 0 0 0-5.7-.8l-3.5-.4c-2.6-.2-5.3-.2-8 .2-1.2.2-2.5.5-3.6 1.2h-.2v-.3L15 39l.9-3.8c.6-2.5 1.5-5 3.2-7 1-1.3 2.2-2.3 3.7-2.8 1-.4 2.1-.5 3.2-.3 1.4.3 2.6.7 3.8 1.4 1.7 1.2 3 2.7 4.2 4.4a26.8 26.8 0 0 1 4.2 12z"/>
    </g>
  </g>
</svg>
