<svg xmlns="http://www.w3.org/2000/svg" fill-rule="evenodd" clip-rule="evenodd" image-rendering="optimizeQuality" shape-rendering="geometricPrecision" text-rendering="geometricPrecision" viewBox="0 0 51.6 44.9">
  <g fill="#00823C">
    <path d="M35.2 14.5c0 1.1.1.6.2 1.2-1.2.3-1.5 2.7.8 2.7.5 0 .4-.1.8-.2v5H34v-3h.9l-1.5-1.8-1.4-1.7-.5.6-.3.3-.7.8-1.4 1.8h.9v3H19.5c-2.8 0-3.1 4.3.3 4.3v15.2c0 3 3.4 2.5 3.4.6V27.5H46v15.2c0 3 3.4 2.5 3.4.6V27.5c3 0 2.8-4.2.1-4.2h-2.8V20c2.2 1.1 3.5-1.5 1.5-2.5.2-.7.5-.8.1-1.5-.2-.5-.6-.9-1.3-.9-.7 0-.8.2-1.2.5-.5-.4-1.3-.9-2.2 0-.7.5-.6 1.2-.2 1.9-2 1-.8 2.8.5 2.8.6 0 .6-.2 1-.3v3.3h-6.2V18c1.3.7 2.5.3 2.5-1.3 0-.7-.6-.9-.9-1.2.1-.4.8-1.8-.8-2.3h-.9c-.5.1-.3.3-.8.4-.3-.2-.7-.6-1.6-.4-.4.1-1 .7-1 1.2z"/>
    <path d="M0 42.6c0 2.6 3.4 3 4.3 1 .3-.6 2.2-8.3 2.6-9.8.5-1.8.5-3.8.7-5.5l.2-1.4.2-1.4c3 1.4 2.3.4 3.3 3.3.7 2.1 1.2 3.2 1.2 5.4.1 1.6.2 8 .6 9.2.7 2 4 2 4.4-.4.3-1.6-.5-7.8-.6-9.9 0-2.2 0-1.6-.8-4l-1.4-4.3c-.2-.6 0-.7.3-1.3.3-.6 1.2-2 1.3-2.6-.1-.2 0-.2-.3-.3-1.2-1-1.1-2-1.4-3.5l-.7-4.3 1.8 3.9.4.8c1.1 2.6 1.2 2.1 5 2.7 1.6.3 3.7.7 5.1.7 1 0 1.7-.8 1.7-1.9h.8v-3.7h.9L28 13.5l-1.4-1.7-1.5 1.7-1.4 1.8H24.7v1.8l-4.7-.7c-.4-.2-.2-.2-.7-1L17 10.4l3.2 3.4c2.2-4-4.3-6.8-6.9-6.8-1.5 0-2.2 1-2.7 2C9 11.7 4 20.2 3.8 22l-.3 2.7c-.3 1.8-.7 7-1 8.1C2 35 0 41.3 0 42.6z"/>
    <path d="M16 3.8c0 3.7 4 5.2 6.5 3.5a3.9 3.9 0 0 0-.4-6.8c-3-1.5-6.2.7-6.2 3.3z"/>
  </g>
</svg>
