<?xml version="1.0" encoding="UTF-8"?>
<!DOCTYPE svg PUBLIC "-//W3C//DTD SVG 1.1//EN" "http://www.w3.org/Graphics/SVG/1.1/DTD/svg11.dtd">
<!-- Creator: CorelDRAW 2017 -->
<svg xmlns="http://www.w3.org/2000/svg" xml:space="preserve" width="195px" height="144px" version="1.1" shape-rendering="geometricPrecision" text-rendering="geometricPrecision" image-rendering="optimizeQuality" fill-rule="evenodd" clip-rule="evenodd"
viewBox="0 0 47.08 34.71"
 xmlns:xlink="http://www.w3.org/1999/xlink">
 <g id="Слой_x0020_1">
  <metadata id="CorelCorpID_0Corel-Layer"/>
  <g id="_1560244463328">
   <path fill="#00823C" d="M5.05 24.08l-3.36 0 -0.01 -13.45 3.37 0 0 13.45zm40.34 -0.02l-3.36 0 0 -13.45 3.36 0 0 13.45zm-22.69 -10.81l0 8.19c-2.71,-0.63 -3.9,-2.98 -3.09,-5.6 0.18,-0.58 0.51,-1.02 0.89,-1.42l0.11 -0.11c0.01,-0.01 0.15,-0.14 0.16,-0.15 0.67,-0.59 1.03,-0.7 1.93,-0.91zm4.74 5.78c0,0.17 0.05,0.13 -0.12,0.13 -0.19,0.7 -1.26,1.78 -1.96,1.97 0,0.17 0.04,0.12 -0.14,0.12 -0.29,0.05 -0.55,0.13 -0.84,0.19l0 -8.19c0.99,0.23 1.54,0.48 2.2,1.16 0.01,0.02 0.03,0.04 0.05,0.06 0.74,0.8 0.89,1.33 1.07,2.5 0.12,0.75 -0.16,1.45 -0.26,2.06zm-19.03 -1.68c0,0.45 -0.22,0.96 -0.47,1.21 -0.3,0.3 -0.71,0.43 -1.21,0.47l0 -3.36c0.97,0.08 1.68,0.65 1.68,1.68zm31.94 -1.69l0 3.36c-1.96,-0.16 -1.96,-2.13 -1.21,-2.89 0.3,-0.29 0.71,-0.43 1.21,-0.47zm-33.62 5.06c1.92,-0.01 3.36,-1.78 3.36,-3.05l0 -0.63c0,-1.27 -1.44,-3.05 -3.36,-3.05l0 -5.04 -5.05 0 0 -7.25 21.01 -0.01 0.01 9.56c0,0.48 -0.51,0.17 -1.79,0.84 -0.69,0.36 -1.01,0.65 -1.55,1.19 -2.29,2.27 -2.29,5.87 -0.05,8.09 0.73,0.72 1.43,1.28 2.48,1.61 0.44,0.14 0.91,0.06 0.91,0.46l0.01 9.58 -21.02 0.01 0 -7.27 5.04 0 0 -5.04zm38.67 12.29l-21.01 0.01 -0.01 -9.58c0,-0.48 0.51,-0.17 1.79,-0.84 1.62,-0.84 3.25,-2.79 3.25,-4.94 0,-1.91 -0.4,-3.1 -1.65,-4.33 -0.73,-0.73 -1.43,-1.29 -2.48,-1.62 -0.44,-0.14 -0.91,-0.05 -0.91,-0.46l-0.01 -9.56 21.02 -0.01 0 7.25 -5.04 0 0 5.05c-1.92,0 -3.36,1.78 -3.36,3.05l0 0.63c0,1.26 1.44,3.04 3.36,3.04l0 5.04 5.05 0 0 7.27zm1.67 -33.01l-47.07 0.02 0.01 34.69 47.07 -0.02 -0.01 -34.69z"/>
   <path fill="#00823C" d="M28.33 15.28c0,-0.21 0.06,-0.17 -0.15,-0.17 0,0.22 -0.05,0.17 0.15,0.17z"/>
   <path fill="#00823C" d="M25.77 12.7c0,-0.21 0.05,-0.15 -0.17,-0.15 0,0.21 -0.05,0.15 0.17,0.15z"/>
  </g>
 </g>
</svg>
