<svg xmlns="http://www.w3.org/2000/svg" fill-rule="evenodd" clip-rule="evenodd" image-rendering="optimizeQuality" shape-rendering="geometricPrecision" text-rendering="geometricPrecision" viewBox="0 0 49.5 38">
  <g fill="#00823C" fill-rule="nonzero">
    <path d="M17.9 25.3h2.5c.2 0 .4.2.4.4V28c0 .2-.2.4-.4.4h-2.5a.4.4 0 0 1-.5-.4v-2.2c0-.2.2-.4.5-.4zM12.5 23.9c-.1-.1-.1-.3 0-.4l2.6-4h-.8c-.2 0-.3 0-.4-.2V19l2.8-3.9h-.9c-.2 0-.3 0-.4-.2l.1-.4 3.3-4.4c0-.2.2-.2.3-.2.2 0 .3 0 .4.2l3.3 4.4v.4c0 .2-.2.2-.3.2h-.9l2.7 4v.3c0 .2-.2.2-.4.2h-.8l2.7 4v.4l-.4.2H12.8c-.1 0-.3 0-.3-.2zM10.2 25.8h2c.2 0 .4.2.4.4V28c0 .2-.2.4-.4.4h-2a.4.4 0 0 1-.4-.4v-1.7c0-.2.2-.4.4-.4zM5.8 24.3l2-3.1h-.4c-.2 0-.3 0-.4-.2v-.4l2.1-3h-.5c-.3 0-.4-.2-.4-.2V17l2.6-3.5c.1-.2.3-.2.4-.2.1 0 .3 0 .4.2l1 1.5c.2.2.2.5 0 .7l-.6.9h1c.1 0 .3 0 .3.2v.4l-2.7 3.9h.9c.2 0 .3 0 .4.2v.4l-2 2.9-.6.3H6.2l-.4-.2v-.4zM31.4 26h-1.8c-.2 0-.4.1-.4.4v1.4c0 .3.2.5.4.5h1.8c.2 0 .4-.2.4-.5v-1.4c0-.3-.2-.5-.4-.5zM39.3 26h-1.8c-.2 0-.4.1-.4.4v1.4c0 .3.2.5.4.5h1.8c.2 0 .4-.2.4-.5v-1.4c0-.3-.2-.5-.4-.5zM42.5 21.2l.1-.7c0-.7-.4-1.4-1-1.5l.1-.7c0-.9-.5-1.6-1.3-1.6v-.4a2 2 0 0 0-3.3-1.5l-.2.5.1.6.3.4c.6.7.9 1.5 1 2.3l.1.4a4 4 0 0 1 1.5 3.2c0 .6 0 1.1-.3 1.6 0 0-.1.2 0 .4l.4.2h2.5c.7 0 1.3-.7 1.3-1.6 0-.8-.6-1.5-1.3-1.6zM38.2 22.2c0-1.2-.8-2.2-1.8-2.2h-.1l.2-1c0-1.1-.7-2-1.6-2.2.2-.3.3-.7.3-1.1 0-1.2-.8-2.1-1.8-2.1h-.3l.1-.8a2.7 2.7 0 1 0-5.3.8h-.2c-1 0-1.8.8-1.9 2 .2.1.2.3.1.4v.1l.2.7c-.3 0-.5.2-.8.4l2 2.9c.2.1.2.3.1.4l-.3.2h-.9l2.5 3.7h7.7c1 0 1.8-1 1.8-2.2z"/>
    <path d="M47.5 35.5V2.6A88.8 88.8 0 0 1 2 2.6v32.9a87.2 87.2 0 0 1 45.5 0zm2 1c-.2.3-.4.8-.8 1.1-.5.6-1.2.5-1.9.3a69.1 69.1 0 0 0-44 0c-1.6.5-2.8-.4-2.8-2V2.1C0 .5 1.3-.4 2.8.1c11 4.7 33 5.1 44 .1 1.1-.6 2.5.1 2.7 1.4v34.8z"/>
  </g>
</svg>
