<?xml version="1.0" encoding="UTF-8"?>
<!DOCTYPE svg PUBLIC "-//W3C//DTD SVG 1.1//EN" "http://www.w3.org/Graphics/SVG/1.1/DTD/svg11.dtd">
<!-- Creator: CorelDRAW 2017 -->
<svg xmlns="http://www.w3.org/2000/svg" xml:space="preserve" width="208px" height="169px" version="1.1" shape-rendering="geometricPrecision" text-rendering="geometricPrecision" image-rendering="optimizeQuality" fill-rule="evenodd" clip-rule="evenodd"
viewBox="0 0 52 42.45"
 xmlns:xlink="http://www.w3.org/1999/xlink">
 <g id="Слой_x0020_1">
  <metadata id="CorelCorpID_0Corel-Layer"/>
  <g id="_1560244404160">
   <g>
    <path fill="#00823C" fill-rule="nonzero" d="M29.34 31.27c-0.93,0.57 -2.11,0.89 -3.34,0.89 -1.22,0 -2.41,-0.32 -3.34,-0.89l-15.11 -9.26c0,0 -1.36,-0.84 -1.36,1.05l0 9.26c0,4.87 8.87,10.13 19.81,10.13 10.94,0 19.81,-5.26 19.81,-10.13l0 -9.78c0,-1.52 -0.97,-0.77 -0.97,-0.77l-15.5 9.5z"/>
    <path fill="#00823C" fill-rule="nonzero" d="M51.13 14.64c1.16,-0.72 1.16,-1.88 0,-2.59l-23.02 -11.52c-0.57,-0.35 -1.33,-0.53 -2.08,-0.53l-0.05 0c-0.76,0 -1.52,0.18 -2.09,0.53l-23.02 11.52c-1.16,0.71 -1.16,1.87 0,2.59l23.02 14.11c1.16,0.72 3.06,0.72 4.22,0l23.02 -14.11z"/>
    <path fill="#00823C" fill-rule="nonzero" d="M50.18 35.56l0 -15.59c0,0 0.01,-0.74 -0.43,-0.5 -0.35,0.2 -1.21,0.68 -1.51,0.94 -0.35,0.31 -0.27,0.99 -0.27,0.99l0 14.16c0,0.2 -0.18,0.3 -0.26,0.35 -0.8,0.47 -1.33,1.33 -1.33,2.32 0,1.49 1.21,2.69 2.69,2.69 1.49,0 2.7,-1.2 2.7,-2.69 0,-0.99 -0.54,-1.86 -1.34,-2.33 -0.08,-0.04 -0.25,-0.14 -0.25,-0.34z"/>
   </g>
   <g>
    <g>
     <path fill="#FEFEFE" d="M49.07 38.17c0,0 -0.01,0.01 -0.02,0.01 -0.02,0.01 -0.03,0.03 -0.03,0.05 0,0.03 0.02,0.05 0.05,0.05 0.03,0 0.06,-0.02 0.06,-0.05 0,-0.02 -0.01,-0.04 -0.03,-0.05 -0.01,0 -0.02,-0.01 -0.03,-0.01z"/>
    </g>
    <g>
     <path fill="#FEFEFE" d="M48.03 13.44l-21.2 -10.6 -0.1 -0.06c-0.17,-0.1 -0.5,-0.14 -0.7,-0.14l-0.05 0c-0.2,0 -0.54,0.04 -0.71,0.14l-0.1 0.06 -21.19 10.6 21.29 13.06c0.31,0.19 1.15,0.19 1.46,0l21.3 -13.06z"/>
    </g>
    <g>
     <path fill="#FEFEFE" d="M8.83 25.89l0 6.43c0,1.83 3.04,3.83 4.41,4.57 3.79,2.03 8.5,2.92 12.76,2.92 4.27,0 8.98,-0.89 12.76,-2.92 1.38,-0.74 4.42,-2.74 4.42,-4.57l0 -6.43 -12.46 7.63c-1.4,0.86 -3.08,1.27 -4.72,1.27 -1.64,0 -3.31,-0.41 -4.72,-1.27l-12.45 -7.63z"/>
    </g>
   </g>
  </g>
 </g>
</svg>
