<?xml version="1.0" encoding="UTF-8"?>
<!DOCTYPE svg PUBLIC "-//W3C//DTD SVG 1.1//EN" "http://www.w3.org/Graphics/SVG/1.1/DTD/svg11.dtd">
<!-- Creator: CorelDRAW 2017 -->
<svg xmlns="http://www.w3.org/2000/svg" xml:space="preserve" width="201px" height="154px" version="1.1" shape-rendering="geometricPrecision" text-rendering="geometricPrecision" image-rendering="optimizeQuality" fill-rule="evenodd" clip-rule="evenodd"
viewBox="0 0 93.57 71.88"
 xmlns:xlink="http://www.w3.org/1999/xlink">
 <g id="Слой_x0020_1">
  <metadata id="CorelCorpID_0Corel-Layer"/>
  <path fill="#00823C" fill-rule="nonzero" d="M86.33 63.19c0,-18.08 0,-36.2 0,-54.37 -0.25,0.05 -0.39,0.08 -0.54,0.11 -4.27,1.06 -8.54,2.15 -12.83,3.15 -0.78,0.18 -1.02,0.39 -1.02,1.2 0.02,15.19 0.01,30.38 0.01,45.58 0,0.32 0,0.65 0,0.89 4.87,1.17 9.62,2.31 14.38,3.44zm-79.14 0.01c4.84,-1.15 9.58,-2.29 14.34,-3.43 0.02,-0.08 0.05,-0.17 0.05,-0.25 0.01,-15.53 0.01,-31.06 0.02,-46.59 0,-0.56 -0.23,-0.69 -0.73,-0.8 -3.17,-0.69 -6.35,-1.41 -9.51,-2.16 -1.38,-0.32 -2.73,-0.75 -4.17,-1.16 0,18.2 0,36.3 0,54.39zm21.62 -49.89c0,15.16 0,30.25 0,45.44 12.02,-1.57 23.96,-1.56 35.93,-0.02 0,-15.22 0,-30.28 0,-45.42 -12,1.3 -23.94,1.3 -35.93,0zm64.76 55.52c-0.5,0.77 -0.87,1.69 -1.53,2.29 -1.02,0.96 -2.34,0.89 -3.61,0.44 -5.74,-2.07 -11.64,-3.49 -17.63,-4.63 -6.47,-1.23 -13,-1.93 -19.58,-2.14 -9.65,-0.32 -19.23,0.38 -28.72,2.19 -5.86,1.12 -11.64,2.52 -17.27,4.55 -2.91,1.04 -5.22,-0.62 -5.22,-3.72 -0.01,-7.83 -0.01,-15.66 -0.01,-23.49 0,-13.43 0,-26.87 0,-40.3 0,-1.7 0.62,-3.02 2.24,-3.74 1.01,-0.45 2.02,-0.32 3,0.09 7.19,3.01 14.74,4.58 22.42,5.6 9.66,1.27 19.37,1.48 29.08,0.88 9.87,-0.61 19.6,-2.1 28.97,-5.44 0.86,-0.31 1.71,-0.64 2.54,-1.02 2.3,-1.06 4.84,0.22 5.18,2.58 0.02,0.09 0.09,0.16 0.14,0.24 0,21.87 0,43.75 0,65.62z"/>
 </g>
</svg>
