<?xml version="1.0" encoding="UTF-8"?>
<!DOCTYPE svg PUBLIC "-//W3C//DTD SVG 1.1//EN" "http://www.w3.org/Graphics/SVG/1.1/DTD/svg11.dtd">
<!-- Creator: CorelDRAW 2017 -->
<svg xmlns="http://www.w3.org/2000/svg" xml:space="preserve" width="226px" height="226px" version="1.1" shape-rendering="geometricPrecision" text-rendering="geometricPrecision" image-rendering="optimizeQuality" fill-rule="evenodd" clip-rule="evenodd"
viewBox="0 0 65.4 65.4"
 xmlns:xlink="http://www.w3.org/1999/xlink">
 <g id="Слой_x0020_1">
  <metadata id="CorelCorpID_0Corel-Layer"/>
  <path fill="#097F43" d="M64.83 33.55l0 0c-12.3,-13.24 -19.93,-21.31 -30.92,-32.83 -0.37,-0.48 -0.74,-0.72 -1.12,-0.72 -0.56,0 -1.12,0.24 -1.49,0.72l-30.75 32.58c-0.36,0.5 -0.55,0.99 -0.55,1.48 0,0.48 0.19,0.97 0.55,1.21 0.76,0.98 1.86,0.98 2.62,0l29.62 -31.11 29.44 31.59c0.19,0.25 0.74,0.5 1.31,0.5 0.55,0 0.93,-0.25 1.29,-0.5 0.76,-0.72 0.76,-2.18 0,-2.92zm-10.23 -1.47c-1.14,0 -1.88,0.74 -1.88,1.96l0 27.18 -13.4 0 0 -11.02c0,-0.98 -0.76,-1.96 -1.69,-1.96l-9.69 0c-1.11,0 -2.05,0.98 -2.05,1.96l0 11.02 -13.23 0 0 -26.21c0,-1.21 -0.93,-1.96 -1.86,-1.96 -1.12,0 -1.86,0.75 -1.86,1.96l0 28.42c0,0.98 0.74,1.97 1.86,1.97l17.14 0c0.94,0 1.68,-0.99 1.68,-1.97l0 -11.26 5.96 0 0 11.26c0,0.98 0.94,1.97 2.05,1.97l16.97 0c0.93,0 1.86,-0.99 1.86,-1.97l0 -29.39c0,-1.22 -0.93,-1.96 -1.86,-1.96z"/>
 </g>
</svg>
