<svg xmlns="http://www.w3.org/2000/svg" fill-rule="evenodd" clip-rule="evenodd" image-rendering="optimizeQuality" shape-rendering="geometricPrecision" text-rendering="geometricPrecision" viewBox="0 0 51.6 49.6">
  <path fill="#00823C" fill-rule="nonzero" d="M.2 46l-.2.8a1.9 1.9 0 0 0 3.5.9s3.5-3.4 21-3.4c18.7 0 23.9 4.7 23.9 4.7.4.4.9.6 1.4.6a1.9 1.9 0 0 0 1.3-3.2c-.3-.3-2-1.8-6.2-3.2.4-.4.6-1 .6-1.6v-10h1.7c1 0 1.1-.8.4-1.7l-9-11c-.7-1-1.9-1-2.6 0l-.4.4a2.5 2.5 0 0 1-1.5 4.5h-.2l5.4 6c.7.6.9 1.7.4 2.6-.3 1-1.3 1.5-2.2 1.5H31v6.8h-1.1v-7.9h7.6a1.4 1.4 0 0 0 1-2.4l-7-7.6h2.6a1.4 1.4 0 0 0 .8-2.7l-3-2.3h.2c.8 0 1.5-.6 1.5-1.4 0-.4-.1-.7-.4-1l-3.6-5h.4c.8 0 1.4-.6 1.4-1.4 0-.4-.1-.8-.4-1L25.4.6c-.2-.4-.6-.6-1-.6h-.2c-.4 0-.8.2-1.1.6L17.9 8c-.3.5-.3 1-.1 1.5.2.4.6.7 1 .8L15 15.5c-.2.4-.3.8-.1 1.3.6 0 1.2.4 1.7 1l.4.4 4 5 .7-1c.3-.5.3-1 0-1.5-.2-.5-.7-.8-1.2-.8h-1.2l2.3-2.6c.4-.5.4-1 .2-1.6-.2-.5-.7-.8-1.3-.8H19l3.8-5.3c.3-.4.4-1 .1-1.5-.2-.4-.6-.7-1-.8L24.2 4 27 7.5h-.3c-.5 0-1 .3-1.2.8-.3.5-.3 1 0 1.5l3.8 5.2h-1.9c-.6 0-1.2.4-1.4 1-.2.6 0 1.2.5 1.6l3.2 2.3h-1.5c-.6 0-1 .4-1.3 1-.2.5-.1 1 .3 1.5l7 7.6h-5.9c-.7 0-1.4.6-1.4 1.4v9.2H25v-7.7l-.8.1H24v7.5h-1v-9h1.6c1 0 1.1-.7.4-1.6l-9-11c-.7-1-1.8-1-2.6 0l-8.6 11c-.8.9-.6 1.6.3 1.6h1.7v10.1l.1.6C2 43.5.6 45.2.2 46zm15.2-14.3H18v3.8h-2.6v-3.8zm0 5.5H18v3.5l-2.6.2v-3.7zm-4.2-5.5h2.5v3.8h-2.5v-3.8zm0 5.5h2.5V41h-2.5v-3.8z"/>
</svg>
