<?xml version="1.0" encoding="UTF-8"?>
<!DOCTYPE svg PUBLIC "-//W3C//DTD SVG 1.1//EN" "http://www.w3.org/Graphics/SVG/1.1/DTD/svg11.dtd">
<!-- Creator: CorelDRAW 2017 -->
<svg xmlns="http://www.w3.org/2000/svg" xml:space="preserve" width="157px" height="159px" version="1.1" shape-rendering="geometricPrecision" text-rendering="geometricPrecision" image-rendering="optimizeQuality" fill-rule="evenodd" clip-rule="evenodd"
viewBox="0 0 60.2 61.27"
 xmlns:xlink="http://www.w3.org/1999/xlink">
 <g id="Слой_x0020_1">
  <metadata id="CorelCorpID_0Corel-Layer"/>
  <g id="_1560243877904">
   <path fill="#00823C" fill-rule="nonzero" d="M14.66 48.39c-0.99,0 -1.79,-0.81 -1.79,-1.8 0,-0.99 0.8,-1.79 1.79,-1.79 0.99,0 1.8,0.8 1.8,1.79 0,0.99 -0.81,1.8 -1.8,1.8zm0 -7.18c-2.97,0 -5.38,2.41 -5.38,5.38 0,2.97 2.41,5.39 5.38,5.39 2.97,0 5.39,-2.42 5.39,-5.39 0,-2.97 -2.42,-5.38 -5.39,-5.38z"/>
   <path fill="#00823C" fill-rule="nonzero" d="M37 31.89c-0.59,-1.06 -1.28,-2.06 -2.07,-3.01l21.68 -21.5 0 5.09 -19.61 19.42zm23.2 -18.6l0 -10.27c0,-0.01 0,-0.03 0,-0.04 -0.04,-0.9 -0.74,-1.62 -1.62,-1.7 -0.01,0 -0.01,0 -0.01,0l-14.18 -1.27c-0.06,-0.01 -0.12,-0.01 -0.17,-0.01l-0.01 0c-0.84,0.01 -1.58,0.6 -1.75,1.44l-1.03 5.18 -5.18 1.03c-0.71,0.15 -1.26,0.7 -1.4,1.41l-1.04 5.18 -5.17 1.03c-0.63,0.12 -1.14,0.57 -1.35,1.17l-2.11 6.1c-6.86,-1.96 -14.3,-0.09 -19.4,5.01 -3.85,3.85 -5.78,8.91 -5.78,13.96 0,5.06 1.93,10.12 5.78,13.97 3.73,3.73 8.69,5.79 13.96,5.79 10.92,0 19.75,-8.86 19.75,-19.75 0,-2.11 -0.32,-4.16 -0.95,-6.1l21.13 -20.92c0.32,-0.32 0.51,-0.75 0.53,-1.21zm-51.88 39.65c-6.31,-6.3 -6.31,-16.55 0,-22.85 3.08,-3.08 7.2,-4.72 11.41,-4.72 1.98,0 3.99,0.36 5.9,1.11 0.95,0.37 2.02,-0.12 2.35,-1.08l2.37 -6.81 5.34 -1.07c0.71,-0.14 1.27,-0.69 1.41,-1.41l1.03 -5.17 5.18 -1.04c0.71,-0.14 1.27,-0.69 1.41,-1.4l0.95 -4.77 8.73 0.78 -23.23 23.03c-0.7,0.7 -0.7,1.84 0,2.55 10.1,10.1 2.98,27.59 -11.43,27.59 -4.31,0 -8.37,-1.69 -11.42,-4.74z"/>
  </g>
 </g>
</svg>
