<svg xmlns="http://www.w3.org/2000/svg" viewBox="0 0 154.63 154.63">
  <path d="M77.32 0a77.32 77.32 0 1 0 0 154.65A77.32 77.32 0 0 0 77.33 0zm40.01 93.97c-.2 4.28-.88 7.19-1.87 9.75a19.59 19.59 0 0 1-4.64 7.12 19.65 19.65 0 0 1-7.11 4.63 29.62 29.62 0 0 1-9.75 1.87c-4.28.19-5.65.24-16.56.24-10.9 0-12.27-.05-16.56-.24-4.27-.2-7.19-.88-9.75-1.87a19.74 19.74 0 0 1-7.11-4.63 19.43 19.43 0 0 1-4.63-7.12 29.62 29.62 0 0 1-1.87-9.75c-.2-4.28-.24-5.64-.24-16.55s.04-12.27.24-16.56c.2-4.28.87-7.19 1.87-9.75A19.6 19.6 0 0 1 43.98 44a19.69 19.69 0 0 1 7.11-4.63 29.68 29.68 0 0 1 9.75-1.87c4.28-.2 5.66-.24 16.56-.24 10.91 0 12.27.05 16.56.24 4.28.2 7.19.88 9.75 1.87a19.65 19.65 0 0 1 7.11 4.63 19.63 19.63 0 0 1 4.64 7.11 29.68 29.68 0 0 1 1.87 9.75c.19 4.28.23 5.65.23 16.56.01 10.9-.04 12.26-.23 16.55z"/>
  <path d="M108.72 53.73a12.52 12.52 0 0 0-3-4.62 12.56 12.56 0 0 0-4.63-3c-1.41-.55-3.54-1.2-7.45-1.38-4.23-.19-5.51-.23-16.23-.23s-11.99.04-16.23.23c-3.91.18-6.04.83-7.45 1.38a12.6 12.6 0 0 0-4.62 3 12.4 12.4 0 0 0-3 4.62c-.55 1.42-1.21 3.54-1.39 7.46-.19 4.23-.23 5.5-.23 16.23 0 10.72.04 12 .23 16.22.18 3.91.84 6.04 1.39 7.45a12.51 12.51 0 0 0 3 4.63 12.6 12.6 0 0 0 4.62 3c1.41.55 3.54 1.2 7.45 1.38 4.23.19 5.51.23 16.23.23s12-.04 16.23-.23c3.91-.18 6.04-.83 7.45-1.38 1.88-.73 3.21-1.6 4.63-3a12.56 12.56 0 0 0 3-4.63c.55-1.41 1.2-3.54 1.38-7.45.19-4.23.23-5.51.23-16.22 0-10.73-.04-11.99-.23-16.23-.18-3.92-.83-6.05-1.38-7.46zm-31.31 44.3a20.62 20.62 0 1 1 0-41.24 20.62 20.62 0 0 1 0 41.24zM98.85 60.8a4.82 4.82 0 1 1 0-9.65 4.82 4.82 0 0 1 0 9.65z"/>
  <path d="M77.41 64.03a13.39 13.39 0 1 0 0 26.78 13.39 13.39 0 0 0 0-26.78z"/>
</svg>
