<svg xmlns="http://www.w3.org/2000/svg" viewBox="0 0 158.23 158.23">
  <path d="M79.11 0a79.11 79.11 0 1 0 0 158.22A79.11 79.11 0 0 0 79.11 0zm43.64 110.86l-13.46.19s-2.89.57-6.69-2.04c-5.03-3.45-9.78-12.43-13.47-11.25-3.75 1.19-3.63 9.27-3.63 9.27s.03 1.72-.83 2.65c-.93 1-2.75 1.19-2.75 1.19H75.9s-13.29.8-24.99-11.38c-12.76-13.3-24.02-39.66-24.02-39.66s-.65-1.73.06-2.56c.79-.94 2.95-1 2.95-1l14.4-.09s1.35.23 2.33.94c.79.59 1.24 1.69 1.24 1.69s2.33 5.88 5.41 11.21c6.01 10.39 8.82 12.66 10.86 11.55 2.97-1.62 2.08-14.69 2.08-14.69s.06-4.74-1.5-6.85c-1.2-1.64-3.47-2.11-4.47-2.25-.81-.11.52-1.99 2.25-2.83 2.59-1.27 7.16-1.34 12.57-1.28 4.21.04 5.42.3 7.07.7 4.96 1.2 3.27 5.83 3.27 16.92 0 3.55-.64 8.55 1.92 10.21 1.11.71 3.81.1 10.55-11.35 3.19-5.43 5.59-11.81 5.59-11.81s.52-1.14 1.33-1.63c.83-.5 1.95-.34 1.95-.34l15.15-.09s4.55-.54 5.29 1.51c.77 2.16-1.7 7.19-7.89 15.44-10.16 13.54-11.29 12.27-2.86 20.1 8.06 7.48 9.73 11.12 10 11.58 3.34 5.52-3.69 5.95-3.69 5.95z"/>
</svg>
