<svg class="genplan__svg" viewBox="0 0 1280 728" preserveAspectRatio="xMidYMin slice">
  <defs>
    <style>
    #pins-1 {
      display: none;
    }

    #pins-2 {
      display: none;
    }

    #pins-territory {
      display: none;
    }

    </style>
  </defs>
  <image width="1280" height="728" xlink:href="images/genplan.jpg" />
  <g id="pins-territory">
    <g>
      <path d="M719.5,600a14.2,14.2,0,0,1,14.2,14.2c0.1,8.8-11.4,16-14.2,21.3-2.4-5.3-14.2-12.3-14.2-21.3A14.2,14.2,0,0,1,719.5,600Z" fill="#0061a9" />
      <path d="M721.5,607.2h-6.6a0.6,0.6,0,0,0-.6.6v14.7a0.6,0.6,0,0,0,.6.6h2.5a0.6,0.6,0,0,0,.6-0.6v-3h3.5A6.2,6.2,0,1,0,721.5,607.2Zm0,11h-4.1a0.6,0.6,0,0,0-.6.6v3h-1.2V608.5h5.9A4.9,4.9,0,1,1,721.5,618.2Z" fill="#fff" />
      <path d="M721.5,609.6h-4.1a0.6,0.6,0,0,0-.6.6v6.1a0.6,0.6,0,0,0,.6.6h4.1A3.7,3.7,0,1,0,721.5,609.6Zm0,6.2H718V611h3.5A2.4,2.4,0,1,1,721.5,615.8Z" fill="#fff" />
    </g>
    <g>
      <path d="M407.6,533.5a14.2,14.2,0,0,1,14.2,14.2c0.1,8.8-11.4,16-14.2,21.3-2.4-5.3-14.2-12.3-14.2-21.3A14.2,14.2,0,0,1,407.6,533.5Z" fill="#0061a9" />
      <path d="M409.6,540.7H403a0.6,0.6,0,0,0-.6.6V556a0.6,0.6,0,0,0,.6.6h2.5a0.6,0.6,0,0,0,.6-0.6v-3h3.5A6.2,6.2,0,1,0,409.6,540.7Zm0,11h-4.1a0.6,0.6,0,0,0-.6.6v3h-1.2V542h5.9A4.9,4.9,0,1,1,409.6,551.7Z" fill="#fff" />
      <path d="M409.6,543.1h-4.1a0.6,0.6,0,0,0-.6.6v6.1a0.6,0.6,0,0,0,.6.6h4.1A3.7,3.7,0,1,0,409.6,543.1Zm0,6.2h-3.5v-4.8h3.5A2.4,2.4,0,1,1,409.6,549.3Z" fill="#fff" />
    </g>
    <g>
      <path d="M265.8,317A14.2,14.2,0,0,1,280,331.2c0.1,8.8-11.4,16-14.2,21.3-2.4-5.3-14.2-12.3-14.2-21.3A14.2,14.2,0,0,1,265.8,317Z" fill="#0061a9" />
      <path d="M267.8,324.2h-6.6a0.6,0.6,0,0,0-.6.6v14.7a0.6,0.6,0,0,0,.6.6h2.5a0.6,0.6,0,0,0,.6-0.6v-3h3.5A6.2,6.2,0,1,0,267.8,324.2Zm0,11h-4.1a0.6,0.6,0,0,0-.6.6v3h-1.2V325.5h5.9A4.9,4.9,0,1,1,267.8,335.2Z" fill="#fff" />
      <path d="M267.8,326.6h-4.1a0.6,0.6,0,0,0-.6.6v6.1a0.6,0.6,0,0,0,.6.6h4.1A3.7,3.7,0,1,0,267.8,326.6Zm0,6.2h-3.5V328h3.5A2.4,2.4,0,1,1,267.8,332.8Z" fill="#fff" />
    </g>
    <g>
      <path d="M597.3,466.1a14.2,14.2,0,0,1,14.2,14.2c0.1,8.8-11.4,16-14.2,21.3-2.4-5.3-14.2-12.3-14.2-21.3A14.2,14.2,0,0,1,597.3,466.1Z" fill="#0f9b51" />
      <path d="M594.6,483.8v-7.2a0.2,0.2,0,1,0-.4,0v7.2a3,3,0,0,1-2.6-3,11.7,11.7,0,0,1,2.8-7,11.5,11.5,0,0,1,2.8,7,2.9,2.9,0,0,1-2.6,3h0Zm7.7,0.8v-3.7a0.2,0.2,0,0,0-.2-0.2l-0.2.2v3.7a2,2,0,0,1-1.6-2,15.6,15.6,0,0,1,1.8-6.1,15.1,15.1,0,0,1,1.8,6.1,2,2,0,0,1-1.6,2h0Zm0.4-9.8a0.6,0.6,0,0,0-.6-0.3,0.9,0.9,0,0,0-.6.3c-0.1.2-2.5,4.5-2.5,7.8a3.3,3.3,0,0,0,2.4,3.2v2a0.6,0.6,0,0,0,1.2,0v-2a3.2,3.2,0,0,0,2.4-3.2c0.2-3.5-2.2-7.6-2.3-7.8h0Zm-7.8-2.5a0.7,0.7,0,0,0-.9,0c-0.2.2-3.7,3.8-3.7,8.5a4.4,4.4,0,0,0,3.4,4.3v2.7a0.6,0.6,0,0,0,1.2,0V485a4.2,4.2,0,0,0,3.4-4.3C598.5,475.8,595,472.5,594.9,472.3Z" fill="#fff" />
    </g>
    <g>
      <path d="M985.6,331.5a14.2,14.2,0,0,1,14.2,14.2c0.1,8.8-11.4,16-14.2,21.3-2.4-5.3-14.2-12.3-14.2-21.3A14.2,14.2,0,0,1,985.6,331.5Z" fill="#0f9b51" />
      <path d="M982.9,349.2V342a0.2,0.2,0,0,0-.4,0v7.2a3,3,0,0,1-2.6-3,11.7,11.7,0,0,1,2.8-7,11.5,11.5,0,0,1,2.8,7,2.9,2.9,0,0,1-2.6,3h0Zm7.7,0.8v-3.7a0.2,0.2,0,0,0-.2-0.2l-0.2.2V350a2,2,0,0,1-1.6-2,15.6,15.6,0,0,1,1.8-6.1,15.1,15.1,0,0,1,1.8,6.1,2,2,0,0,1-1.6,2h0Zm0.4-9.8a0.6,0.6,0,0,0-.6-0.3,0.9,0.9,0,0,0-.6.3c-0.1.2-2.5,4.5-2.5,7.8a3.3,3.3,0,0,0,2.4,3.2v2a0.6,0.6,0,0,0,1.2,0v-2a3.2,3.2,0,0,0,2.4-3.2c0.2-3.5-2.2-7.6-2.3-7.8h0Zm-7.8-2.5a0.7,0.7,0,0,0-.9,0c-0.2.2-3.7,3.8-3.7,8.5a4.4,4.4,0,0,0,3.4,4.3v2.7a0.6,0.6,0,1,0,1.2,0v-2.8a4.2,4.2,0,0,0,3.4-4.3C986.8,341.2,983.3,337.9,983.2,337.7Z" fill="#fff" />
    </g>
    <g>
      <path d="M571.5,171.9a14.2,14.2,0,0,1,14.2,14.2c0.1,8.8-11.4,16-14.2,21.3-2.4-5.3-14.2-12.3-14.2-21.3A14.2,14.2,0,0,1,571.5,171.9Z" fill="#fbb03b" />
      <path d="M574.3,182.8l-1.5-2.9,4.7,2.9h-3.2Zm-4.6,0h4.1l-1.8-3.3h-0.2l-0.3.2-1.8,3.2h0Zm7.1,7.8v1.2h-9.9v-1.2h9.9Zm-10.6-7.8,4.6-2.9-1.6,2.9h-3Zm13.3-.3-7.3-4.5h-0.7l-7.3,4.5a0.6,0.6,0,0,0-.3.6v0.4a0.6,0.6,0,0,0,.6.6h6.7v5.2h-5a0.6,0.6,0,0,0-.6.6v2.4a0.6,0.6,0,0,0,.6.6h11.2a0.6,0.6,0,0,0,.6-0.6v-2.4a0.6,0.6,0,0,0-.6-0.6h-5v-5.2H579a0.6,0.6,0,0,0,.6-0.6v-0.4C579.8,182.9,579.7,182.7,579.5,182.5Z" fill="#fff" />
    </g>
    <g>
      <path d="M566.5,237.3a14.2,14.2,0,0,1,14.2,14.2c0.1,8.8-11.4,16-14.2,21.3-2.4-5.3-14.2-12.3-14.2-21.3A14.2,14.2,0,0,1,566.5,237.3Z" fill="#0f9b51" />
      <path d="M572.2,247.9h-11V247h11v0.9h0Zm0,1.4h-11v-1h11v1h0Zm0,1.5h-11v-1h11v1h0Zm0,1.3h-11v-0.9h11v0.9h0Zm2.7,0h-1.4v-5.7a0.6,0.6,0,0,0-.6-0.6H560.6a0.5,0.5,0,0,0-.6.6v5.7h-1.5a0.6,0.6,0,0,0,0,1.2h2.2l-0.7,3.5a0.7,0.7,0,0,0,.5.8h0.1a0.6,0.6,0,0,0,.6-0.5l0.8-3.7h9.5l0.8,3.7a0.6,0.6,0,0,0,.6.5H573a0.6,0.6,0,0,0,.5-0.8l-0.7-3.4H575a0.6,0.6,0,0,0,.6-0.6A0.7,0.7,0,0,0,574.9,252.1Z" fill="#fff" />
    </g>
  </g>
  <!-- Мекти обустройства территории -->
  <!-- END Метки обустройства территории -->
  <polygon id="house-5" class="house-finish" data-houseid="5" points="972.3 492.7 975.6 475.3 949.3 465.5 939.9 480 858.7 448 781.1 416.8 781.7 400.2 759 390.9 748.4 403.6 725.3 394.3 676 450.3 672.3 554.3 801.8 614.3 942.5 681 979.5 609.3 1008 506.8 972.3 492.7" fill="#8cc63f" />
  <polygon id="house-6" data-houseid="6" points="562.5 396 523.3 379.7 523.5 367.9 501 359.4 492.9 367 446.8 347.8 396.7 326.2 396.7 315.7 378.1 307.4 369 314.3 345.5 304.3 281 350.8 306.5 454.5 401.8 501.8 514 558 568.3 504.3 562.5 396" fill="#568ad6" />
  <!-- <g id="house-9-2">
    <polygon id="9-2-1" data-section="2 (справа)" data-houseid="5" class="svg_house_block house_bind" data-name="9-2-1" class="cls-2" points="858.67 448 939.92 479.96 949.25 465.5 975.58 475.25 972.35 492.72 1008 506.75 979.5 609.25 942.5 681 801.75 614.25 815.13 508.88 858.67 448" />
    <polygon id="9-2-2" data-section="1 (слева)" data-houseid="5" class="svg_house_block house_bind" data-name="9-2-2" class="cls-1" points="676 450.33 725.33 394.33 748.44 403.63 759 390.88 781.71 400.24 781.07 416.77 858.67 448 815.13 508.88 801.75 614.25 672.33 554.33 676 450.33" />
  </g> -->
  <!-- <g id="house-9-1">
    <polygon id="_9-1-1" data-section="2 (справа)" data-houseid="6" class="svg_house_block house_bind" data-name="9-1-1" class="cls-2" points="386.25 398.25 401.75 501.75 514 558 568.25 504.29 562.5 396 523.32 379.67 523.5 367.88 501 359.38 492.91 366.99 446.75 347.75 386.25 398.25" />
    <polygon id="_9-1-2" data-section="1 (слева)" data-houseid="6" class="svg_house_block house_bind" data-name="9-1-2" class="cls-3" points="401.75 501.75 306.5 454.5 281 350.75 345.5 304.25 369 314.35 378.11 307.4 396.73 315.66 396.69 326.24 446.75 347.75 386.25 398.25 401.75 501.75" />
  </g> -->
  <g id="houses-1">
    <g>
      <polygon id="1-1" class="svg_townhouse" data-id-flat="1832" points="399.08 75 392 75 392 70 390 70 390 63 366.17 63 358.13 81.83 358 102 394.5 102 394.5 90.58 399.08 75" />
      <polygon id="1-2" class="svg_townhouse" data-id-flat="1833" points="435 63 409.83 63 406 75 399.08 75 394.5 90.58 394.5 102 425 102 427.25 100.92 427 97 435 92 435 63" />
      <polygon id="1-3" class="svg_townhouse" data-id-flat="1834" points="487.83 77 476 77 476 65 454.5 65 445.84 83.69 446 89 450 86 482.67 96.32 482.67 92.08 487.83 77" />
      <polygon id="1-4" class="svg_townhouse" data-id-flat="1835" points="522 81 522 65 498.5 65 495 77 487.83 77 482.67 92.08 482.67 96.32 488 98 488 104 521.5 104 526 89 533 89 533 81.5 522 81" />
      <polygon id="1-5" class="svg_townhouse" data-id-flat="1836" points="574.42 79 564 79 564 67 540.88 67 537 85 537 105 571.5 105.46 571.5 94.92 574.42 79" />
      <polygon id="1-6" class="svg_townhouse" data-id-flat="1837" points="607 84 607 67 584.88 67 583 79 574.42 79 571.5 94.92 571.5 105.46 595.72 105.79 615.37 91.8 618 92.25 618 84 607 84" />
      <polygon id="1-7" class="svg_townhouse" data-id-flat="1838" points="662.17 82 650 82 650 70 628 70 628 94 630 93 644 98 646 101 657 104 657 106 660.67 106.17 660.67 97.25 662.17 82" />
      <polygon id="1-8" class="svg_townhouse" data-id-flat="1839" points="695 85 695 71 673 71 673 82 662.17 82 660.67 97.25 660.67 106.17 699 108 699 95 705 95 705 85 695 85" />
      <polygon id="1-9" class="svg_townhouse" data-id-flat="1840" points="748.17 83 739 83 738 71 715 71 714 96 710 96 712 109 749.58 109.69 749.58 99.17 748.17 83" />
      <polygon id="1-10" class="svg_townhouse" data-id-flat="1841" points="782 71 760 71 759 83 748.17 83 749.58 99.17 749.58 109.69 757.17 109.83 777 93 785 95.15 785 90 782 71" />
      <polygon id="1-11" class="svg_townhouse" data-id-flat="1842" points="836.42 85 828 85 825 74 802 74 802 96.26 809 98 809 101 823 105 823 110.11 839.16 110.96 839.16 100.33 836.42 85" />
      <polygon id="1-12" class="svg_townhouse" data-id-flat="1843" points="878 89 874 89 870 75 847 75 847 85 836.42 85 839.16 100.33 839.16 110.96 878 113 878 89" />
      <polygon id="1-13" class="svg_townhouse" data-id-flat="1844" points="925.58 88 917 88 913 75 891 75 886 81 886 106 890 114 928.24 114 928.24 102.5 925.58 88" />
      <polygon id="1-14" class="svg_townhouse" data-id-flat="1845" points="966 101 966 94 958 75 936 75 931 88 925.58 88 928.24 102.5 928.24 114 967 114 967 107 969.5 104.5 966 101" />
      <polygon id="1-15" class="svg_townhouse" data-id-flat="1846" points="1011.58 89 1007 89 1001 77 978 77 977 84 974 84 973 104 979 116 1018.92 116 1018.92 104.33 1011.58 89" />
      <polygon id="1-16" class="svg_townhouse" data-id-flat="1847" points="1058.5 105.5 1056 103 1056 96 1046 78 1023 78 1022 85 1019 85 1019 89 1011.58 89 1018.92 104.33 1018.92 116 1056 116 1058.5 105.5" />
    </g>
    <path class="cls-4" d="M1017.67,117.17" />
  </g>
  <g id="houses-5" class="house_bind">
    <polygon id="_5-1" data-houseid="4.2" class="svg_house_block house_bind" data-name="5-1" class="cls-5" points="569 388 635 415 648 402 659 403 673 387 669 385 676 378 676 367 680 363 680 356 684 352 684 336 681 334 681 306 670 302 670 292 616 272 578 305 578 307 561 323 561 348 565 351 565 379 569 382 569 388" />
    <polygon id="_5-2" class="house-finish" data-houseid="4.3" data-name="5-2" class="cls-5" points="351.53 306.84 344.5 269.75 354.25 261.63 352.38 251.88 365.13 242.75 365.13 238.38 379 229.13 383.88 229.75 395 221.63 442 238.88 442 248.25 459.63 255.13 465.5 303.25 469.38 305.63 470.63 320.13 463.88 325 457.13 325 437.9 343.95 396.69 326.24 396.73 315.66 378.11 307.4 369 314.35 351.53 306.84" />
    <polygon id="_5-3" data-houseid="4.1" class="svg_house_block house_bind" data-name="5-3" class="cls-6" points="651.03 284.97 651.03 242.75 666.75 228.83 666.75 226.33 697.75 199.92 748.67 216.33 748.67 223.42 757.67 228.75 757 272 757.67 273.33 757.67 285.33 751.38 291.75 751.38 298.38 746.75 303 749.38 304.63 738.25 318.13 728.5 316.88 716.25 330 681 317.25 681 306 670 302 670 292 651.03 284.97" />
    <polygon id="_5-4" class="house-finish" data-houseid="4.4" class="svg_house_block house_bind" data-name="5-4" class="cls-6" points="383.88 229.75 379.5 176 387.88 169.13 387.88 158.13 398.13 150.94 398.13 148.69 410 140.88 414.63 142 424.5 136.44 466.75 150.5 466.75 160 482 165 486 214 489.92 215.42 489.92 226.67 483.58 231.25 479.33 230.58 452.9 252.5 442 248.25 442 238.88 395 221.63 383.88 229.75" />
    <polygon id="_5-5" data-houseid="3.4" class="svg_house_block house_bind" data-name="5-5" class="cls-6" points="723.17 208.11 723.17 201 737.13 188.38 737.13 185 763.75 161.88 811.38 175.63 811.38 184.33 819.17 187.67 819.17 221 812.67 227.17 812.67 235 809.5 237.67 813.33 239.17 802.67 251 795.5 252 784.5 260.83 757.3 252.67 757.67 228.75 748.67 223.42 748.67 216.33 723.17 208.11" />
    <polygon id="_5-6" class="house-finish" data-houseid="3.1" class="svg_house_block house_bind" data-name="5-6" class="cls-6" points="411.1 141.14 410.92 119.75 418.33 114.92 418 105.08 427.25 100.92 427 97 435 91.67 437.92 90.08 442.92 91.17 446 89 450 86 488 98 488 104 501.5 110.58 502.92 133.67 504.33 139.25 506.58 140.83 506.58 150.58 501.5 154 496.08 154 480.7 164.57 466.75 160 466.75 150.5 424.5 136.44 414.63 142 411.1 141.14" />
    <polygon id="_5-7" class="house-finish" data-houseid="3.2" class="svg_house_block house_bind" data-name="5-7" class="cls-6" points="587 112 615.37 91.8 628 94 630 93 644 98 646 101 657 104 657 106 657 113.38 666.5 117.25 666.5 122.75 669 124.88 669 139.88 666.5 142.13 666.5 147.25 663.75 149.5 663.75 155.13 641 173.5 641 177.38 633.25 183.5 623.25 180.75 623.5 178.38 581.38 165.5 581.38 158.13 579 157.63 579 151.13 575 149 575 132.13 578.13 130.75 578.13 126.13 580.25 125.29 580.25 122.5 586.88 117.75 587 112" />
    <polygon id="_5-8" data-houseid="3.3" class="svg_house_block house_bind" data-name="5-8" class="cls-6" points="754.91 169.56 750.13 168.13 747.5 169.56 738.25 166.88 738.25 157.75 742.19 153.81 743.25 126.25 754.91 116.25 754.91 111.75 777 93 789.31 96.31 793.19 94.06 809 98 809 101 823 105 823 113.56 829.38 117.38 829.38 148.67 823.42 154.08 822.83 162.83 809.21 175 763.75 161.88 754.91 169.56" />
  </g>
  <g id="houses-t" class="cls-7">
    <g>
      <polygon id="2-1" class="svg_townhouse" data-id-flat="1848" points="914.33 142.42 914.33 127.58 944.01 127.58 950.38 141.96 952.08 129.08 949 123.5 923.17 123.5 922.58 120.42 907 120.42 907 128.17 901 128.17 898.58 150.08 902.67 156.25 905.25 142.42 914.33 142.42" />
      <polygon id="2-2" class="svg_townhouse" data-id-flat="1849" points="921 157.08 919.42 151.58 954.83 151.58 953.5 146.75 949.75 146.75 950.38 141.96 944.01 127.58 914.33 127.58 914.33 142.42 905.25 142.42 902.67 156.25 902.67 164.08 907.6 167.48 910.33 157.08 921 157.08" />
      <polygon id="2-3" class="svg_townhouse" data-id-flat="1850" points="963.08 157.92 960.42 151.58 954.83 151.58 919.42 151.58 921 157.08 910.33 157.08 907.6 167.48 907.75 167.58 906.67 177.83 910.33 184.23 913 184.23 914.58 171.58 923.25 171.58 924.25 155.25 955 155.25 961.25 171 961.25 174.17 963.08 157.92" />
      <polygon id="2-4" class="svg_townhouse" data-id-flat="1851" points="928.58 186.25 928.58 181.67 972.25 180.25 967.25 180.25 961.25 174.63 961.25 174.17 961.25 171 955 155.25 924.25 155.25 923.25 171.58 914.58 171.58 913 184.23 911.92 192.83 916.88 199.19 919.92 186.25 928.58 186.25" />
      <polygon id="2-5" class="svg_townhouse" data-id-flat="1852" points="972.25 180.25 928.58 181.67 928.58 186.25 919.92 186.25 916.88 199.19 916.99 199.33 916.5 208.75 921.71 213.22 923 200.75 933.25 200.75 934.25 185.17 967.17 185.83 970.75 203.67 970.75 207.17 971.63 207.17 975.38 188.13 972.25 180.25" />
      <polygon id="2-6" class="svg_townhouse" data-id-flat="1853" points="935.94 216.83 935.94 212.25 982.85 214.12 982.83 213.83 978 213.83 976.58 207.17 970.75 207.17 970.75 203.67 967.17 185.83 934.25 185.17 933.25 200.75 923 200.75 920.75 222.5 922.8 227.84 925.94 216.83 935.94 216.83" />
      <polygon id="2-7" class="svg_townhouse" data-id-flat="1854" points="935.94 212.25 935.94 216.83 925.94 216.83 922.8 227.84 923.67 230.08 933.83 231.67 937.83 216.83 972.17 220.25 971 241 979.83 241.27 983.42 222.83 982.85 214.12 935.94 212.25" />
      <polygon id="2-8" class="svg_townhouse" data-id-flat="1855" points="931.68 248.3 934.17 243.6 980.97 251.06 980.97 251.06 981.08 249.83 982 241.33 971 241 972.17 220.25 937.83 216.83 933.83 231.67 923.67 230.08 921.33 241.67 921.33 247.92 930.67 248.08 931.68 248.3" />
      <polygon id="2-9" class="svg_townhouse" data-id-flat="1856" points="980.97 251.06 934.17 243.6 931.68 248.3 930.67 248.08 921.33 247.92 916.99 258.67 916.99 264.36 916.99 264.36 922.88 264.75 930.67 249.08 966.08 256.67 961.63 278.25 975.25 280.88 979.75 263.94 980.97 251.06 980.97 251.06" />
      <polygon id="2-10" class="svg_townhouse" data-id-flat="1857" points="975.25 280.88 961.63 278.25 966.08 256.67 930.67 249.08 922.88 264.75 916.99 264.36 914.5 264.19 908.44 275 908.44 281.63 915.12 284.18 920.06 277.88 969.75 289.83 969.75 303.2 974.25 291.88 975.25 280.88" />
      <polygon id="2-11" class="svg_townhouse" data-id-flat="1858" points="920.06 277.88 915.12 284.18 908.44 281.63 906.19 281.06 898.03 290.75 898.03 298.97 899.92 299.58 913.37 283.57 946.17 295 946.17 317.2 955.83 319.67 955.83 321 961.25 320.38 967.25 309.5 969.75 303.2 969.75 289.83 920.06 277.88" />
      <polygon id="2-12" class="svg_townhouse" data-id-flat="1859" points="946.17 317.2 946.17 295 913.37 283.57 899.92 299.58 898.03 298.97 894.5 297.83 883.94 308.33 883.94 317.2 891.13 320 896.5 313 943.88 328.75 943.25 339.26 948.5 340.88 955.83 329.33 955.83 321 955.83 319.67 946.17 317.2" />
      <polygon id="2-13" class="svg_townhouse" data-id-flat="1860" points="896.5 313 891.13 320 883.94 317.2 879.13 315.5 869 327.5 869 332.63 874.5 335.13 878.75 340.13 874.88 345.13 874.38 348.75 877.88 346.25 880.25 350.88 882.75 355.38 890.75 351.42 896.25 357.88 900.13 362 915.88 358.13 919.38 368 926.88 370.38 940 353.38 940 349.5 942.5 345.38 943.25 339.26 943.88 328.75 896.5 313" />
    </g>
  </g>
  <!-- houses pins -->
  <g id="pins-1">
    <g id="pin-1-1">
      <path d="M385.6,49.6a12,12,0,0,0-23.9-.3h-.1c0,.1.1.2,0,.2h0c0,.1.1.2.1.4.1,7.8,8.9,16,11.9,18.9,8.6-6.9,11-13.3,11.8-16.7v-.4c.1-.3.1-.7.2-1h0A3.6,3.6,0,0,0,385.6,49.6Z" fill="#fff" />
      <text transform="translate(368.4 54.5)" font-size="15" font-family="Akrobat-Bold, Akrobat" font-weight="700">1
        <tspan x="4.5" y="0" letter-spacing="-0.09em">.</tspan>
        <tspan x="6" y="0">1</tspan>
      </text>
    </g>
    <g id="pin-1-2">
      <path d="M432.8,53.8a12,12,0,0,0-23.9-.2h-.1c0,.1.1.2,0,.2h0c0,.1.1.3.1.4.1,7.8,8.9,16,11.9,18.9,8.6-6.9,11-13.3,11.8-16.7V56c.1-.3.1-.7.2-.9h0A3.9,3.9,0,0,0,432.8,53.8Z" fill="#fff" />
      <text transform="translate(414 58.7)" font-size="15" font-family="Akrobat-Bold, Akrobat" font-weight="700">1.2</text>
    </g>
    <g id="pin-1-3">
      <path d="M472.8,53.8a12,12,0,0,0-24-.2h0v.2h0v.4c.2,7.8,9,16,12,18.9,8.5-6.9,11-13.3,11.7-16.7,0-.1.1-.2.1-.4a3.1,3.1,0,0,0,.1-.9h0A9.4,9.4,0,0,0,472.8,53.8Z" fill="#fff" />
      <text transform="translate(454 58.7)" font-size="15" font-family="Akrobat-Bold, Akrobat" font-weight="700">1.3</text>
    </g>
    <g id="pin-1-4">
      <path d="M519.4,53.2a12,12,0,0,0-23.9-.3h-.1c0,.1.1.1,0,.2h0c0,.1.1.2.1.3.1,7.8,8.9,16.1,11.9,19,8.6-6.9,11-13.3,11.8-16.7v-.4c.1-.4.1-.7.2-1h0A3.6,3.6,0,0,0,519.4,53.2Z" fill="#fff" />
      <text transform="translate(501 58.1)" font-size="15" font-family="Akrobat-Bold, Akrobat" font-weight="700">1
        <tspan x="4.5" y="0" letter-spacing="-0.07em">.</tspan>
        <tspan x="6.3" y="0">4</tspan>
      </text>
    </g>
    <g id="pin-1-5">
      <path d="M562.4,50.7a12,12,0,0,0-23.9-.3h-.1c0,.1.1.1,0,.2h0c0,.1.1.2.1.3.1,7.8,8.9,16.1,11.9,19,8.6-6.9,11-13.3,11.8-16.7v-.4c.1-.4.1-.7.2-1h0A3.6,3.6,0,0,0,562.4,50.7Z" fill="#fff" />
      <text transform="translate(543.5 55.6)" font-size="15" font-family="Akrobat-Bold, Akrobat" font-weight="700">1.5</text>
    </g>
    <g id="pin-1-6">
      <path d="M608.3,54.2a12,12,0,0,0-23.9-.3h-.1c0,.1.1.1,0,.2h0c0,.1.1.2.1.3.1,7.8,8.9,16.1,11.9,19,8.6-6.9,11-13.3,11.8-16.7v-.4c.1-.4.1-.7.2-1h0A3.6,3.6,0,0,0,608.3,54.2Z" fill="#fff" />
      <text transform="translate(589.3 59.1)" font-size="15" font-family="Akrobat-Bold, Akrobat" font-weight="700">1.6</text>
    </g>
    <g id="pin-1-7">
      <path d="M650.2,56.3a12,12,0,0,0-23.9-.3h0v.2h0v.3c.1,7.8,8.9,16.1,12,19,8.5-6.9,10.9-13.3,11.7-16.7v-.4a4.4,4.4,0,0,0,.2-1h0A3.6,3.6,0,0,0,650.2,56.3Z" fill="#fff" />
      <text transform="translate(631.8 61.2)" font-size="15" font-family="Akrobat-Bold, Akrobat" font-weight="700">1.7</text>
    </g>
    <g id="pin-1-8">
      <path d="M696.8,55.4a12,12,0,0,0-12-12,11.9,11.9,0,0,0-12,11.7h0v.2h0v.3c.1,7.8,8.9,16.1,12,19,8.5-6.9,11-13.3,11.7-16.7v-.4a4.4,4.4,0,0,0,.2-1h0A10.9,10.9,0,0,0,696.8,55.4Z" fill="#fff" />
      <text transform="translate(677.6 60.3)" font-size="15" font-family="Akrobat-Bold, Akrobat" font-weight="700">1.8</text>
    </g>
    <g id="pin-1-9">
      <path d="M738.7,57.4a12,12,0,0,0-23.9-.3h-.1c0,.1.1.1,0,.2h0c0,.1.1.2.1.3.1,7.8,8.9,16.1,11.9,19,8.6-6.9,11-13.3,11.8-16.7v-.4c.1-.4.1-.7.2-1h0A3.6,3.6,0,0,0,738.7,57.4Z" fill="#fff" />
      <text transform="translate(719.7 62.3)" font-size="15" font-family="Akrobat-Bold, Akrobat" font-weight="700">1.9</text>
    </g>
    <g id="pin-1-10">
      <path d="M784.1,59.9a12,12,0,0,0-12-12,11.9,11.9,0,0,0-12,11.7h0v.2h0v.3c.1,7.8,8.9,16.1,12,19,8.5-6.9,11-13.3,11.7-16.7v-.4a4.4,4.4,0,0,0,.2-1h0A10.9,10.9,0,0,0,784.1,59.9Z" fill="#fff" />
      <text transform="translate(763.3 64.8)" font-size="15" font-family="Akrobat-Bold, Akrobat" font-weight="700">1
        <tspan x="4.5" y="0" letter-spacing="-0.09em">.</tspan>
        <tspan x="6" y="0">10</tspan>
      </text>
    </g>
    <g id="pin-1-11">
      <path d="M825.4,62.5a12,12,0,0,0-12-12,11.9,11.9,0,0,0-12,11.7h0v.2h0v.4c.1,7.7,8.9,16,12,18.9,8.5-6.9,11-13.3,11.7-16.7a.6.6,0,0,1,.1-.4c0-.4.1-.7.1-1h0A10.9,10.9,0,0,0,825.4,62.5Z" fill="#fff" />
      <text transform="translate(805.9 67.4)" font-size="15" font-family="Akrobat-Bold, Akrobat" font-weight="700">1
        <tspan x="4.5" y="0" letter-spacing="-0.09em">.</tspan>
        <tspan x="6" y="0">11</tspan>
      </text>
    </g>
    <g id="pin-1-12">
      <path d="M871.7,60.8a12,12,0,0,0-24-.3h0v.2h0v.4c.2,7.7,9,16,12,18.9,8.5-6.9,11-13.3,11.7-16.7,0-.1.1-.3.1-.4a3.8,3.8,0,0,0,.1-1h0A10.9,10.9,0,0,0,871.7,60.8Z" fill="#fff" />
      <text transform="translate(851.3 65.7)" font-size="15" font-family="Akrobat-Bold, Akrobat" font-weight="700">1
        <tspan x="4.5" y="0" letter-spacing="-0.09em">.</tspan>
        <tspan x="6" y="0">12</tspan>
      </text>
    </g>
    <g id="pin-1-13">
      <path d="M915.2,59.8a12,12,0,0,0-12-12,11.9,11.9,0,0,0-12,11.7h0v.2h0v.4c.1,7.7,8.9,16,12,18.9,8.5-6.9,11-13.3,11.7-16.7a.6.6,0,0,1,.1-.4c0-.4.1-.7.1-1h0A10.9,10.9,0,0,0,915.2,59.8Z" fill="#fff" />
      <text transform="translate(894.8 64.7)" font-size="15" font-family="Akrobat-Bold, Akrobat" font-weight="700">1
        <tspan x="4.5" y="0" letter-spacing="-0.09em">.</tspan>
        <tspan x="6" y="0">13</tspan>
      </text>
    </g>
    <g id="pin-1-14">
      <path d="M961.3,63.6a12,12,0,0,0-23.9-.3h-.1v.2h0c0,.1.1.2.1.4.1,7.8,8.9,16,11.9,18.9,8.6-6.9,11-13.3,11.7-16.7a.6.6,0,0,0,.1-.4c.1-.3.1-.7.2-1h0A3.6,3.6,0,0,0,961.3,63.6Z" fill="#fff" />
      <text transform="translate(940.9 68.5)" font-size="15" font-family="Akrobat-Bold, Akrobat" font-weight="700">1
        <tspan x="4.5" y="0" letter-spacing="-0.09em">.</tspan>
        <tspan x="6" y="0">14</tspan>
      </text>
    </g>
    <g id="pin-1-15">
      <path d="M1004.2,62.1a12,12,0,0,0-12-12,11.9,11.9,0,0,0-12,11.7h0V62h0v.4c.1,7.8,8.9,16,12,18.9,8.5-6.9,11-13.3,11.7-16.7v-.4a3.6,3.6,0,0,0,.2-1h0A10.9,10.9,0,0,0,1004.2,62.1Z" fill="#fff" />
      <text transform="translate(983.7 67)" font-size="15" font-family="Akrobat-Bold, Akrobat" font-weight="700">1
        <tspan x="4.5" y="0" letter-spacing="-0.09em">.</tspan>
        <tspan x="6" y="0">15</tspan>
      </text>
    </g>
    <g id="pin-1-16">
      <path d="M1050.4,63.4a12,12,0,0,0-12-12,11.9,11.9,0,0,0-12,11.7h0v.2h0v.4c.1,7.8,8.9,16,12,18.9,8.5-6.9,11-13.3,11.7-16.7a.6.6,0,0,1,.1-.4c0-.3.1-.7.1-1h0A10.9,10.9,0,0,0,1050.4,63.4Z" fill="#fff" />
      <text transform="translate(1029.8 68.3)" font-size="15" font-family="Akrobat-Bold, Akrobat" font-weight="700">1
        <tspan x="4.5" y="0" letter-spacing="-0.09em">.</tspan>
        <tspan x="6" y="0">16</tspan>
      </text>
    </g>
  </g>
  <g id="pins-2">
    <g id="pin-2-1">
      <path d="M918.6,118.7a9.6,9.6,0,0,0-19.2-.2h0v.3c.1,6.2,7.2,12.8,9.6,15.1,6.8-5.5,8.8-10.6,9.4-13.4v-.3a1.7,1.7,0,0,0,.1-.7h0A8.2,8.2,0,0,0,918.6,118.7Z" fill="#fff" />
      <text transform="translate(905.3 125)" font-size="9" font-family="Akrobat-Bold, Akrobat" font-weight="700">2
        <tspan x="3.8" y="0" letter-spacing="-0.09em">.</tspan>
        <tspan x="4.7" y="0">1</tspan>
      </text>
    </g>
    <g id="pin-2-2">
      <path d="M945.9,122.6a9.6,9.6,0,0,0-19.1-.2h-.1v.2h0c0,.1.1.2.1.3.1,6.3,7.1,12.8,9.5,15.2,6.9-5.5,8.8-10.7,9.4-13.4,0-.1.1-.2.1-.3s.1-.5.1-.8h0A2.7,2.7,0,0,0,945.9,122.6Z" fill="#fff" />
      <text transform="translate(931.7 128.9)" font-size="9" font-family="Akrobat-Bold, Akrobat" font-weight="700">2.2</text>
    </g>
    <g id="pin-2-3">
      <path d="M928.2,146.5a9.6,9.6,0,0,0-19.1-.2H909c0,.1.1.2.1.3.1,6.2,7.1,12.8,9.5,15.2,6.9-5.6,8.8-10.7,9.4-13.4a.4.4,0,0,1,.1-.3c0-.3.1-.6.1-.8h0A2.7,2.7,0,0,0,928.2,146.5Z" fill="#fff" />
      <text transform="translate(914 152.8)" font-size="9" font-family="Akrobat-Bold, Akrobat" font-weight="700">2.3</text>
    </g>
    <g id="pin-2-4">
      <path d="M958.1,152a9.6,9.6,0,0,0-19.2-.2h0v.3c.1,6.2,7.1,12.8,9.6,15.2,6.8-5.6,8.8-10.7,9.3-13.4v-.3c0-.3.1-.6.1-.8h0A6.7,6.7,0,0,0,958.1,152Z" fill="#fff" />
      <text transform="translate(944.1 158.3)" font-size="9" font-family="Akrobat-Bold, Akrobat" font-weight="700">2
        <tspan x="3.8" y="0" letter-spacing="-0.07em">.</tspan>
        <tspan x="4.9" y="0">4</tspan>
      </text>
    </g>
    <g id="pin-2-5">
      <path d="M937.9,177.4a9.6,9.6,0,0,0-19.2-.2h0v.2h0v.3c.1,6.3,7.2,12.8,9.6,15.2,6.8-5.5,8.8-10.7,9.4-13.4v-.3c.1-.3.1-.5.2-.8h0Z" fill="#fff" />
      <text transform="translate(923.6 183.7)" font-size="9" font-family="Akrobat-Bold, Akrobat" font-weight="700">2.5</text>
    </g>
    <g id="pin-2-6">
      <path d="M963.2,185.1a9.6,9.6,0,0,0-19.2-.2h0v.2h0v.3c.1,6.3,7.2,12.8,9.6,15.2,6.8-5.5,8.8-10.7,9.4-13.4v-.3l.2-.8h0Z" fill="#fff" />
      <text transform="translate(948.8 191.4)" font-size="9" font-family="Akrobat-Bold, Akrobat" font-weight="700">2.6</text>
    </g>
    <g id="pin-2-7">
      <path d="M985.6,203.5a9.6,9.6,0,0,0-19.2-.2h0v.2h0v.3c.1,6.3,7.1,12.8,9.6,15.2,6.8-5.5,8.8-10.7,9.3-13.4a.4.4,0,0,0,.1-.3c0-.3.1-.5.1-.8h0A6.7,6.7,0,0,0,985.6,203.5Z" fill="#fff" />
      <text transform="translate(971.5 209.8)" font-size="9" font-family="Akrobat-Bold, Akrobat" font-weight="700">2.7</text>
    </g>
    <g id="pin-2-8">
      <path d="M958.7,214.8a9.6,9.6,0,0,0-19.2-.2h0v.2h0v.3c.1,6.3,7.2,12.8,9.6,15.2,6.8-5.5,8.8-10.7,9.4-13.4v-.3a2.2,2.2,0,0,0,.1-.8h0A6.7,6.7,0,0,0,958.7,214.8Z" fill="#fff" />
      <text transform="translate(944.2 221.1)" font-size="9" font-family="Akrobat-Bold, Akrobat" font-weight="700">2.8</text>
    </g>
    <g id="pin-2-9">
      <path d="M983.4,238.6a9.6,9.6,0,0,0-19.2-.2h0v.2h0v.3c.1,6.3,7.2,12.8,9.6,15.2,6.8-5.5,8.8-10.7,9.4-13.4v-.3a2.2,2.2,0,0,0,.1-.8h0A6.7,6.7,0,0,0,983.4,238.6Z" fill="#fff" />
      <text transform="translate(969 244.9)" font-size="9" font-family="Akrobat-Bold, Akrobat" font-weight="700">2.9</text>
    </g>
    <g id="pin-2-10">
      <path d="M950.8,250.1a9.6,9.6,0,0,0-19.1-.2h-.1v.3c.1,6.2,7.1,12.8,9.5,15.1,6.9-5.5,8.8-10.6,9.4-13.4v-.2c0-.3.1-.6.1-.8h0A2.4,2.4,0,0,0,950.8,250.1Z" fill="#fff" />
      <text transform="translate(935.4 256.4)" font-size="9" font-family="Akrobat-Bold, Akrobat" font-weight="700">2
        <tspan x="3.8" y="0" letter-spacing="-0.09em">.</tspan>
        <tspan x="4.7" y="0">10</tspan>
      </text>
    </g>
    <g id="pin-2-11">
      <path d="M970.3,278.1a9.6,9.6,0,0,0-19.2-.2h0v.3c.1,6.2,7.2,12.8,9.6,15.2,6.8-5.6,8.8-10.7,9.4-13.4v-.3a2.5,2.5,0,0,0,.1-.8h0A6.7,6.7,0,0,0,970.3,278.1Z" fill="#fff" />
      <text transform="translate(955.6 284.4)" font-size="9" font-family="Akrobat-Bold, Akrobat" font-weight="700">2
        <tspan x="3.8" y="0" letter-spacing="-0.09em">.</tspan>
        <tspan x="4.7" y="0">11</tspan>
      </text>
    </g>
    <g id="pin-2-12">
      <path d="M929.7,290.3a9.6,9.6,0,0,0-19.2-.2h0v.3c.1,6.2,7.1,12.8,9.6,15.2,6.8-5.6,8.8-10.7,9.3-13.4v-.3c0-.3.1-.6.1-.8h0A6.7,6.7,0,0,0,929.7,290.3Z" fill="#fff" />
      <text transform="translate(914.5 296.6)" font-size="9" font-family="Akrobat-Bold, Akrobat" font-weight="700">2
        <tspan x="3.8" y="0" letter-spacing="-0.09em">.</tspan>
        <tspan x="4.7" y="0">12</tspan>
      </text>
    </g>
    <g id="pin-2-13">
      <path d="M905.2,316.2a9.6,9.6,0,0,0-19.1-.2H886c0,.1.1.2.1.3.1,6.2,7.1,12.8,9.5,15.2,6.9-5.6,8.8-10.7,9.4-13.4,0-.1.1-.2.1-.3s.1-.6.1-.8h0A2.7,2.7,0,0,0,905.2,316.2Z" fill="#fff" />
      <text transform="translate(890.1 322.5)" font-size="9" font-family="Akrobat-Bold, Akrobat" font-weight="700">2
        <tspan x="3.8" y="0" letter-spacing="-0.09em">.</tspan>
        <tspan x="4.7" y="0">13</tspan>
      </text>
    </g>
  </g>
  <g id="pins-3">
    <g id="pin-3-1" class="pin-house-finish">
      <path d="M467.2,96.7a12,12,0,0,0-24-.2h0v.4c.2,7.8,9,16,12,18.9,8.5-6.9,11-13.3,11.7-16.7a.4.4,0,0,0,.1-.3,3.8,3.8,0,0,0,.1-1h0A11.6,11.6,0,0,0,467.2,96.7Z" fill="#fff" />
      <text transform="translate(449 101.6)" font-size="15" font-family="Akrobat-Bold, Akrobat" font-weight="700">3
        <tspan x="6.3" y="0" letter-spacing="-0.09em">.</tspan>
        <tspan x="7.9" y="0">1</tspan>
      </text>
    </g>
    <g id="pin-3-2" class="pin-house-finish">
      <path d="M637.5,98.7a12,12,0,0,0-23.9-.2h0v.4c.1,7.8,8.9,16,12,18.9,8.5-6.9,10.9-13.3,11.7-16.7V101a4.4,4.4,0,0,0,.2-1h0A4.5,4.5,0,0,0,637.5,98.7Z" fill="#fff" />
      <text transform="translate(617.8 103.6)" font-size="15" font-family="Akrobat-Bold, Akrobat" font-weight="700">3.2</text>
    </g>
    <g id="pin-3-3">
      <path d="M804.5,106.2a12,12,0,0,0-23.9-.2h0v.4c.1,7.8,8.9,16,12,18.9,8.5-6.9,10.9-13.3,11.7-16.7v-.3a4.4,4.4,0,0,0,.2-1h0A4.5,4.5,0,0,0,804.5,106.2Z" fill="#fff" />
      <text transform="translate(784.8 111.1)" font-size="15" font-family="Akrobat-Bold, Akrobat" font-weight="700">3.3</text>
    </g>
    <g id="pin-3-4">
      <path d="M787.7,173.7a12,12,0,0,0-23.9-.2h0v.4c.1,7.8,8.9,16,12,18.9,8.5-6.9,10.9-13.3,11.7-16.7V176a4.4,4.4,0,0,0,.2-1h0A4.5,4.5,0,0,0,787.7,173.7Z" fill="#fff" />
      <text transform="translate(768.4 178.6)" font-size="15" font-family="Akrobat-Bold, Akrobat" font-weight="700">3
        <tspan x="6.3" y="0" letter-spacing="-0.07em">.</tspan>
        <tspan x="8.2" y="0">4</tspan>
      </text>
    </g>
  </g>
  <g id="pins-4">
    <g id="pin-4-1">
      <path d="M737.3,210.9a12,12,0,0,0-23.9-.2h0v.4c.1,7.8,8.9,16,12,18.9,8.5-6.9,10.9-13.3,11.7-16.7v-.3a4.4,4.4,0,0,0,.2-1h0A4.5,4.5,0,0,0,737.3,210.9Z" fill="#fff" />
      <text transform="translate(719.1 215.8)" font-size="15" font-family="Akrobat-Bold, Akrobat" font-weight="700">4
        <tspan x="6.5" y="0" letter-spacing="-0.09em">.</tspan>
        <tspan x="8" y="0">1</tspan>
      </text>
    </g>
    <g id="pin-4-2">
      <path d="M634.4,296.4a12,12,0,0,0-23.9-.2h0v.4c.1,7.8,8.9,16,12,18.9,8.5-6.9,10.9-13.3,11.7-16.7v-.3a4.4,4.4,0,0,0,.2-1h0A4.5,4.5,0,0,0,634.4,296.4Z" fill="#fff" />
      <text transform="translate(614.6 301.3)" font-size="15" font-family="Akrobat-Bold, Akrobat" font-weight="700">4.2</text>
    </g>
    <g id="pin-4-3" class="pin-house-finish">
      <path d="M410.6,235.7a12,12,0,0,0-23.9-.2h0v.4c.1,7.8,8.9,16,12,18.9,8.5-6.9,10.9-13.3,11.7-16.7V238a4.4,4.4,0,0,0,.2-1h0A4.5,4.5,0,0,0,410.6,235.7Z" fill="#fff" />
      <text transform="translate(390.8 240.6)" font-size="15" font-family="Akrobat-Bold, Akrobat" font-weight="700">4.3</text>
    </g>
    <g id="pin-4-4" class="pin-house-finish">
      <path d="M441.2,144.8a12,12,0,0,0-23.9-.2h0v.4c.1,7.8,8.9,16,12,18.9,8.5-6.9,10.9-13.3,11.7-16.7v-.3a4.4,4.4,0,0,0,.2-1h0A4.5,4.5,0,0,0,441.2,144.8Z" fill="#fff" />
      <text transform="translate(421.8 149.7)" font-size="15" font-family="Akrobat-Bold, Akrobat" font-weight="700">4
        <tspan x="6.5" y="0" letter-spacing="-0.07em">.</tspan>
        <tspan x="8.3" y="0">4</tspan>
      </text>
    </g>
  </g>
  <g id="pin-5" class="pin-house-finish" data-name="pin-5">
    <path d="M881.9,441.5a12,12,0,0,0-24-.3h0v.2h0v.4c.2,7.8,9,16,12,18.9,8.5-6.9,11-13.3,11.7-16.7a.6.6,0,0,0,.1-.4c.1-.3.1-.7.2-1h0Z" fill="#fff" />
    <text transform="translate(866.7 446.4)" font-size="15" font-family="Akrobat-Bold, Akrobat" font-weight="700">5</text>
  </g>
  <g id="pin-6" data-name="pin-6">
    <path d="M488.9,349.2a12,12,0,0,0-24-.3h0v.2h0v.3c.2,7.8,9,16,12,19,8.5-6.9,11-13.3,11.7-16.8a.4.4,0,0,0,.1-.3c.1-.4.1-.7.2-1h0Z" fill="#fff" />
    <text transform="translate(473.6 354)" font-size="15" font-family="Akrobat-Bold, Akrobat" font-weight="700">6</text>
  </g>
</svg>
