<svg xmlns="http://www.w3.org/2000/svg" viewBox="0 0 512 512">
  <path d="M36.4 53.3l35.1-35.1a10.7 10.7 0 0 0-15-15L13.7 45.7c-4.2 4.1-4.2 11 0 15l42.6 42.7a10.7 10.7 0 0 0 15.1 0c4.2-4.1 4.2-11 0-15l-35-35.2zM498.2 45.8L455.5 3a10.7 10.7 0 0 0-15 15.1l35 35.1-35 35.2a10.7 10.7 0 0 0 15 15L498.2 61c4.2-4.2 4.2-11 0-15.1z"/>
  <path d="M490.7 42.7h-128a10.7 10.7 0 0 0 0 21.3h128a10.7 10.7 0 0 0 0-21.3zM149.3 42.7h-128a10.7 10.7 0 0 0 0 21.3h128a10.7 10.7 0 0 0 0-21.3zM416 234.7c-8.8 0-17 2.6-23.7 7.2a42.8 42.8 0 0 0-61.6-22.8V106.7a42.7 42.7 0 0 0-83-14.2 42.7 42.7 0 0 0-66.4 35.5v181.3l-37-27.8a56 56 0 0 0-72.8 5.2 32 32 0 0 0 0 45.2l152 152a95.4 95.4 0 0 0 67.8 28h50c64.7 0 117.4-52.5 117.4-117.2V277.3a42.7 42.7 0 0 0-42.7-42.6zm21.3 160c0 52.9-43 96-96 96h-50a74 74 0 0 1-52.7-22l-152-151.9c-4.1-4.1-4.1-10.9 0-15a34.3 34.3 0 0 1 44.9-3.2l54 40.6a10.7 10.7 0 0 0 17.2-8.6V128a21.4 21.4 0 0 1 42.6 0v160a10.7 10.7 0 0 0 21.4 0V106.7a21.4 21.4 0 0 1 42.6 0V288a10.7 10.7 0 0 0 21.4 0v-32a21.4 21.4 0 0 1 42.6 0v32a10.7 10.7 0 0 0 21.4 0v-10.7a21.4 21.4 0 0 1 42.6 0v117.4z"/>
</svg>
