<svg xmlns="http://www.w3.org/2000/svg" xmlns:xlink="http://www.w3.org/1999/xlink"><symbol id="00" viewBox="0 0 184.3 227.1">
  <path fill="#00823C" fill-rule="evenodd" d="M68.2 120.3l40.9 13.3-30.4 93.5-17.8-14.6-23.1 1.3 30.4-93.5z"/>
  <path fill="#00823C" fill-rule="evenodd" d="M75.2 133.6l40.9-13.3 30.4 93.5-23.1-1.3-17.9 14.6-30.3-93.5z"/>
  <path fill="#00823C" fill-rule="evenodd" d="M92.1 0A92.1 92.1 0 1 1 0 92.1 92.1 92.1 0 0 1 92.1 0z"/>
  <path fill="#fff" fill-rule="evenodd" d="M48.4 112.1l-2.4-5.8-2.4 5.8zm-4.2-10.6h3.7l7.6 18.2h-4.1l-1.6-4h-7.6l-1.6 4h-4.1l7.7-18.2zM52.9 101.5h4.3l3.7 12.3 4-12.3h3.4l4 12.3 3.7-12.3h4.2L74 119.7h-3.4l-4.1-11.8-4 11.8h-3.4l-6.2-18.2zM89.4 112.1l-2.4-5.8-2.4 5.8zm-4.2-10.6h3.7l7.7 18.2h-4.2l-1.6-4h-7.6l-1.6 4h-4l7.6-18.2zM106 110.3c1.9 0 3-1.1 3-2.6s-1.2-2.6-3.1-2.6H102v5.2zm-7.9-8.8h8.2a7.1 7.1 0 0 1 5.2 1.8 5.7 5.7 0 0 1 1.5 4.2 5.5 5.5 0 0 1-3.8 5.6l4.4 6.6H109l-4-5.9h-3v5.9h-3.9v-18.2zM122.8 116.1a5.2 5.2 0 0 0 5.4-5.5 5.2 5.2 0 0 0-5.4-5.5h-3.1v11zm-7-14.6h7c5.7 0 9.6 3.9 9.6 9.1s-3.9 9.1-9.6 9.1h-7v-18.2zM133.5 117l2.3-2.8a8.4 8.4 0 0 0 5.4 2.2c1.6 0 2.6-.7 2.6-1.8s-.7-1.5-3.7-2.3-5.9-1.9-5.9-5.6 2.6-5.4 6.3-5.4a10 10 0 0 1 6.6 2.3l-2 3a8.7 8.7 0 0 0-4.7-1.8c-1.5 0-2.3.7-2.3 1.6s.8 1.6 3.9 2.4 5.7 2.3 5.7 5.5-2.7 5.6-6.6 5.6a11 11 0 0 1-7.6-2.9zM36.7 88.6v-13h4.9v12.8c0 3.7 1.9 5.6 4.9 5.6s4.8-1.8 4.8-5.4v-13h5v12.8c0 6.9-3.9 10.2-9.9 10.2s-9.7-3.4-9.7-10zM70 86.6c2.4 0 3.8-1.3 3.8-3.3s-1.5-3.2-3.9-3.2H65v6.5zm-10-11h10.3a9 9 0 0 1 6.6 2.3 7.4 7.4 0 0 1 1.9 5.2 7.2 7.2 0 0 1-4.8 7.1l5.5 8.1h-5.8L68.8 91H65v7.3h-5V75.6zM93.1 93.9c2.2 0 3.5-.8 3.5-2.5s-1.2-2.5-3.7-2.5h-5.7v5zm-1.3-9.1c2.1 0 3.5-.7 3.5-2.5S94.2 80 92.1 80h-4.9v4.8zm-9.4-9.2h10.4a8.1 8.1 0 0 1 5.9 2 5.3 5.3 0 0 1 1.5 3.9 5.2 5.2 0 0 1-2.9 4.9c2.6 1 4.2 2.5 4.2 5.7s-3.4 6.2-8.4 6.2H82.4V75.6zM127.7 75.6h4.5l10.5 14v-14h4.9v22.7h-4.2l-10.9-14.4v14.4h-4.8V75.6zM116.7 88.9l-3-7.3-3 7.3zm-5.2-13.3h4.6l9.5 22.7h-5.1l-2-4.9H109l-2 4.9h-5.1l9.6-22.7z"/>
  <path fill="#fff" d="M53.6 66.5v-1.1c-3.1 0-5-1.9-5-4.4s1.9-4.4 5-4.4v-.9h2.2v.9c3 0 4.9 1.9 4.9 4.4s-1.8 4.4-4.9 4.4v1.1zm0-7.9a2.4 2.4 0 0 0-2.7 2.4 2.5 2.5 0 0 0 2.7 2.5zm2.2 4.9a2.5 2.5 0 0 0 2.7-2.5 2.4 2.4 0 0 0-2.7-2.4zM71.3 66.1h-2.2v-6.6l-4.3 6.6h-2.1v-10h2.2v6.6l4.4-6.6h2zM73.9 56.1h2.2v4h4v-4h2.2v10h-2.2v-4h-4v4h-2.2zM87.8 56h2l4.3 10.1h-2.3l-.9-2.2h-4.3l-.9 2.2h-2.2zm2.3 5.9l-1.3-3.2-1.4 3.2zM104 56.1v10h-2.2v-8h-2.9v.7c0 5.9-1 7.5-3.3 7.5l-1.1-.2v-1.8h.4c1.2 0 1.8-.7 1.8-6.1v-2.1zM115.2 66.1H113v-6.6l-4.4 6.6h-2.1v-10h2.2v6.6l4.4-6.6h2.1zM116.9 61.1a5.2 5.2 0 0 1 5.3-5.2 4.7 4.7 0 0 1 3.8 1.7l-1.3 1.5a3.5 3.5 0 0 0-2.6-1.1 3 3 0 0 0-2.9 3.1 3 3 0 0 0 2.9 3.2 3.8 3.8 0 0 0 2.7-1.2l1.4 1.5a5.2 5.2 0 0 1-4.1 1.7 5.1 5.1 0 0 1-5.2-5.2zM130.4 58.1h-3v-2h8.3v2h-3.1v8h-2.2zM64.6 140.4l6.7-5.9c2.8-2.5 3.8-3.9 3.8-5.8a3.5 3.5 0 0 0-3.7-3.5c-2.1 0-3.5 1.1-4.9 3.2l-1.6-1.2c1.7-2.4 3.4-3.9 6.7-3.9s5.7 2.2 5.7 5.3-1.4 4.3-4.7 7.2l-4.9 4.4h9.8v1.9H64.6zM80.3 132.8c0-5.2 3.1-9.5 7.8-9.5s7.8 4.3 7.8 9.5-3.1 9.6-7.8 9.6-7.8-4.4-7.8-9.6zm13.4 0c0-4-2.2-7.6-5.6-7.6s-5.7 3.5-5.7 7.6 2.2 7.7 5.7 7.7 5.6-3.6 5.6-7.7zM101.5 125.6l-3.5 1.1-.5-1.7 4.5-1.6h1.6v18.7h-2.1zM117.3 125.5h-10.2v-1.9h12.6v1.5l-8.4 17H109z"/>
</symbol><symbol id="3d" viewBox="0 0 48 48"><path fill="none" d="M0 0h48v48H0z"/><path d="M15 43A21 21 0 0 1 3.1 26h-3A24 24 0 0 0 24 48h1.3l-7.6-7.7L15 43zm1.8-13a3 3 0 0 1-1-.3c-.4 0-.6-.2-.8-.4a2 2 0 0 1-.6-.8l-.1-.9h-2.6c0 .7.1 1.4.4 2 .3.5.6 1 1.1 1.3l1.6.8a7 7 0 0 0 4 0c.7-.2 1.2-.5 1.7-.9s.8-.9 1.1-1.4a4.7 4.7 0 0 0 .3-3.1l-.5-1-.8-.9-1.2-.6a4.3 4.3 0 0 0 1.8-1.5l.5-1 .1-.9c0-.7-.1-1.3-.4-1.9-.2-.5-.5-1-1-1.4l-1.6-.8a6.8 6.8 0 0 0-4 0c-.6.2-1.2.5-1.6 1-.4.3-.8.7-1 1.3-.3.5-.4 1-.4 1.7h2.6c0-.4 0-.7.2-1l.5-.6.7-.5a3 3 0 0 1 1-.1c.8 0 1.4.2 1.8.6.4.4.6 1 .6 1.7 0 .4 0 .7-.2 1a2 2 0 0 1-.5.7c-.2.3-.5.4-.8.5-.3.2-.7.2-1.2.2H15v2h1.5l1.2.2 1 .5.5.8.2 1.1c0 .8-.2 1.5-.7 1.9-.5.4-1 .6-1.9.6zM34 18a6.5 6.5 0 0 0-2.2-1.5c-1-.3-1.9-.5-3-.5H24v16h4.6c1.1 0 2.1-.2 3-.5a6.5 6.5 0 0 0 3.8-4c.4-.9.5-2 .5-3.1v-.8a9 9 0 0 0-.5-3.1 7 7 0 0 0-1.5-2.4zm-.8 6.4c0 .8 0 1.6-.3 2.3a3.8 3.8 0 0 1-2.3 2.8 5 5 0 0 1-2 .3h-1.7V18.2h2c1.4 0 2.5.5 3.2 1.4.8 1 1.2 2.3 1.2 4v.8zM24 0h-1.3l7.6 7.7L33 5a21 21 0 0 1 11.9 17h3A24 24 0 0 0 24 0z"/></symbol><symbol id="baseline-view_module-24px" viewBox="0 0 24 24">
  <path d="M4 11h5V5H4v6zm0 7h5v-6H4v6zm6 0h5v-6h-5v6zm6 0h5v-6h-5v6zm-6-7h5V5h-5v6zm6-6v6h5V5h-5z"/>
  <path fill="none" d="M0 0h24v24H0z"/>
</symbol><symbol id="baseline-view_stream-24px" viewBox="0 0 24 24">
  <path d="M4 18h17v-6H4v6zM4 5v6h17V5H4z"/>
  <path fill="none" d="M0 0h24v24H0z"/>
</symbol><symbol id="facebook" viewBox="0 0 310 310">
  <path d="M81.7 165.1h34V305a5 5 0 0 0 5 5h57.6a5 5 0 0 0 5-5V165.8h39a5 5 0 0 0 5-4.5l6-51.5a5 5 0 0 0-5-5.5h-45V72c0-9.8 5.2-14.7 15.6-14.7h29.4a5 5 0 0 0 5-5V5a5 5 0 0 0-5-5h-42.4c-7 0-31.5 1.4-50.8 19.2a53.3 53.3 0 0 0-17.7 47.3v37.8H81.7a5 5 0 0 0-5 5V160a5 5 0 0 0 5 5z"/>
</symbol><symbol id="favorite" viewBox="0 0 455 455">
  <path d="M326.6 10.3c-38.7 0-75 17.6-99.1 47A128.4 128.4 0 0 0 0 138.7c0 55.4 33 119.5 98.2 190.6a946 946 0 0 0 120.3 108.6l9 6.8 9-6.8a946 946 0 0 0 120.3-108.6c65.1-71 98.2-135.2 98.2-190.6C455 68 397.4 10.3 326.6 10.3z"/>
</symbol><symbol id="feat-00" viewBox="0 0 184.3 227.1">
  <path fill="#00823C" fill-rule="evenodd" d="M68.2 120.3l40.9 13.3-30.4 93.5-17.8-14.6-23.1 1.3 30.4-93.5z"/>
  <path fill="#00823C" fill-rule="evenodd" d="M75.2 133.6l40.9-13.3 30.4 93.5-23.1-1.3-17.9 14.6-30.3-93.5z"/>
  <path fill="#00823C" fill-rule="evenodd" d="M92.1 0A92.1 92.1 0 1 1 0 92.1 92.1 92.1 0 0 1 92.1 0z"/>
  <path fill="#fff" fill-rule="evenodd" d="M48.4 112.1l-2.4-5.8-2.4 5.8zm-4.2-10.6h3.7l7.6 18.2h-4.1l-1.6-4h-7.6l-1.6 4h-4.1l7.7-18.2zm8.7 0h4.3l3.7 12.3 4-12.3h3.4l4 12.3 3.7-12.3h4.2L74 119.7h-3.4l-4.1-11.8-4 11.8h-3.4l-6.2-18.2zm36.5 10.6l-2.4-5.8-2.4 5.8zm-4.2-10.6h3.7l7.7 18.2h-4.2l-1.6-4h-7.6l-1.6 4h-4l7.6-18.2zm20.8 8.8c1.9 0 3-1.1 3-2.6s-1.2-2.6-3.1-2.6H102v5.2zm-7.9-8.8h8.2a7.1 7.1 0 0 1 5.2 1.8 5.7 5.7 0 0 1 1.5 4.2 5.5 5.5 0 0 1-3.8 5.6l4.4 6.6H109l-4-5.9h-3v5.9h-3.9v-18.2zm24.7 14.6a5.2 5.2 0 0 0 5.4-5.5 5.2 5.2 0 0 0-5.4-5.5h-3.1v11zm-7-14.6h7c5.7 0 9.6 3.9 9.6 9.1s-3.9 9.1-9.6 9.1h-7v-18.2zm17.7 15.5l2.3-2.8a8.4 8.4 0 0 0 5.4 2.2c1.6 0 2.6-.7 2.6-1.8s-.7-1.5-3.7-2.3-5.9-1.9-5.9-5.6 2.6-5.4 6.3-5.4a10 10 0 0 1 6.6 2.3l-2 3a8.7 8.7 0 0 0-4.7-1.8c-1.5 0-2.3.7-2.3 1.6s.8 1.6 3.9 2.4 5.7 2.3 5.7 5.5-2.7 5.6-6.6 5.6a11 11 0 0 1-7.6-2.9zM36.7 88.6v-13h4.9v12.8c0 3.7 1.9 5.6 4.9 5.6s4.8-1.8 4.8-5.4v-13h5v12.8c0 6.9-3.9 10.2-9.9 10.2s-9.7-3.4-9.7-10zm33.3-2c2.4 0 3.8-1.3 3.8-3.3s-1.5-3.2-3.9-3.2H65v6.5zm-10-11h10.3a9 9 0 0 1 6.6 2.3 7.4 7.4 0 0 1 1.9 5.2 7.2 7.2 0 0 1-4.8 7.1l5.5 8.1h-5.8L68.8 91H65v7.3h-5V75.6zm33.1 18.3c2.2 0 3.5-.8 3.5-2.5s-1.2-2.5-3.7-2.5h-5.7v5zm-1.3-9.1c2.1 0 3.5-.7 3.5-2.5S94.2 80 92.1 80h-4.9v4.8zm-9.4-9.2h10.4a8.1 8.1 0 0 1 5.9 2 5.3 5.3 0 0 1 1.5 3.9 5.2 5.2 0 0 1-2.9 4.9c2.6 1 4.2 2.5 4.2 5.7s-3.4 6.2-8.4 6.2H82.4V75.6zm45.3 0h4.5l10.5 14v-14h4.9v22.7h-4.2l-10.9-14.4v14.4h-4.8V75.6zm-11 13.3l-3-7.3-3 7.3zm-5.2-13.3h4.6l9.5 22.7h-5.1l-2-4.9H109l-2 4.9h-5.1l9.6-22.7z"/>
  <path fill="#fff" d="M53.6 66.5v-1.1c-3.1 0-5-1.9-5-4.4s1.9-4.4 5-4.4v-.9h2.2v.9c3 0 4.9 1.9 4.9 4.4s-1.8 4.4-4.9 4.4v1.1zm0-7.9a2.4 2.4 0 0 0-2.7 2.4 2.5 2.5 0 0 0 2.7 2.5zm2.2 4.9a2.5 2.5 0 0 0 2.7-2.5 2.4 2.4 0 0 0-2.7-2.4zm15.5 2.6h-2.2v-6.6l-4.3 6.6h-2.1v-10h2.2v6.6l4.4-6.6h2zm2.6-10h2.2v4h4v-4h2.2v10h-2.2v-4h-4v4h-2.2zm13.9-.1h2l4.3 10.1h-2.3l-.9-2.2h-4.3l-.9 2.2h-2.2zm2.3 5.9l-1.3-3.2-1.4 3.2zm13.9-5.8v10h-2.2v-8h-2.9v.7c0 5.9-1 7.5-3.3 7.5l-1.1-.2v-1.8h.4c1.2 0 1.8-.7 1.8-6.1v-2.1zm11.2 10H113v-6.6l-4.4 6.6h-2.1v-10h2.2v6.6l4.4-6.6h2.1zm1.7-5a5.2 5.2 0 0 1 5.3-5.2 4.7 4.7 0 0 1 3.8 1.7l-1.3 1.5a3.5 3.5 0 0 0-2.6-1.1 3 3 0 0 0-2.9 3.1 3 3 0 0 0 2.9 3.2 3.8 3.8 0 0 0 2.7-1.2l1.4 1.5a5.2 5.2 0 0 1-4.1 1.7 5.1 5.1 0 0 1-5.2-5.2zm13.5-3h-3v-2h8.3v2h-3.1v8h-2.2zm-65.8 82.3l6.7-5.9c2.8-2.5 3.8-3.9 3.8-5.8a3.5 3.5 0 0 0-3.7-3.5c-2.1 0-3.5 1.1-4.9 3.2l-1.6-1.2c1.7-2.4 3.4-3.9 6.7-3.9s5.7 2.2 5.7 5.3-1.4 4.3-4.7 7.2l-4.9 4.4h9.8v1.9H64.6zm15.7-7.6c0-5.2 3.1-9.5 7.8-9.5s7.8 4.3 7.8 9.5-3.1 9.6-7.8 9.6-7.8-4.4-7.8-9.6zm13.4 0c0-4-2.2-7.6-5.6-7.6s-5.7 3.5-5.7 7.6 2.2 7.7 5.7 7.7 5.6-3.6 5.6-7.7zm7.8-7.2l-3.5 1.1-.5-1.7 4.5-1.6h1.6v18.7h-2.1zm15.8-.1h-10.2v-1.9h12.6v1.5l-8.4 17H109z"/>
</symbol><symbol id="feat-01" viewBox="0 0 60.4 62.3">
  <path fill="#097F43" fill-rule="nonzero" d="M5 10.3h42a5 5 0 0 1 5 5v42a5 5 0 0 1-5 5H5a5 5 0 0 1-5-5v-42a5 5 0 0 1 1.5-3.6A5 5 0 0 1 5 10.3zm42 3.3H5c-.4 0-.8.2-1.1.5-.4.3-.5.7-.5 1.2v42c0 .4.1.9.5 1.2.3.3.7.5 1.2.5h42c.4 0 .8-.2 1.1-.5.3-.3.5-.8.5-1.2v-42a1.7 1.7 0 0 0-1.7-1.7z"/>
  <path fill="#097F43" d="M9.6 48.8c-1-.7-2-2.5-3-2.5-.6 0-1 .6-1 1.3v8c0 .6.5 1.1 1.3 1.1h7.8c.7 0 1.3-.3 1.3-1 0-1-1.7-2-2.5-3 .5-.7 2-2 2.7-2.7l5.4-5.4c1-1 2.2-1.8 2.2-3.5 0-1.4-1.2-2.6-2.8-2.6-1.4 0-2.5 1.4-3.2 2.2L12.4 46c-.7.7-2.1 2.3-2.8 2.7zM38.5 20.1c-.3.5-1 1.2-1.6 1.7-1.3 1.4-7.9 7.7-8.3 8.6-1 2 .8 3.9 2.3 3.9 1.6 0 2.5-1.3 3.3-2.1l2.7-2.7c.9-.9 5-5.1 5.6-5.5.5.4 2.2 2.5 2.8 2.5.6 0 1.2-.4 1.2-1v-8.3c0-.8-.6-1.1-1.3-1.1h-7.8c-1.5 0-1.6 1.2-.8 2l2 2zM38.5 52.7c-.7 1-3.4 2.6-2 3.7.2.2.5.3.9.3h7.8c.8 0 1.3-.4 1.3-1.3v-8c0-.6-.5-1-1.1-1-1 0-1.9 1.7-3 2.4l-8-8c-1.1-1.1-1.8-2.3-3.5-2.3-1.8 0-3.1 2-2.3 3.9.4 1 9.3 9.3 10 10.3zM5.6 17.4v7.8c0 .7.4 1.3 1 1.3.7 0 1.3-.8 1.7-1.2.4-.4.8-1 1.3-1.3 1 .6 9.2 9.4 10.3 10 1.6.8 3.9-.2 3.9-2.6 0-1.3-1.4-2.4-2.2-3.1-1-1-7.7-7.6-8-8.2.7-1 2.4-2 2.4-3 0-.7-.6-1-1.3-1H7c-.9 0-1.3.4-1.3 1.3z"/>
  <path fill="#966D45" fill-rule="nonzero" d="M56.4 14.3c2.5 0 4-1.8 4-3.8 0-4.3-5.8-4.3-5.8-7 0-1 .6-1.6 1.8-1.6 1 0 1.7.6 1.8 2h2c0-2.4-1.5-3.9-3.9-3.9-2.3 0-3.7 1.5-3.7 3.5 0 4 5.7 4.2 5.7 7 0 1-.6 1.9-2 1.9-1.2 0-2-.7-2-2.1h-2c0 2.5 1.6 4 4 4z"/>
</symbol><symbol id="feat-02" viewBox="0 0 52 42.5">
  <g fill="#00823C" fill-rule="nonzero">
    <path d="M29.3 31.3c-.9.5-2 .9-3.3.9-1.2 0-2.4-.4-3.3-1L7.6 22s-1.4-.8-1.4 1v9.3c0 4.9 8.9 10.2 19.8 10.2 11 0 19.8-5.3 19.8-10.2v-9.8c0-1.5-1-.7-1-.7l-15.5 9.5z"/>
    <path d="M51.1 14.6c1.2-.7 1.2-1.8 0-2.5L28.1.5a4 4 0 0 0-2-.5H26a4 4 0 0 0-2.1.5L.9 12.1c-1.2.7-1.2 1.8 0 2.5l23 14.2c1.2.7 3 .7 4.2 0l23-14.2zM50.2 35.6V20s0-.8-.5-.5l-1.5 1c-.3.2-.2.9-.2.9v14.2c0 .2-.2.3-.3.3a2.7 2.7 0 1 0 2.7 0s-.2-.1-.2-.3z"/>
  </g>
  <path fill="#FEFEFE" d="M49 38.2h.1zM48 13.4L26.8 2.8l-.8-.2c-.2 0-.6 0-.7.2h-.1L4 13.4l21.3 13.1a2 2 0 0 0 1.4 0l21.3-13z"/>
  <path fill="#FEFEFE" d="M8.8 25.9v6.4c0 1.9 3 3.9 4.4 4.6 3.8 2 8.5 3 12.8 3 4.3 0 9-1 12.8-3 1.3-.7 4.4-2.7 4.4-4.6V26l-12.5 7.6a9 9 0 0 1-4.7 1.3c-1.6 0-3.3-.4-4.7-1.3L8.8 26z"/>
</symbol><symbol id="feat-03" viewBox="0 0 49.5 38">
  <g fill="#00823C" fill-rule="nonzero">
    <path d="M17.9 25.3h2.5c.2 0 .4.2.4.4V28c0 .2-.2.4-.4.4h-2.5a.4.4 0 0 1-.5-.4v-2.2c0-.2.2-.4.5-.4zM12.5 23.9c-.1-.1-.1-.3 0-.4l2.6-4h-.8c-.2 0-.3 0-.4-.2V19l2.8-3.9h-.9c-.2 0-.3 0-.4-.2l.1-.4 3.3-4.4c0-.2.2-.2.3-.2.2 0 .3 0 .4.2l3.3 4.4v.4c0 .2-.2.2-.3.2h-.9l2.7 4v.3c0 .2-.2.2-.4.2h-.8l2.7 4v.4l-.4.2H12.8c-.1 0-.3 0-.3-.2zM10.2 25.8h2c.2 0 .4.2.4.4V28c0 .2-.2.4-.4.4h-2a.4.4 0 0 1-.4-.4v-1.7c0-.2.2-.4.4-.4zM5.8 24.3l2-3.1h-.4c-.2 0-.3 0-.4-.2v-.4l2.1-3h-.5c-.3 0-.4-.2-.4-.2V17l2.6-3.5c.1-.2.3-.2.4-.2.1 0 .3 0 .4.2l1 1.5c.2.2.2.5 0 .7l-.6.9h1c.1 0 .3 0 .3.2v.4l-2.7 3.9h.9c.2 0 .3 0 .4.2v.4l-2 2.9-.6.3H6.2l-.4-.2v-.4zM31.4 26h-1.8c-.2 0-.4.1-.4.4v1.4c0 .3.2.5.4.5h1.8c.2 0 .4-.2.4-.5v-1.4c0-.3-.2-.5-.4-.5zM39.3 26h-1.8c-.2 0-.4.1-.4.4v1.4c0 .3.2.5.4.5h1.8c.2 0 .4-.2.4-.5v-1.4c0-.3-.2-.5-.4-.5zM42.5 21.2l.1-.7c0-.7-.4-1.4-1-1.5l.1-.7c0-.9-.5-1.6-1.3-1.6v-.4a2 2 0 0 0-3.3-1.5l-.2.5.1.6.3.4c.6.7.9 1.5 1 2.3l.1.4a4 4 0 0 1 1.5 3.2c0 .6 0 1.1-.3 1.6 0 0-.1.2 0 .4l.4.2h2.5c.7 0 1.3-.7 1.3-1.6 0-.8-.6-1.5-1.3-1.6zM38.2 22.2c0-1.2-.8-2.2-1.8-2.2h-.1l.2-1c0-1.1-.7-2-1.6-2.2.2-.3.3-.7.3-1.1 0-1.2-.8-2.1-1.8-2.1h-.3l.1-.8a2.7 2.7 0 1 0-5.3.8h-.2c-1 0-1.8.8-1.9 2 .2.1.2.3.1.4v.1l.2.7c-.3 0-.5.2-.8.4l2 2.9c.2.1.2.3.1.4l-.3.2h-.9l2.5 3.7h7.7c1 0 1.8-1 1.8-2.2z"/>
    <path d="M47.5 35.5V2.6A88.8 88.8 0 0 1 2 2.6v32.9a87.2 87.2 0 0 1 45.5 0zm2 1c-.2.3-.4.8-.8 1.1-.5.6-1.2.5-1.9.3a69.1 69.1 0 0 0-44 0c-1.6.5-2.8-.4-2.8-2V2.1C0 .5 1.3-.4 2.8.1c11 4.7 33 5.1 44 .1 1.1-.6 2.5.1 2.7 1.4v34.8z"/>
  </g>
</symbol><symbol id="feat-04" viewBox="0 0 47.1 34.7">
  <g fill="#00823C">
    <path d="M5 24H1.8V10.7H5v13.5zm40.4 0H42V10.7h3.4v13.5zM22.7 13.3v8.2c-2.7-.6-3.9-3-3-5.6 0-.5.4-1 .8-1.4h.1l.2-.2c.6-.6 1-.7 1.9-1zm4.7 5.8v.2c-.3.7-1.3 1.7-2 2 0 .1 0 0-.2 0l-.8.2v-8.2a3.8 3.8 0 0 1 2.2 1.3c.8.8 1 1.3 1.1 2.5.1.7-.2 1.4-.3 2zm-19-1.7c0 .5-.2 1-.5 1.3-.3.3-.7.4-1.2.4v-3.3c1 0 1.7.6 1.7 1.6zm32-1.6V19c-2-.1-2-2.1-1.3-2.9.3-.3.7-.4 1.2-.4zm-33.7 5c2 0 3.4-1.8 3.4-3V17c0-1.2-1.5-3-3.4-3V9h-5V1.6h21v9.6c0 .4-.5.1-1.8.8-.7.4-1 .6-1.5 1.2a5.7 5.7 0 0 0 0 8 6 6 0 0 0 2.4 1.7c.4.1.9 0 .9.4V33h-21v-7.2h5v-5zM45.4 33h-21v-9.6c0-.4.5-.1 1.8-.8 1.6-.8 3.2-2.8 3.2-5 0-1.9-.4-3-1.6-4.3a5.8 5.8 0 0 0-2.5-1.6c-.5-.1-1 0-1-.5V1.7h21v7.2h-5v5C38.4 14 37 15.9 37 17v.7c0 1.2 1.4 3 3.3 3v5h5.1V33zm1.7-33H0v34.7h47V0zM28.3 15.3l-.1-.2.1.2z"/>
    <path d="M25.8 12.7c0-.2 0-.1-.2-.1 0 .2 0 .1.2.1z"/>
  </g>
</symbol><symbol id="feat-05" viewBox="0 0 61.4 42.3">
  <g fill="#00823C" fill-rule="nonzero">
    <path d="M3.5 0h54.3a3.5 3.5 0 0 1 3.6 3.5V10a3.6 3.6 0 0 1-3.6 3.5H3.5A3.6 3.6 0 0 1 0 10V3.6A3.6 3.6 0 0 1 3.5 0zm54.3 1.7H3.5c-.5 0-1 .2-1.3.5-.3.4-.5.8-.5 1.4V10c0 .5.2 1 .5 1.3.4.3.8.5 1.3.5h54.3c.5 0 1-.2 1.3-.5.4-.4.6-.8.6-1.3V3.6c0-.6-.2-1-.6-1.4-.3-.3-.8-.5-1.3-.5z"/>
    <path d="M7.8 11.8H13v26H7v-26h.8zm3.6 1.7H8.6v22.7h2.7V13.5z"/>
    <path d="M4.2 41.5V40a3.7 3.7 0 0 1 3.6-3.7H12a3.7 3.7 0 0 1 3.7 3.7v2.3H4.2v-.8zM5.9 40v.7h8V40c0-.6-.2-1-.5-1.4A2 2 0 0 0 12 38H7.8a2 2 0 0 0-1.3.6 2 2 0 0 0-.6 1.4zM49.3 11.8h5.3v26h-6.1v-26h.8zm3.6 1.7h-2.7v22.7h2.7V13.5z"/>
    <path d="M45.7 41.5V40c0-1 .4-2 1.1-2.6.7-.7 1.6-1.1 2.6-1.1h4.1a3.7 3.7 0 0 1 3.7 3.7v2.3H45.7v-.8zm1.7-1.5v.7h8.1V40c0-.6-.2-1-.6-1.4a2 2 0 0 0-1.4-.6h-4.1a2 2 0 0 0-2 2zM.7 10.8L9.6.2l1.3 1-9 10.7zM10 11.8L20 .2l1.3 1L11.3 13zM20.3 11.8L30.1.2l1.3 1L21.6 13zM30.6 11.8L40.4.2l1.3 1L32 13zM40.9 11.8L50.7.2l1.3 1L42 13zM51.1 12.6l9-10.6 1.3 1-9 10.7z"/>
  </g>
</symbol><symbol id="feat-06" viewBox="0 0 51.6 44.9">
  <g fill="#00823C">
    <path d="M35.2 14.5c0 1.1.1.6.2 1.2-1.2.3-1.5 2.7.8 2.7.5 0 .4-.1.8-.2v5H34v-3h.9l-1.5-1.8-1.4-1.7-.5.6-.3.3-.7.8-1.4 1.8h.9v3H19.5c-2.8 0-3.1 4.3.3 4.3v15.2c0 3 3.4 2.5 3.4.6V27.5H46v15.2c0 3 3.4 2.5 3.4.6V27.5c3 0 2.8-4.2.1-4.2h-2.8V20c2.2 1.1 3.5-1.5 1.5-2.5.2-.7.5-.8.1-1.5-.2-.5-.6-.9-1.3-.9-.7 0-.8.2-1.2.5-.5-.4-1.3-.9-2.2 0-.7.5-.6 1.2-.2 1.9-2 1-.8 2.8.5 2.8.6 0 .6-.2 1-.3v3.3h-6.2V18c1.3.7 2.5.3 2.5-1.3 0-.7-.6-.9-.9-1.2.1-.4.8-1.8-.8-2.3h-.9c-.5.1-.3.3-.8.4-.3-.2-.7-.6-1.6-.4-.4.1-1 .7-1 1.2z"/>
    <path d="M0 42.6c0 2.6 3.4 3 4.3 1 .3-.6 2.2-8.3 2.6-9.8.5-1.8.5-3.8.7-5.5l.2-1.4.2-1.4c3 1.4 2.3.4 3.3 3.3.7 2.1 1.2 3.2 1.2 5.4.1 1.6.2 8 .6 9.2.7 2 4 2 4.4-.4.3-1.6-.5-7.8-.6-9.9 0-2.2 0-1.6-.8-4l-1.4-4.3c-.2-.6 0-.7.3-1.3.3-.6 1.2-2 1.3-2.6-.1-.2 0-.2-.3-.3-1.2-1-1.1-2-1.4-3.5l-.7-4.3 1.8 3.9.4.8c1.1 2.6 1.2 2.1 5 2.7 1.6.3 3.7.7 5.1.7 1 0 1.7-.8 1.7-1.9h.8v-3.7h.9L28 13.5l-1.4-1.7-1.5 1.7-1.4 1.8H24.7v1.8l-4.7-.7c-.4-.2-.2-.2-.7-1L17 10.4l3.2 3.4c2.2-4-4.3-6.8-6.9-6.8-1.5 0-2.2 1-2.7 2C9 11.7 4 20.2 3.8 22l-.3 2.7c-.3 1.8-.7 7-1 8.1C2 35 0 41.3 0 42.6z"/>
    <path d="M16 3.8c0 3.7 4 5.2 6.5 3.5a3.9 3.9 0 0 0-.4-6.8c-3-1.5-6.2.7-6.2 3.3z"/>
  </g>
</symbol><symbol id="feat-07" viewBox="0 0 51.6 57.1">
  <g fill="#00823C">
    <path d="M51.2 26.5A2392.8 2392.8 0 0 0 25.9 0c-.4 0-.9.2-1.2.6L.4 26.3a2 2 0 0 0-.4 1.1c0 .4.2.8.4 1 .6.8 1.5.8 2.1 0L25.9 4 49 28.8c.2.2.6.4 1 .4.5 0 .8-.2 1-.4.7-.6.7-1.7 0-2.3zM43 25.3c-.9 0-1.5.6-1.5 1.6v21.4H10V27.6c0-1-.7-1.5-1.5-1.5-.9 0-1.4.6-1.4 1.5v22.5c0 .7.5 1.5 1.4 1.5h34.6c.7 0 1.5-.8 1.5-1.5V26.9c0-1-.8-1.6-1.5-1.6z"/>
    <path d="M27.6 28l-.2-.2a1.9 1.9 0 0 0-2.6.2c.4-1.3 2.6-1 2.8 0zm-9.6.5l-.2.2c-.5.6-.5 1.2-.5 2v1.7h2.5c0-1.4-.3-2.1 1-2.2H24l.6.6.2.1c1.1.8 2.7.4 3.4-.5h5.2v-3h-5.2c-.2-.4-.6-.7-1-.8v-2.2h.6c.3 0 .3 0 .5.2l1 .2c.6 0 1.2-.5 1.2-1.1 0-.7-.6-1.1-1.2-1.1-.7-.1-1 .3-1.4.3h-.6c0-.5 0-.4-1-.4-1.2 0-1.1 0-1.1.4h-.6c-.5 0-.7-.4-1.4-.3-.7 0-1.2.4-1.2 1.1 0 .7.6 1.1 1.2 1.1.4 0 .6 0 1-.2.1-.1.1-.2.4-.2h.6v2.1c-.3.2-.2 0-.7.5-.3.2-.3.4-.4.5l-.2.1H19.4c-.5.1-1.1.5-1.4.9zM18.5 43c-.7.2-1.5-.2-1.4-1v.1c.5.7.8.8 1.5.9h-.1zm-.1-6.6c-1 .8-2.4 4.9-1.8 6 .6 1.5 2.2 1.7 3.2.7 1.6-1.7-.8-6-1.4-6.7zM36.4 31.6V26h-1.2l-.8.3c-.2.2-.3.4-.3.8V31c.4.5 1 .6 1.7.6h.6zM17 33.4c0-.1 0-.3.2-.3l.1.2v1.3c-.3 0-.2-.4-.2-.4v-.8zm-.2-.6c-.2.1-.1.3-.1.5 0 1.6-.2 1.6.5 1.6h2.7c.2 0 .2-.3.2-.5 0-1.6.1-1.6-.6-1.6h-2.7zM44.5 37h-2.9v18.5c0 1 .6 1.6 1.5 1.6.7 0 1.4-.6 1.4-1.6V37zM27.5 54.1H8.6c-1 0-1.5.6-1.5 1.5 0 .7.5 1.5 1.5 1.5h28.9c1 0 1.6-.8 1.6-1.5 0-.9-.6-1.5-1.5-1.5H27.5z"/>
  </g>
</symbol><symbol id="feat-08" viewBox="0 0 51.6 49.6">
  <path fill="#00823C" fill-rule="nonzero" d="M.2 46l-.2.8a1.9 1.9 0 0 0 3.5.9s3.5-3.4 21-3.4c18.7 0 23.9 4.7 23.9 4.7.4.4.9.6 1.4.6a1.9 1.9 0 0 0 1.3-3.2c-.3-.3-2-1.8-6.2-3.2.4-.4.6-1 .6-1.6v-10h1.7c1 0 1.1-.8.4-1.7l-9-11c-.7-1-1.9-1-2.6 0l-.4.4a2.5 2.5 0 0 1-1.5 4.5h-.2l5.4 6c.7.6.9 1.7.4 2.6-.3 1-1.3 1.5-2.2 1.5H31v6.8h-1.1v-7.9h7.6a1.4 1.4 0 0 0 1-2.4l-7-7.6h2.6a1.4 1.4 0 0 0 .8-2.7l-3-2.3h.2c.8 0 1.5-.6 1.5-1.4 0-.4-.1-.7-.4-1l-3.6-5h.4c.8 0 1.4-.6 1.4-1.4 0-.4-.1-.8-.4-1L25.4.6c-.2-.4-.6-.6-1-.6h-.2c-.4 0-.8.2-1.1.6L17.9 8c-.3.5-.3 1-.1 1.5.2.4.6.7 1 .8L15 15.5c-.2.4-.3.8-.1 1.3.6 0 1.2.4 1.7 1l.4.4 4 5 .7-1c.3-.5.3-1 0-1.5-.2-.5-.7-.8-1.2-.8h-1.2l2.3-2.6c.4-.5.4-1 .2-1.6-.2-.5-.7-.8-1.3-.8H19l3.8-5.3c.3-.4.4-1 .1-1.5-.2-.4-.6-.7-1-.8L24.2 4 27 7.5h-.3c-.5 0-1 .3-1.2.8-.3.5-.3 1 0 1.5l3.8 5.2h-1.9c-.6 0-1.2.4-1.4 1-.2.6 0 1.2.5 1.6l3.2 2.3h-1.5c-.6 0-1 .4-1.3 1-.2.5-.1 1 .3 1.5l7 7.6h-5.9c-.7 0-1.4.6-1.4 1.4v9.2H25v-7.7l-.8.1H24v7.5h-1v-9h1.6c1 0 1.1-.7.4-1.6l-9-11c-.7-1-1.8-1-2.6 0l-8.6 11c-.8.9-.6 1.6.3 1.6h1.7v10.1l.1.6C2 43.5.6 45.2.2 46zm15.2-14.3H18v3.8h-2.6v-3.8zm0 5.5H18v3.5l-2.6.2v-3.7zm-4.2-5.5h2.5v3.8h-2.5v-3.8zm0 5.5h2.5V41h-2.5v-3.8z"/>
</symbol><symbol id="feat-09" viewBox="0 0 65.4 65.4">
  <path fill="#097F43" d="M64.8 33.5A3001 3001 0 0 0 34 .8c-.4-.5-.7-.7-1.1-.7-.6 0-1.1.2-1.5.7L.5 33.3c-.3.5-.5 1-.5 1.5s.2 1 .6 1.2c.7 1 1.8 1 2.6 0L32.8 4.9l29.4 31.6c.2.2.8.5 1.3.5.6 0 1-.3 1.3-.5.8-.8.8-2.2 0-3zm-10.2-1.4c-1.1 0-1.9.7-1.9 2v27.1H39.3v-11c0-1-.7-2-1.7-2H28c-1 0-2 1-2 2v11H12.7V35c0-1.2-1-2-1.9-2-1.1 0-1.9.8-1.9 2v28.4c0 1 .8 2 1.9 2h17.1c1 0 1.7-1 1.7-2V52.2h6v11.2c0 1 1 2 2 2h17c1 0 1.9-1 1.9-2V34c0-1.2-1-2-1.9-2z"/>
</symbol><symbol id="feat-10" viewBox="0 0 116.3 115.5">
  <path fill="#00823C" d="M110.3 66.4zM94.5 52.5zm-2.4-7zm13.5-8.8zm-16.4 4zm-34-33.8zm1.8 0zM.3 72.9v-.1C-.3 65 .3 56 .3 48.1.2 43.4 0 37.7 6 37c1.5-.2 11-.1 12.8-.1v41.6H11l-5.2-.1c-3-.6-4.6-2.3-5.5-5.6zm75.2-1.4l.5-.3.4-.3h.2v-.1h.1l.3-.3.3-.2 1.1-1 .3-.2 1.7-2c.2-.3.4-.3.7-.9l.2-.3v-.2c.9-1.4 1.1-2.4 1.5-3v-.1l.1-.6.2-.6v-.2l.2-.8v-.6l.2-1.6V57v-.6l-.1-.4v-.6l-.2-.7v-.2-.1L83 54l-.2-.4v-.1l-.7-2.1v-.1l-.2-.2-.4-1-.2-.2-.3-.5v-.1l-.5-.7-.1-.1-.1-.2-.2-.2-.2-.2v-.1l-.5-.5-1.8-1.8-.3-.2-.2-.2-.3-.2-.8-.5H76l-.2-.1-.7-.5v-.1l-.4-.1-.4-.2-.7-.3-.4-.1-1.1-.4v-.1h-1.7l-.2.2-.3.1-.4.3-.1.1-.1.1-.1.3-.3.7v.6l.1.3c0 .2 0 .5.3.8l.5.5c.2.2.7.4.9.4l.4.2h.4l.7.3c.5.2 1.4.7 1.7 1l1.4 1c.4.3.8.7 1.1 1.2l.3.4.5.6.2.4c.5.7.7 1.5.8 1.6v.1c.2.2 0 0 .1.3l.3 1.3c.3 1 .3 2.8.1 3.8v.8c-.2.2-.3 1-.4 1.3l-1 2.1-.9 1.3-.1.1-.1.1v.1l-.2.2-.2.2v-.1l-.2.4-.2.1-.2.2v-.1c-.2.5-1 .9-1.3 1.1l-.5.3-.7.4-.6.3H72c-.1 0-8.9-9-9.2-9V17.5v-3.9-.5l-.2-.6c-.2-.8.2-.2-.6-2l-.5-.8c-.2-.4 0-.3-.4-.6L61 9c-.4-.5 0-.2-.5-.5l-.2-.3H60l-.2-.2-.1-.1-.4-.2h-.1l-.7-.4-.3-.2C57.8 7 57.6 7 57 7l-.6-.1H55l-.7.3-1.8.7h-.1l-.6.3c-5.4 4.3-15.3 16.5-20 19.8C31.5 27.3 5.6 1.7 4.4.5l-1-.5H2.3C1.6.4 1 .9.8 1.6v.1 1.5l.2.2.1.3.4.4C38.3 41 75.3 77.7 112 114.6c1.4 1.3 2.8 1.2 3.8.1.6-.6.8-2.3-.3-3.2h.1l-17-17-.3-.2c.2-.3.3-.5.7-.7l.2-.2.2-.2.2-.1.4-.3.1-.1.4-.4c.8-.8 2-1.7 2.7-2.7l.8-.8.4-.4.7-.8 1-1.3h.2-.1c0-.2 0-.1.2-.3l.7-1 .3-.5.2-.2.3-.5.3-.4h.1l.1-.4.2-.3.1-.1.1-.1.1-.3.4-.6 1.3-2.4.4-.6.3-.8.1-.1.6-1.3v-.2l.5-1c.3-.7.4-1.2.6-1.4v-.1l.1-.2v-.1l.3-.8v-.1l.3-.8.1-.6.3-1 .3-1.2c0-.3 0-.2.2-.4l.1-.8v-.3l.2-.4v-.4l.3-1.2.2-1.9.4-5.2-.4-7h.1L115 48v-.1c-.2-.1-.1 0-.2-.4l-.4-1.9-.4-1.2c0-.2 0-.3-.2-.5l-.2-.6V43l-.1-.4-.2-.4-.1-.4v-.1l-.3-.9-.1-.3c-.3-.5-.2-.7-.4-.9l-.6-1.4v-.1l-.1-.2-.2-.3v-.2l-.3-.4-.7-1.4-.2-.5-.5-.7v-.1l-.7-1.2V33h-.1l-.2-.4-.7-1v-.2L107 30l-.2-.3-.3-.3c-.2-.2 0-.2-.3-.4V29l-.4-.5-.5-.5c0-.1 0-.2-.2-.3l-.7-.8v-.1l-1-1.1-1.8-1.8-.2-.2-.4-.4-1-.9-.2-.2c0-.1 0 0 0 0-.2-.1-.2 0-.3-.2l-.4-.4-.2-.1v-.1c-.3 0-.4-.2-.6-.4L97 19.8l-.7-.4-3-2.1-1-.5-1.5-.9c-.8-.3-.7-.4-1.5-.4h-.8l-.2.1-.4.3h-.1l-.1.2s-.3.3-.4.7l-.1.4v1.3l.1.5c.1.1 0 0 .1 0 .5 1 1.1 1.2 2.2 1.8h.1c.6.4.6.2.8.5l.3.1v.1c.3 0 .3.1.5.3h.2l.2.2v.1c.3 0 .5.2.7.4.2 0 .2 0 .3.2l.8.5h-.1l.6.3c.3.3-.2-.2 0 .1l.3.2.8.5 1 .8c.4.5.4.3 1 .9l3.5 3.5.1.1v.1h.2c0 .2 0 .2.2.3l.1.1 1.4 1.8h.1v.1l2.8 4v.1l.2.3v.1l.1.3h.1l.6 1.2 1.6 3.2v.4l.8 1.7v.2l.1.3.2.4.6 2c0 .5.6 2.2.6 2.8l.3 1.4c.2.4.1.7.2 1v.6l.1.5v.2h.1v.8l.2 1.1v5.3c0 .6-.1 2.6-.3 3l-.4 2.8-.2 1-.1.7c-.2.5-.3 1.5-.6 2l-1 3.4-.6 1.2-.3.7-.1.4-.8 1.6v.2l-.3.3-.1.3-.1.3h-.1c-.2.6-1 1.7-1.2 2.2l-1 1.6-.6.8-1 1.3-.1.1-.1.2h-.1l-.1.3-.2.1-.2.3c-.3.5-.5.5-.7.7l-.8 1-.4.4-.9.9-1.6 1.5-.6.5v.1l-.6.4-.7.6-.2.2-3-3h.1l-.7-.5h.1l-.6-.6-.6-.6-.6-.5v-.1l-.6-.5V85l-.6-.5v-.1l-.9-.9.3-.2.2-.2.9-.8.2-.2.6-.5.5-.6.6-.6.1-.1 1.1-1.3.6-.7.1-.1.6-.7v-.2l.7-1v-.1h.1l.6-1h.2V75l.2-.4.2-.5.3-.4c.3-.3.4-.8.6-1.1l.4-.7v-.3l.6-1.1.2-.5c.1-.6.3-.7.4-1.1.1-.7.2-.6.3-1l.3-1c.1-.5.3-.6.3-1v-.2l.1-.4.1-.3.3-1.5V63l.1-.2.1-.5.2-1.6.1-1V55c-.2-.4-.2-1.9-.4-2.3l-.2-1.6v-.3l-1-3.1v-.5l-.1-.2-.2-.5-.4-1-.2-.6-.5-1.2-.3-.5-1.5-2.8c0-.1 0 0 0 0l-.4-.6-.3-.4-.2-.4-.1-.1-.2-.3-1.6-2c0-.2-.2-.3-.3-.5l-1.7-1.8-.1-.2-.4-.4-.6-.5-.9-.7-.5-.5c-.6-.6-.4-.2-.7-.5l-1.5-1.2-.3-.2H85l-3.3-2h-1.1c-.7.3-.6.2-1.1.7-1 .9-1.1 2.3 0 3.3l2.6 1.7.3.2c0 .1 0 0 0 0l.6.4.2.2.2.2.7.5c.3.2.2 0 .7.5l.4.5.5.4h-.1l.4.2.1.2.1.1v.1c.2 0 .5.3.6.5v.1l.6.5v.1l.3.3.6.7.3.3.4.5.8 1v.1l1.5 2.5.2.4.2.2.2.3.2.6.2.3.1.3.2.3v.3c.4.5.3.8.6 1.1v.4l.3.5v.4l.1.2.1.2.2.4v.1l.1.5.1.3v.3l.2.6.1.3v.3l.2.9.1.7.1 1 .1 1.1v3.5l-.1 1.9-.1.7-.1.7-.1.4-.2 1v.3l-.2.2-.1.8-.3.8-.1.5v.2l-.3.6v.1l-.2.4v.2l-.5 1-.6 1.5-1.6 2.7-.2.3s0 .2-.2.3l-.1.2-.7.9-.2.2c0 .2-.2.3-.3.5l-.4.4-.3.4-.5.5-.7.8-.9.9-.4.3-.2.2-1.2 1a96.1 96.1 0 0 0-8.7-8.8zM25.6 34c-.2.2-2 2-2.2 2.4.3 13.8 0 27.8 0 41.7 0 .3 0 .9.3 1.2 8.8 9 18.5 18.8 27.5 27.5 3.7 3.6 11.6.8 11.5-8.5l-.2-27.6-.1-.1C58.7 67.1 25.9 34.2 25.6 34zm-2 45.3zm75.6 14zm5.8-5.9zm-15.7-5.2zm.6-.5zm.5-.6zm.6-.6zm15.8-3.6zm5.8-2.4zM78.6 60zM80 47.8zm-4-3.5zm36.5-4.6zm-2.6-5.4zm-29.4-1.7zm22.3-.6zm3.5-3zm-4.6-5.2zm-9.4-7zm-30-5.3z"/>
</symbol><symbol id="feat-11" viewBox="0 0 116.3 97.3">
  <g fill="#00823C">
    <path fill-rule="nonzero" d="M109.7 7v8.6h1.6V7h-1.6zM89.2 49.7h.1l-.4-2c-.7-1.7-2.2-1.7-2.8 0-.3.7-.4 1.5-.4 2.2 0 1.7.8 3 1.7 3 1 0 1.7-1.1 1.8-2.8v-.4zm22.1 22v-45h-1.6v45h1.6zM82.7 11.7l19-4.7V7H68.5V96h-5V0h52.7v96.3h-5V82.6h-1.6v13.7l-5.1-1.8-21-7.2c-.7-.3-1-.7-1-1.7l.1-72.4v-1.4z"/>
    <path d="M41.4 35c0-1 .6-4.5 1.2-5.2.3-.4.4-.3.5-.3.4 0 .6-.2 1.2-.6l1.1-.7 2-.8c.3-.2.2-.2.5 0 0 .2-1 1.7-1.2 2a72.2 72.2 0 0 0-3.4 5.9v-3.6c.3-.2.8-.3.7-1-.2-.5-.4-.6-1-.7l-.3.6a1 1 0 0 0-.1.7c0 .6-.1.8-.3 1.3-.1.2-.8 2.3-1 2.4zm-28.3.6l-2-5.4A13 13 0 0 0 9 26.3l-1-1c.4.1 1.5.9 1.9 1.2a9 9 0 0 1 2 3c.5 1.1 1.3 5.2 1.4 6.5l-.2-.4zM4.4 21l.4.7 1 1.2c.2.2.3.6.2 1-.1-.2-.2-.2-.4-.3-.9 1.3-.1.8-1.4 1.3-.9.4-1.1.7-1.5 1.3-.8 1-1.5 2.2-2 3.6a8.7 8.7 0 0 0-.4 4.8c.4 3.4 1.2 6.3 1.7 9.4.1 1 0 1.5-.3 2.4-.7 2.4-1.1 4.5-1.3 7-.1.8-.5 4.7-.3 5.2l2 .3.7 3.3c.4 1.2.7 2 .8 3.3.3 3.6-.2 3.8-1 7-1.2 5.5-1 8-1 13.3v4c.1.9.3 1.2.8 1.4 0 .8-.2.7 1.3.8h2v-.4c.4 0 1.7 0 2 .2H8v2.5c.7.2 1.6.5 2.5.6.7 0 0-.4 1.1-.1l1.3.3c1.8.3 3.8.2 5.7.2.8 0 1.9-.1 2.3-.6.3-.2 0-.7 0-1-.3-.4-.5-.5-1-.6-2.8-.8-4-1.1-4.8-3.9 0-.3-.3-.7-.5-.9-.4-.4-.5-.2-.4-1 0-1.9-.2-3.7-.4-5.5-.5-5.4-.2-5.6.2-10.8.3-2.7-.5-5.3-.7-7.8v-2.9c.7-.2.7.3.7-1.2V53c-.2-2.6-.1-5.1-.2-7.7.5.3.3.3 1.2.6l1.4.4c.9.2 2.1.6 3 .7l.4-.9.3.2-.2.2.2.6h.5c0 .5 0 .5.3.7l.3.2c0 .2 0 .2.2.3h.4c.1.2 0 .2.2.3l.8.2.8-.2c.4 0 .4-.1.7-.3.6-.4.7 0 1.1-.8h.6c.1.7 0 1.3.5 1.8.2.2.5 0 .9 0l8.2-2.5c1.7-.6 1.4-.5 2.1-1.4l.6-.7c0 2.9-.4 5.7-.6 8.5L37 62c.7 0 1 .2 1.7.1v7.2l.2 7.1c0 3 .2 3 1.3 6l1 2.6c.8 2.1.6 1.2 1.2 2.5l-.4.4c0 .2-.2.3-.3.5-1.1 1.6.5 2.2-1.5 3.4-1.4.9-3-.2-3.7 1.2-.2.7-.1 1 .4 1.1 1.4.4 3.5.6 5 .4-.5.4-1.5.5-1.4 2 0 .6.4.6 1 .7l1.5.1c2.4.2 5-.4 7.2-.9.6-.1.8-.1.9-.7 0-.6-.2-1.1 0-1.6 0-.5 0-1 .2-1.5.2-1.3 0-1.6-.2-2.9 0-1 0-2-.2-3 .2-1.6-.3-7-.5-8.8-.3-1.9-.2-.9-.2-2.9l.2-6c0-2.4-.2-3.7.4-6 .5-.1.6.2.8-.6 1.3.4.7-1.2.8-3 .4-.3.3.2.5-.8a242 242 0 0 0 2.4-10.2v-2.8c.2-3.5.6-7 .7-10.4 0-1 0-1.5-.4-2.4-.6-1.5-1.5-2-2.9-2.6L50 28.8c-1-.5-.5-.3-1.1-1-.8-.9-.6-.4-1.2-.7-.3-.2-.2-1.1 0-1.4.2-.5 1.3-1.2 1.6-2.6.4-1 .5-3.5 0-4.4-.3-.7-.6-.8-.8-1l-.3-.3c-2.1-2.5-6-1.9-8 0-.2.2-.3.3-.2.8l.2.5c-1 2.4 0 2-.4 2.8 0 .3-.5.9-.7 1.1-1.2 1.8.3 1.3.6 1.5.5.2 0 .8.6 1h.1c-.1.1-.2.3-.1.5.1.3.2 0 .2.5 0 .4-.3.7-.2 1.2.1.7 1.6.4 2.2.5.2.3.5 1 .5 1.4l-.7.5-1.6.9c-2 1.1-2.6 1.2-3 3.2l-.5 2-.5 2c-1 3.6-2.2 3.6-2.3 4-.3.4 0 .3-.6.6L32 43a33 33 0 0 1-5.2 1.1l-1 .3c-.5 0-1-.6-1.4-1-.1-.2-.5-.5-.8-.5-.3 0-.6.4-.7.5-.2.2-.6 0-1 0-.3-.2-.7-.2-1-.3-.1-.4-.2-.4-.7-.5l-2.8-1-1.8-.9L14 40a28 28 0 0 0-1-8.7c-.3-.8-1.1-2.5-1.6-3.3l-1-1.4c-.2-.4.2-1.5.4-1.8.6 0 2 .3 2.1-.4v-1.2c.1-.4.2-.2.3-.4 0-.2 0-.3-.2-.4h.1c.7-.4.2-.8.7-1 .5-.4 1.8.4 0-2.2-.2-.3-.3-.5-.2-1 .2-.7 0-.6 0-1.2l-.4-1 .3-.4-.1-.6a4 4 0 0 0-1.6-1.2c-1.3-.6-3-.8-4.6-.3-1.4.5-1.6 1.3-2.3 1.9-.9.8-.8 2.1-.8 3.2 0 1.4.4 1.8.4 2.3z"/>
    <path d="M25.3 76.3c.3-.8 1.4-1.3 2.4-1 .8 0 1.7.8 1.7 1.7l-4.1-.7zm-6 12c0 1.9 0 1.6 1.1 2l2.4.7 4.8 1.4c3.7 1 2.9.9 6.3 0l.6-.3c.3 0 .2-.1.2-.5 0-1.8.2-13.3 0-13.6-.3-.2-1.7-.4-2.2-.5-3.3-.6-1.6 0-2.5-1.6-.8-1.6-3.1-2-4.6-1-.7.5-.8.9-1 1.3-1.2 0-.7-.2-2.5 0l-2.2.2c-.3 1.2-.3 9.8-.3 11.8zM8 92v-.2h-.5.2l.3.1z"/>
  </g>
</symbol><symbol id="feat-12" viewBox="0 0 116.3 91.1">
  <g fill="#00823C">
    <path d="M12.1 0h92c6.8 0 12.2 5.5 12.2 12.1v60c0 6.6-5.5 12-12.1 12H12C5.4 84.2 0 78.8 0 72.2V12C0 5.5 5.4 0 12.1 0zm93.6 15.4H79.8v3.7h26v-3.7zm0 8.3H79.8v3.6h26v-3.6zm0 8.3H79.8v3.6h26V32zm0 8.3H79.8v3.6h26v-3.6zm0 8.2H79.8v3.7h26v-3.7zm0 8.3H79.8v3.6h26v-3.6zm0 8.3H79.8v3.6h26v-3.6zM38.2 13a30 30 0 1 1 0 60 30 30 0 0 1 0-60z"/>
    <path fill-rule="nonzero" d="M18.3 91.1H13c-.3 0-.4-.1-.4-.4V88c0-.3.1-.4.4-.4h9.8c.9 0 .9 0 .9.9v2.1c0 .6 0 .6-.6.6h-5zM98.2 87.5h5.1c.4 0 .4 0 .4.5v2.5c0 .6 0 .6-.6.6h-9.8c-.6 0-.7 0-.7-.7v-2.3c0-.5 0-.6.6-.6h5z"/>
    <g fill-rule="nonzero">
      <path d="M38.2 43a64.7 64.7 0 0 0 7.5-18.4l.1-3-.1-.5v-.6l1.2.6c2.6 1.2 5 2.5 7.4 4.3 1.5 1.1 2.9 2.4 4 4a7.9 7.9 0 0 1 1.3 3.9c.1 1.6-.4 3-1.2 4.4-1.1 1.9-2.8 3-4.7 4a27.6 27.6 0 0 1-11 1.8L39 43h-.8l.1.4c1.4 3.9 3 7.7 5 11.4 1 2.1 2.2 4.2 3.8 6 .8.8 1.6 1.6 2.6 2.2l.4.2-1.1.6c-2 .9-4 1.6-6.1 2.2-2 .6-4 1-6.1 1-1.4 0-2.8-.3-4.1-.8-1.8-.8-3-2.2-3.7-4a9.7 9.7 0 0 1-.4-5.9c.6-2.3 1.6-4.3 2.9-6.3a31 31 0 0 1 5.7-6.4l.9-.8z"/>
      <path d="M38.2 43v-.1l-2.5-.4a220.6 220.6 0 0 0-5.7-.8l-3.5-.4c-2.6-.2-5.3-.2-8 .2-1.2.2-2.5.5-3.6 1.2h-.2v-.3L15 39l.9-3.8c.6-2.5 1.5-5 3.2-7 1-1.3 2.2-2.3 3.7-2.8 1-.4 2.1-.5 3.2-.3 1.4.3 2.6.7 3.8 1.4 1.7 1.2 3 2.7 4.2 4.4a26.8 26.8 0 0 1 4.2 12z"/>
    </g>
  </g>
</symbol><symbol id="feat-13" viewBox="0 0 53.8 47.8">
  <g fill-rule="evenodd" fill="#00823C">
    <path d="M11.2 46.6V45c0-.3.3-.5.5-.5H42c.3 0 .5.2.5.5v2.2c0 .3.2.5.5.5h8c.2 0 .4-.2.4-.5 0-3.7.7-18.8-.6-21.3l2.5-.2c.6-.9.6-3 0-3.7-.5-.5-5.8-.4-6.3-.3-.7.1-.4 0-1 .6l-.3.3c-.5-3-2.3-8.3-5.6-8.6a198.1 198.1 0 0 0-26.4 0c-3.4.3-5.2 5.6-5.6 8.6l-.3-.3c-.6-.6-.3-.5-1-.6-.6 0-5.9-.2-6.4.3-.5.7-.6 2.8 0 3.7L3 26c-1.3 2.5-.7 17.6-.7 21.3 0 .3.3.5.5.5h8c.2 0 .4-.2.4-.5v-.7zM9.1 24c.7-.3 1.2-1.8 2-3 2.8-4.7 2.4-4.2 10.2-4.5 3.8-.2 16.7-.5 19.3-.8-2.2-1-20.3-.7-25-.4-2 .1-2.7 0-3.6 1.5a35 35 0 0 0-3 7.3zm38 8.6c-3.4-.5-4-.4-7.3 0-.5 0-.8.4-.8.8v2.7c0 .4.3.7.8.7 3.2.4 4 .5 7.3 0 .4 0 .8-.3.8-.7v-2.7c0-.4-.4-.7-.8-.8zm-1.7 8h-3l-2 .1c-.3 0-.6.2-.6.3v1c0 .2.3.3.7.3 2.8.1 3.4.2 6.2 0 .4 0 .7-.1.7-.3v-1l-.7-.3h-1.3zm-38.7-8c3.3-.5 3.9-.4 7.3 0 .4 0 .8.4.8.8v2.7c0 .4-.4.7-.8.7-3.3.4-4 .5-7.3 0-.5 0-.8-.3-.8-.7v-2.7c0-.4.3-.7.8-.8zm1.7 8h3l1.9.1c.3 0 .6.2.6.3v1c0 .2-.3.3-.6.3a39 39 0 0 1-6.3 0c-.3 0-.6-.1-.6-.3v-1l.6-.3h1.4z"/>
    <path fill-rule="evenodd" d="M26.1 0c-6.8 2.7-15.8 7.3-23 10.3-1.3.5-2.7.8-2.2 2.6.7 2.4 5-.3 6.6-1l13.2-5.8 3.4-1.5c1.2-.6 2.3-1.4 3.5-1L50.7 14c1.5.3 2.7-1 2-2.3-.5-1-17.1-8-19.5-9-1.4-.7-5.7-3-7-2.5z"/>
  </g>
</symbol><symbol id="feat-14" viewBox="0 0 60.2 61.3">
  <g fill="#00823C" fill-rule="nonzero">
    <path d="M14.7 48.4a1.8 1.8 0 1 1 0-3.6 1.8 1.8 0 0 1 0 3.6zm0-7.2a5.4 5.4 0 1 0 0 10.8 5.4 5.4 0 0 0 0-10.8z"/>
    <path d="M37 31.9l-2-3L56.5 7.4v5L37 32zm23.2-18.6V3c0-1-.7-1.6-1.6-1.7L44.4 0h-.2c-.8 0-1.6.6-1.7 1.4l-1 5.2-5.2 1c-.8.2-1.3.7-1.4 1.5l-1 5.1-5.3 1c-.6.2-1.1.6-1.3 1.2l-2.1 6.1a19.8 19.8 0 1 0 13.3 13l21.2-21c.3-.3.5-.8.5-1.2zM8.3 52.9a16.2 16.2 0 0 1 17.3-26.4c1 .3 2-.1 2.4-1.1l2.4-6.8 5.3-1c.7-.2 1.3-.8 1.4-1.5l1-5.2 5.2-1c.7-.1 1.3-.7 1.4-1.4l1-4.8 8.7.8-23.2 23c-.7.7-.7 1.9 0 2.6A16.2 16.2 0 0 1 8.3 52.9z"/>
  </g>
</symbol><symbol id="feat-15" viewBox="0 0 93.6 71.9">
  <path fill="#00823C" fill-rule="nonzero" d="M86.3 63.2V8.8l-.5.1L73 12.1c-.8.2-1 .4-1 1.2v46.5l14.3 3.4zm-79.1 0l14.3-3.4v-.3l.1-46.6c0-.5-.2-.7-.7-.8a522 522 0 0 1-9.5-2.1L7.2 8.8v54.4zm21.6-49.9v45.4c12-1.5 24-1.5 36 0V13.3a166 166 0 0 1-36 0zm64.8 55.5c-.5.8-.9 1.7-1.6 2.3-1 1-2.3 1-3.6.5a126.2 126.2 0 0 0-66-4.6C16.7 68 11 69.5 5.3 71.5 2.3 72.5 0 71 0 67.8V44.3 4C0 2.3.6 1 2.2.3c1-.5 2-.3 3 0C12.4 3.4 20 5 27.7 6c9.6 1.2 19.3 1.5 29 .9A104.9 104.9 0 0 0 88.3.4c2.3-1 4.8.2 5.1 2.6l.2.2v65.6z"/>
</symbol><symbol id="feat-16" viewBox="0 0 78.4 78.6">
  <g fill="#00823C" stroke="#00823C" stroke-miterlimit="22.9" stroke-width="4">
    <path d="M55.5 7.4a2.2 2.2 0 0 1 0-4.4h21v73.6H2V2h28.2l20.3 14.6a2.2 2.2 0 0 1-2.6 3.6L28.8 6.5H6.4V72H72V7.4H55.5z"/>
    <path d="M4.2 48.1a2.2 2.2 0 0 1 0-4.5H14a2.2 2.2 0 0 1 0 4.5H4.2zM64.4 48.1a2.2 2.2 0 0 1 0-4.5h9.8a2.2 2.2 0 0 1 0 4.5h-9.8zM37 46a2.2 2.2 0 1 1 4.4 0v28.4a2.2 2.2 0 0 1-4.4 0V46z"/>
    <path d="M30 48.1a2.2 2.2 0 1 1 0-4.5h18.5a2.2 2.2 0 0 1 0 4.5H30z"/>
  </g>
</symbol><symbol id="feat-17" viewBox="0 0 59.3 69.8">
  <g fill="#00823C">
    <path d="M19.4 18.8c0 2.3 2.5 4.4 5.4 2l1.9-1.5v31.1c-2-1-2.2-2.4-4.5-2.4-1.6 0-2.8 1.4-2.8 3 0 1.4 1 2 1.9 2.7l6.6 5.3c2.4 1.9 4.6-.9 7.4-3l2.7-2.2c.8-.7 1.9-1.3 1.9-2.8 0-1.6-1.2-3-2.7-3-1.7 0-2 .5-3.6 1.8-.3.2-.5.5-1 .6v-31c1.9 1 2.2 2.4 4.6 2.4 1.4 0 2.7-1.4 2.7-3 0-1.7-1.7-2.7-3.2-3.8l-5.3-4.3c-2.4-1.8-4.7 1-7.4 3.1L21.4 16c-.9.6-2 1.3-2 2.8zM3 5.9h53.3c4.1 0 3.8-5.9.4-5.9h-54C-.9 0-1.2 5.9 3 5.9zM3 69.8h53.3c4.1 0 3.8-5.9.4-5.9h-54c-3.5 0-3.8 5.9.4 5.9z"/>
  </g>
</symbol><symbol id="feat-18" viewBox="0 0 54.5 58.4">
  <g fill="#00823C" fill-rule="nonzero">
    <path d="M14.6 0l.3.1c1 .3 1.6 1.2 1.6 2.2V9a2.3 2.3 0 0 1-4.6 0V2.2c0-1 .8-1.9 1.8-2.1l.2-.1h.7zM40.5 0l1 .5c.6.4 1 1 1 1.7v7c0 1.3-1.1 2.2-2.4 2.2-1.2 0-2.3-1-2.3-2.2v-7c0-1 .8-1.9 1.7-2.1l.3-.1h.7z"/>
    <path d="M50.5 21.1H4V49c0 3 2.3 5.3 5.2 5.3h35.9c.4 0 .9 0 1.3-.2 2.4-.6 4-2.6 4-5.2V21.4v-.3zM0 49.3V12v-.3c.1-1 .3-1.9.8-2.7a9 9 0 0 1 6-4.8l2-.4V9l.1 1c.4 2.8 3.3 5 6 4.5A5.3 5.3 0 0 0 19.7 9V4.2v-.3h15.2v5.8A5.3 5.3 0 0 0 45.5 9V4.2v-.3c1.3 0 2.6.3 3.8.8 2.5 1.1 4.2 3 5 5.7l.2 1.6V49.7c0 1-.3 2.1-.8 3a9 9 0 0 1-8.6 5.6H8.3a9.3 9.3 0 0 1-8-7l-.3-2z"/>
    <path d="M11.8 42.4c1.4 0 2.3-.9 2.3-2.4v-4c0-1.4-.9-2.3-2.3-2.3-1.3 0-2.2.9-2.2 2.4v4c0 1.4.9 2.3 2.3 2.3zm0-1c-.7 0-1-.5-1-1.4v-4c0-.8.3-1.2 1-1.2.8 0 1.2.4 1.2 1.3v4c0 .8-.4 1.2-1.2 1.2zm5.6-7.8c-1.3 0-2.2 1-2.2 2.3v1.3c0 1.3.9 2.2 2 2.2.4 0 .9-.2 1.1-.5v1.4c0 .6-.4 1-1 1-.5 0-.8-.4-.9-1h-1.2c.1 1.3 1 2.1 2.2 2.1 1.2 0 2.1-.8 2.1-2.2V36c0-1.4-.9-2.3-2.1-2.3zm0 4.7c-.6 0-1-.4-1-1.1v-1.3c0-.7.4-1.1 1-1.1.5 0 1 .4 1 1v1.4c0 .7-.5 1-1 1zm6.8-6l-4 11.5h1.1l4-11.4h-1.1zm1.5 10H30v-1h-3.2c0-2 3.1-3.3 3.1-5.6 0-1-.7-2-2.1-2-1.3 0-2.1.8-2.2 2.2H27c0-.7.4-1.1 1-1.1s1 .4 1 1c0 1.7-3.2 2.9-3.2 5.7v.8zm7.6.1c1.4 0 2.3-.9 2.3-2.4v-4c0-1.4-.9-2.3-2.3-2.3-1.3 0-2.2.9-2.2 2.4v4c0 1.4.8 2.3 2.2 2.3zm0-1c-.7 0-1-.5-1-1.4v-4c0-.8.3-1.2 1-1.2.8 0 1.2.4 1.2 1.3v4c0 .8-.5 1.2-1.2 1.2zm4.8-7.6l-1.6 1.1v1.4l1.3-1v7H39v-8.5H38zm5.9 4c.5-.3.8-1 .8-1.7v-.2c0-1.4-.8-2.3-2.2-2.3-1.3 0-2.1 1-2.1 2.3v.2c0 .7.3 1.4.8 1.8-.6.3-1 1-1 1.8v.3c0 1.5 1 2.4 2.3 2.4 1.4 0 2.3-.9 2.3-2.4v-.3c0-.8-.3-1.5-1-1.8zM41.7 36c0-.7.3-1.1 1-1.1.6 0 1 .4 1 1.1v.2c0 .8-.4 1.3-1 1.3-.7 0-1-.5-1-1.3V36zm2 4.1c0 .9-.4 1.3-1 1.3-.8 0-1.2-.4-1.2-1.3v-.3c0-.8.4-1.2 1.1-1.2.7 0 1.2.4 1.2 1.2v.3z"/>
  </g>
</symbol><symbol id="feat-19" viewBox="0 0 96.2 71.2">
  <path fill="#00823C" d="M65.6 26.3l-.4-.7-1-1.9-.8-1.3c.6.3 1.6 1 2.4.6l-.2 3.3zm-5 26.4c0 .5-.5 1.2-.1 1.6 0 .4.2.4.1.8 0 1.4-.2.6.4 1.6.4.7 1.7 1.5 2.6 1.5 1.4 0 .5-1 .4-1.3-.4-.8-.4-.5-.7-1.3-.2-.5 0 0 .3-1.4.2-.9-.7-1.4-.5-4.6.1-1.7.4-1.4.5-2.2.1-.8.3-1.3.7-2 .4-.8.7-1.8 1-2.8l.4-.9 1.1 1.8c1 1.7 1 2.1 1.5 4l2.3 8.7.3 1c.4 1.3.2.6.5 1-.2.5-.2.5 0 1 .3 1.1 1 .5 1.6.5h1c1 0 3.2-.6 3.6-1.2-.4-1-1.4.3-3.1-.7l-.8-.6.1-.3c.1-.3 0-.5-.1-.8-.5-1.6-.8-7.4-1.4-8.4-.2-.4-.5-.4-.4-1 .1-.6-.6-1.1-.6-2.2l-.2-1.1c0-1-.1-1.6-.3-2.5l-.6-2-.1-.2-.2-.6c0-.2.2-.2.2-.5l-.3-1.3c.5-.1.7-1.3.8-1.4l.4-.4c.4-.5.3-2 .2-2.6v-.7-.7c0-.6.1-.8-.1-1.4l-1-2c-.2-.8-.6-.8-.7-2.4 0-1-.6-1.2-1.5-1.4-1.5-.5-1.1-.2-1.5-.8-.4-.5 0-.7.2-1.7l.1-.6c.1-.4.1-.3.3-.5l-.2-1.2c-.5-2-3.8-1.8-4.4.4-.2.9-.1 1.3 0 2l.4.5.2-1c0-.4 0-.6.3-.8.1.4 0 .7.3.9.1-.2 0-.4.4-.7.4-.4 1.3 0 2-.1.4 0 .4-.3.8-.3l-.2 1-.2.8c-.5 1.6-.4 2.4-2.3 1.4-.7-.3-1-.3-1.2-1-.3.3-.4.3-.6.9-.2.3-.2.2-.4.3-1 .3-1.9.7-2.7 1.2-1 .6-.7.8-1 1.9-.5 1.2-.1 1-.5 2.6-1 4 .1 7.7 0 8.2 0 .3-.4.6 0 1.2 0 .2.4.4.6.8-.4 0-.8-.3-1.2 0v.6l-.4 4-.1 1.2v1.2l3.3 1V50l.7 2.7zm-3.4-13.9h.7c.6.1.5.1.5.3.2.3 0 .3.5.3.8 0 1.6-.2 2.4 0l1.3.3c.2.6 1 6.5 1 7.1-1.4.6-2.4.1-3.6-.3-.7-.2-3-.8-3.3-1l.5-6.7z"/>
  <path fill="#00823C" d="M74.1 45.8c0-.5.5-1 .9-1.2 1.7-1.2 3.2-1.7 5-2.7.5-.4 1.1-.8.2-1.1l-.6-.1c.3 0 .8.2 1 .4 0 .4-1.4 1-1.7 1.2-.5.3-1.3.6-1.8 1l-1 .4-.8.5c-.6.3-1.3.9-1.5 1.4-.3.4.3 1.5.5 1.8.3.5.6 1 1 1.3l1 1 .3.2c3 2.8 9.6 6.4 13.2 8.3l6.4 3.2v-1.1L93.4 59l-2.7-1.3-2.8-1.4c-3.2-1.6-3.1-1.6-6.3-3.4l-3-2c-1.2-.8-1.5-1-2.4-1.8l-.6-.6c-.7-.7-1.5-1.5-1.5-2.7zM60.7 39.7l1.4.4v6.3l.2-6.5-1.4-.3h-.2zM14 45.5l-.4-1.5 6-3.6 6-3.6 6-3.6 13.6-8.8 6.3-4.5 5-4 1.1-1.2c1.5-1.5 3-3 2.8-4.5l.4-.4.2-.2c.7.4-.3 2.2-.6 2.7-.6 1-1.3 1.7-2 2.5l-1.9 1.8-.7.5a262.1 262.1 0 0 1-28 20c-1 .5-13 8-13.9 8.4zM56.3 45l-.3.3a12.6 12.6 0 0 0-3.4 9.3c0 3 .6 6.1 1.3 8.9l1.8 5.8c.2.6.6 1.3.7 1.9h1.8l-.5-1.6c-2.1-6-5.3-15.4-2.6-21.5l1.2-2v-1zM58.6 39.6c2.2 0 2-.4 1.8 1.1-.4 0-.7-.3-1-.5-.4-.2-.7-.3-.8-.6zm-.5.6l2.4.7c0-.3.2-1 0-1.3-.2-.3-1.5 0-2-.1l-.2-.3-.2 1z"/>
  <g fill="#FEFEFE" fill-rule="nonzero">
    <path d="M51.1 16c0 2.3-.9 4.2-1.7 4.1-.8 0-1.3-2-1.2-4.3.1-2.4 1-4.3 1.7-4.2.8 0 1.4 2 1.2 4.3zM41.5 2s1.3 2.4 1.6 6.9l1.1-.2v-.3s-.5-4-2-6.6c-.6-.3-.7.2-.7.2zM45.8 2s.7 1.3 1.6 5.1c.2.2.5.1.5.1l-.2-.2S47 4 46 2.2c-.2-.4-.2-.1-.2-.1zM31.8 24.4c.2-1.4.6-2.6 1.1-3.2-.3.7-.6 1.6-.7 2.7-.3 2.2.2 4 1.2 4.2.3 0 .7-.2 1-.6-.4.7-.9 1.2-1.4 1.1-1-.1-1.5-2-1.2-4.2z"/>
  </g>
  <g fill="#00823C" fill-rule="nonzero">
    <path d="M35.6 24.7c-.4 3.3-1.9 5.8-3.3 5.7-1.5-.2-2.4-3-2-6.3.3-3.3 1.8-5.8 3.3-5.6 1.5.2 2.4 3 2 6.2z"/>
    <path d="M32.6 30.4s-3.6.9-5-1.5c1.1-3.9 2.5-5.3 2.5-5.3l3 3.2-.5 3.6zM37 10.2h.9s.4-1.8 1-1.9c.7 0 2.8 0 3 .3.2.3.6 2.4-.5 2.5-1 0-3.2.4-3.7.1l-1.2.6.1-1.3.4-.3z"/>
    <g>
      <path d="M36.2 25.2l-2 .6-2.9-7.8s5.6-2.1 5.8-2c.2 0 1.5 3.3 1.5 3.3l-2.4 5.9zM49.6 20.1s-.4.3-2.8-.1c-.7-.1-.2-1.3-.2-2.3-.1-2 2.6-3.1 2.6-3.1l.4 5.5z"/>
      <path d="M49.8 18.6c-.4 0-.7-1.4-.6-3 0-1 .1-1.8.3-2.3-.3.5-.5 1.5-.5 2.7 0 1.7.2 3 .6 3 .2.1.4-.2.6-.6-.1.2-.3.3-.4.2z"/>
      <path d="M0 24.8A5 5 0 0 0 2.4 27c3.3 1.5 14.9 2.5 16.6 3 1.7.3 7.5 0 10.8-1.3 0 0 .8-10.3 4.6-11.6 3.9-1.3 1.8 8 1.8 8S48 19 47.9 18.9c-.1-.2.7-7.7 2.6-7.9 2-.2.7 5.3.7 5.3s2-3 1.2-8c0 0 0-2.4-.7-2.4 0 0-.4-1.3-1.7-.7 0 0-1-2.8-6.2-4.4-5.2-1.5-19-.6-21 .5-2 1-4 1.7-9.8 7.7C13 9 2.5 11.7 1 16.6c0 0-1 1-.6 4.4 0 0-.3 2 .3 2.5 0 0-1 .7-.8 1.3z"/>
    </g>
  </g>
  <path fill="#FEFEFE" fill-rule="nonzero" d="M36.7 11.5l12.5-5-1-2.7c-.6-.7-3.3-3.5-8.2-1.3-1.9 1-3.3 9-3.3 9zM14.4 8.8s19.6 2 19.8 1.9c.3-.2 3.1-6.5 2.6-7-.4-.6-15.1-1.2-16.2-1-1 .3-6.9 5.8-6.2 6zM3.7 17s-.6-.7-.3-1.7c.3-1.1 2.2-3.3 2.2-3.3-2.1 1.2-4 2.7-4.5 4.6 0 0 0 2 2.5 2.7V17z"/>
  <path fill="#FEFEFE" fill-rule="nonzero" d="M4.3 19.7s-.3-2.5 0-2.6c.4-.1 2.3.7 5.4 1 3.1.3 7.4.4 7.6.6.6.3-1.6 3-2.2 3.1l-4.1.6c-.6-.1-3.4-.4-4-.6-.4-.2-2.7-1.5-2.7-2.1zM17.6 21.4s1.3-2.3 2-2.6c.8-.2 8.3-4.2 9-4 .6.2-.6 4.3-2.2 5.2-1.5 1-9.2 2-8.8 1.4zM.6 24s1.7 1.8 1.7 1.6l-.6-2.8-.2 1.3-1-.2v.1zM18.5 28.4s5.3-.2 6.2-.4c1.1-.3 3.2-.4 3.8-4 0 0-1 .7-2.7 1.3-1.7.6-6.3 1.2-6.3 1.2l-1 1.9zM28.3 26.4c.6-2.3 2-10.2 5.5-11.4 3.4-1.2 3.5 4.8 3.5 4.8s-.5-5-3.4-4c-2.8.8-5.6 10.6-5.6 10.6zM47.9 15.1s.7-5.8 2.5-6.1c1.8-.4 1.6 4.4 1.6 4.4s-.1-3.8-1.5-3.6c-1.4.2-2.6 5.3-2.6 5.3zM41.6 8.8l-.3-.1c.2.4.4 1.4-.1 1.7-.8.3-2.3.4-2.7.2.4.3 1.9.2 2.7.2.8-.1.5-1.8.4-2zM35.3 10l2.5-7c.7-2.2 4.4-2.2 6-2 0 0-4.5-.4-5.5 2s-2.5 7.8-2.5 7.8l-.5-.8z"/>
  <path fill="#FEFEFE" fill-rule="nonzero" d="M50.9 16c-.1 1.8-.7 3.3-1.3 3.3-.6 0-1-1.6-.9-3.5.1-2 .7-3.4 1.3-3.4.6 0 1 1.6.9 3.5z"/>
  <path fill="#00823C" fill-rule="nonzero" d="M35.3 24.8c-.3 2.6-1.4 4.6-2.5 4.4-1.1 0-1.8-2.3-1.5-4.9.3-2.6 1.5-4.6 2.5-4.5 1.1.2 1.8 2.4 1.5 5z"/>
  <path fill="#FEFEFE" fill-rule="nonzero" d="M5 22.5l8.5 1.3.1 2.4-8.4-1.4zM36.1 23.6s.9-4.5-.3-5.6c-.9-.8-2 0-2 0s2.4-1.5 2.3 5.6z"/>
</symbol><symbol id="instagram" viewBox="0 0 512 512"><path d="M373.4 0H138.6A138.7 138.7 0 0 0 0 138.6v234.8C0 449.8 62.2 512 138.6 512h234.8c76.4 0 138.6-62.2 138.6-138.6V138.6C512 62.2 449.8 0 373.4 0zM256 396c-77.2 0-140-62.8-140-140s62.8-140 140-140 140 62.8 140 140-62.8 140-140 140zm143.3-247a41.4 41.4 0 1 1 .1-82.8 41.4 41.4 0 0 1 0 82.8zm0 0"/><path d="M256 146a110.1 110.1 0 0 0 0 220 110.1 110.1 0 0 0 0-220zm0 0M399.3 96.3a11.4 11.4 0 1 0 0 22.7 11.4 11.4 0 0 0 0-22.7zm0 0"/></symbol><symbol id="left-arrow" viewBox="0 0 492 492">
  <path d="M464.3 207.4l.8.2H136l103.5-103.7c5-5.1 7.8-12 7.8-19.2 0-7.2-2.7-14-7.8-19l-16.1-16.2c-5-5-11.8-7.8-19-7.8-7.2 0-14 2.8-19 7.8L7.8 227C2.8 232 0 238.8 0 246c0 7.3 2.8 14 7.8 19.2l177.5 177.4c5 5 11.8 7.8 19 7.8 7.2 0 14-2.8 19-7.8l16-16.1a26.6 26.6 0 0 0 0-37.7L134.8 284.4h330a27.9 27.9 0 0 0 27.3-27.6V234a27.3 27.3 0 0 0-27.7-26.6z"/>
</symbol><symbol id="padlock" viewBox="0 0 402 402">
  <path d="M357.4 190.7c-5.3-5.3-11.7-8-19.4-8H329V128c0-35-12.6-65-37.7-90.2A123 123 0 0 0 201 0a123 123 0 0 0-90.2 37.7A123 123 0 0 0 73 127.9v54.8H64c-7.7 0-14.1 2.7-19.5 8-5.3 5.3-8 11.8-8 19.4v164.5c0 7.6 2.7 14 8 19.4 5.4 5.3 11.8 8 19.5 8h274c7.7 0 14.1-2.7 19.5-8 5.3-5.3 8-11.8 8-19.4V210c0-7.6-2.7-14-8-19.4zm-83.3-8H127.9V128c0-20.2 7.1-37.4 21.4-51.7A70.4 70.4 0 0 1 201 54.8c20.2 0 37.4 7.2 51.7 21.4A70.4 70.4 0 0 1 274 128v54.8z"/>
</symbol><symbol id="play" viewBox="0 0 48 48"><path fill="none" d="M0 0h48v48H0z"/><path d="M20 33l12-9-12-9v18zm4-29a20 20 0 1 0 0 40 20 20 0 0 0 0-40zm0 36a16 16 0 1 1 0-32 16 16 0 0 1 0 32z"/></symbol><symbol id="player-pause" viewBox="0 0 60 60">
  <path d="M30 0a30 30 0 1 0 0 60 30 30 0 0 0 0-60zm-3 46h-8V14h8v32zm14 0h-8V14h8v32z"/>
</symbol><symbol id="player-play" viewBox="0 0 60 60">
  <path d="M30 0a30 30 0 1 0 0 60 30 30 0 0 0 0-60zm15.6 30.8l-22 15A1 1 0 0 1 22 45V15a1 1 0 0 1 1.6-.8l22 15a1 1 0 0 1 0 1.6z"/>
</symbol><symbol id="vk" viewBox="0 0 304.4 304.4">
  <path fill-rule="evenodd" d="M262 175.6c10 9.8 20.7 19.1 29.8 30 4 4.8 7.7 9.8 10.6 15.4 4.1 8 .4 16.7-6.7 17.1h-44.3a34.2 34.2 0 0 1-28.3-11.5c-6.1-6.2-11.8-12.9-17.7-19.3a42 42 0 0 0-8-7.1c-6-4-11.3-2.7-14.8 3.6a46.6 46.6 0 0 0-4.6 20.7c-.5 10.4-3.7 13.1-14.1 13.6-22.5 1-43.7-2.3-63.5-13.6-17.4-10-31-24-42.7-40A538.1 538.1 0 0 1 1.5 84.4C-2 76.4.5 72.2 9.3 72c14.5-.3 29-.3 43.4 0 5.9 0 9.8 3.4 12 9a269 269 0 0 0 29.5 54.5c3.2 4.5 6.4 9 11 12.2 5.2 3.5 9.1 2.4 11.6-3.4 1.5-3.6 2.2-7.5 2.5-11.4 1.2-13.4 1.3-26.8-.7-40-1.2-8.4-6-13.8-14.2-15.4-4.3-.8-3.6-2.4-1.6-4.8 3.6-4.1 7-6.7 13.6-6.7h50.1c8 1.5 9.7 5 10.7 13v55.7c0 3 1.6 12.2 7.2 14.2 4.4 1.4 7.3-2.1 10-5 12-12.7 20.5-27.7 28.2-43.3a283 283 0 0 0 9.1-21c2.1-5.3 5.4-8 11.3-7.8h48.3c1.4 0 2.9 0 4.2.3 8.2 1.4 10.4 4.9 7.9 12.8-4 12.4-11.7 22.8-19.2 33.2-8 11.2-16.6 22-24.6 33.1-7.3 10.2-6.8 15.4 2.3 24.3zm0 0" clip-rule="evenodd"/>
</symbol></svg>