<svg xmlns="http://www.w3.org/2000/svg" viewBox="0 0 36 45" width="36" height="45"><g fill-rule="evenodd" clip-rule="evenodd"><path fill="#B07559" d="M18 1.2c9.4 0 17 7.6 17 17 .1 10.6-13.7 19.2-17 25.5C15.2 37.5.9 29.1 1 18.3 1 8.9 8.6 1.2 18 1.2z"/><path fill="#FFF" d="M26.1 22.4c-.6.3-1.1.6-1.6.8.4-1.1.8-2.4 1-4h.5c.7 0 1.2.3 1.4.9.2.6-.1 1.6-1.3 2.3zm-10.3-2.6c.3-.3.7-.5 1.1-.5.4 0 .8.2 1.1.5 0 0 .1.1.2.1s.1 0 .2-.1c.3-.3.7-.5 1.1-.5.4 0 .8.2 1.1.5.6.6.6 1.7 0 2.4-.4.5-1.9 1.5-2.3 1.8-.4-.3-1.9-1.4-2.3-1.9-.8-.6-.8-1.7-.2-2.3zm-.3 2.7c.6.6 2.4 2 2.5 2h.2c.1-.1 2-1.4 2.5-2 .7-.9.7-2.2 0-3-.4-.4-.9-.6-1.4-.6-.5 0-.9.2-1.2.5-.8-.7-2-.6-2.7.2-.7.7-.7 2 .1 2.9zm5-8.7c0 .4.3.7.7.7.4 0 .7-.3.7-.7 0-.2 0-.4-.1-.7-.1-.3-.1-.6-.1-1 0-.3 0-.4.1-.6.1-.3.1-.6.1-1.1 0-.4-.3-.7-.7-.7-.4 0-.7.3-.7.7 0 .4 0 .6-.1.8-.1.2-.1.5-.1.9 0 .5.1.9.1 1.2.1.2.1.4.1.5zm-2.8 0c0 .4.3.7.7.7.4 0 .7-.3.7-.7 0-.2 0-.5-.1-.8-.1-.4-.1-.9-.1-1.4 0-.4 0-.7.1-1.1-.1-.4 0-.8 0-1.5 0-.4-.3-.7-.7-.7-.4 0-.7.3-.7.7 0 .6-.1.9-.1 1.3-.1.4-.1.7-.1 1.3 0 .7.1 1.2.2 1.6 0 .2.1.4.1.6zm-2.9 0c0 .4.3.7.7.7.4 0 .7-.3.7-.7 0-.2 0-.4-.1-.7-.1-.4-.1-.7-.1-1.2 0-.3 0-.5.1-.8.1-.3.1-.6.1-1.2 0-.4-.3-.7-.7-.7-.4 0-.7.3-.7.7 0 .5 0 .7-.1 1-.1.3-.1.6-.1 1 0 .6.1 1 .1 1.4.1.2.1.4.1.5zm6 12.7c.7-.6 3.4-3.4 3.6-9.6H11.9c.2 6.2 2.9 9 3.6 9.6H20.8zm8-6.8c-.3-1.2-1.3-1.9-2.7-1.9h-.4c0-.5.1-1.1.1-1.6 0-.4-.3-.7-.7-.7H11.2c-.4 0-.7.3-.7.7 0 5.5 1.8 8.7 3.1 10.3h-3.4c-.4 0-.7.3-.7.7s.3.7.7.7H26c.4 0 .7-.3.7-.7s-.3-.7-.7-.7h-3.4c.3-.4.7-1 1.1-1.6.6-.1 1.8-.5 3.1-1.2 1.8-1.2 2.3-2.8 2-4z"/></g></svg>
