<svg xmlns="http://www.w3.org/2000/svg" viewBox="0 0 36 45" width="36" height="45"><g fill-rule="evenodd" clip-rule="evenodd"><path fill="#D61B22" d="M18 1.2c9.4 0 17 7.6 17 17 .1 10.6-13.7 19.2-17 25.5C15.2 37.5.9 29.1 1 18.3 1 8.9 8.6 1.2 18 1.2z"/><path fill="#FFF" d="M17.2 11.2c-.1 0-.2.1-.2.2v3.8c0 .1.1.2.2.2s.2-.1.2-.2v-3.8c.1-.1 0-.2-.2-.2zm9.1 9.5h-5.7c-.4 0-.7.3-.7.7v5.7h-3.8v-5.7c0-.4-.3-.7-.7-.7H9.7v-3.8h5.7c.4 0 .7-.3.7-.7v-5.7h3.8v5.7c0 .4.3.7.7.7h5.7v3.8zm.7-5.1c.4 0 .7.3.7.7v5.1c0 .4-.3.7-.7.7h-5.7v5.7c0 .4-.3.7-.7.7h-5.1c-.4 0-.7-.3-.7-.7v-5.7H9c-.4 0-.7-.3-.7-.7v-5.1c0-.4.3-.7.7-.7h5.7V9.9c0-.4.3-.7.7-.7h5.1c.4 0 .7.3.7.7v5.7H27zm-16.2 2.1c-.1 0-.2.1-.2.2v1.8c0 .1.1.2.2.2s.2-.1.2-.2v-1.8c0-.1-.1-.2-.2-.2zm6.4 4.2c-.1 0-.2.1-.2.2v3.8c0 .1.1.2.2.2s.2-.1.2-.2v-3.8c.1-.1 0-.2-.2-.2z"/></g></svg>
