<svg xmlns="http://www.w3.org/2000/svg" viewBox="0 0 36 45" width="36" height="45"><g fill-rule="evenodd" clip-rule="evenodd"><path fill="#A56224" d="M18 1.2c9.4 0 17 7.6 17 17 .1 10.6-13.7 19.2-17 25.5C15.2 37.5.9 29.1 1 18.3 1 8.9 8.6 1.2 18 1.2z"/><path fill="#FFF" d="M26.3 17.8v-1.1l1.3.6-1.3.5zm-.4.2l-2.7 1c-.1 0-.1.1-.1.1-1.1-.6-3.1-.9-5.1-.9-2 0-4 .3-5.1.9l-.1-.1-4.5-1.6 9.7-4.1 7.9 3.4V18zm-3 3.8V20c-.1-.1-.1-.1-.1-.2v-.4c-.8-.4-2.5-.8-4.8-.8s-4 .4-4.8.8v.4c0 .1-.1.1-.1.2v1.8c1.7-.7 4.5-.7 4.9-.7.4 0 3.2 0 4.9.7zM18 24.2c-2.7 0-4.4-.5-4.9-.9.4-.4 2.2-.9 4.9-.9s4.4.5 4.9.9c-.5.4-2.2.9-4.9.9zm11.8-7.5l-11.5-4.9c-.2-.1-.4-.1-.5 0L6.2 16.7c-.3.1-.4.4-.4.6 0 .3.2.5.4.6l5.5 2v3.3c0 2.2 5.6 2.2 6.3 2.2.6 0 6.3-.1 6.3-2.2V20l1.6-.6v3.3c-.3.1-.5.3-.5.6v1.9c0 .4.3.7.7.7.4 0 .7-.3.7-.7v-1.9c0-.3-.2-.5-.5-.6v-3.5l3.4-1.2c.3-.1.4-.3.4-.6.1-.3-.1-.6-.3-.7z"/></g></svg>
