<svg xmlns="http://www.w3.org/2000/svg" viewBox="0 0 36 45" width="36" height="45"><g fill-rule="evenodd" clip-rule="evenodd"><path fill="#00ADEE" d="M18 1.2c9.4 0 17 7.6 17 17 .1 10.6-13.7 19.2-17 25.5C15.2 37.5.9 29.1 1 18.3 1 8.9 8.6 1.2 18 1.2z"/><path fill="#FFF" d="M25.6 15L18 21l-7.6-6v-1.3h15.3V15h-.1zm0 8.7v-8.1l-4.8 3.8 4.8 4.3zm-14.8.2h14.4l-4.8-4.2-2.3 1.8h-.2l-2.3-1.8-4.8 4.2zm-.4-8.3v8.1l4.8-4.3-4.8-3.8zm15.9-3.2H9.7c-.4 0-.7.3-.7.7v11.5c0 .4.3.7.7.7h16.6c.4 0 .7-.3.7-.7V13.1c0-.4-.3-.7-.7-.7z"/></g></svg>
