<svg xmlns="http://www.w3.org/2000/svg" viewBox="0 0 36 45" width="36" height="45"><g fill-rule="evenodd" clip-rule="evenodd"><path fill="#4B2F91" d="M18 1.2c9.4 0 17 7.6 17 17 .1 10.6-13.7 19.2-17 25.5C15.2 37.5.9 29.1 1 18.3 1 8.9 8.6 1.2 18 1.2z"/><path fill="#FFF" d="M24.9 18.8h-2.8l.2-2.2h3l-.4 2.2zm-.7 3.5h-2.5l.3-3h2.8l-.6 3zm-.5 2.6h-2.2l.2-2.2h2.4l-.4 2.2zM18 22.3v-3h3.6l-.3 3H18zm3 2.6h-3v-2.2h3.2l-.2 2.2zm-3.5-6.1h-3.6l-.2-2.2h3.8v2.2zm0 3.5h-3.3l-.3-3h3.6v3zm0 2.6h-3l-.2-2.2h3.2v2.2zm-5.7 0l-.4-2.2h2.4l.2 2.2h-2.2zm-1-5.6h2.8l.3 3h-2.5l-.6-3zm-.5-2.6h3l.2 2.2h-2.8l-.4-2.2zm7.7 0h3.8l-.2 2.2H18v-2.2zm8.6-1.1c-.1-.2-.3-.2-.5-.2h-3l-2.7-2.7c.1-.2.2-.5.2-.7 0-.7-.6-1.3-1.3-1.3-.7 0-1.3.6-1.3 1.3 0 .7.6 1.3 1.3 1.3.3 0 .5-.1.8-.2l2.4 2.3h-9.1l2.4-2.3c.2.2.5.2.8.2.7 0 1.3-.6 1.3-1.3 0-.7-.6-1.3-1.3-1.3-.7 0-1.3.6-1.3 1.3 0 .3.1.5.2.7l-2.7 2.7H9.5c-.2 0-.4.1-.5.2-.1.2-.2.4-.1.6l1.8 9.6c.1.3.3.6.7.6h13c.3 0 .6-.2.7-.6l1.8-9.6c-.1-.3-.2-.5-.3-.6z"/></g></svg>
