<svg xmlns="http://www.w3.org/2000/svg" viewBox="0 0 36 45" width="36" height="45"><g fill-rule="evenodd" clip-rule="evenodd"><path fill="#007532" d="M18 1.2c9.4 0 17 7.6 17 17 .1 10.6-13.7 19.2-17 25.5C15.2 37.5.9 29.1 1 18.3 1 8.9 8.6 1.2 18 1.2z"/><path fill="#FFF" d="M23 23.1c-.4 0-.7-.1-1.1-.4-.3-.2-.6-.2-.8 0-1.4 1.2-3.4 1-4.5-.5-.1-.2-.3-.3-.5-.3-.1 0-.3 0-.4.1-.5.3-1 .5-1.6.5-1.7 0-3-1.5-3-3.4 0-1.6 1-3 2.5-3.3.2 0 .4-.2.5-.4.1-.2.1-.4 0-.6-.1-.2-.1-.4-.1-.6 0-1 .9-1.7 1.7-1.3.2.1.4.1.6 0 .2-.1.3-.3.3-.5.2-1 1-1.8 1.9-1.8 1.1 0 1.9 1 1.9 2.2 0 .2 0 .3-.1.5-.1.3 0 .5.3.7.2.2.5.2.7 0 .9-.5 1.8.3 1.8 1.3 0 .2 0 .4-.1.6-.1.2 0 .5.1.7.2.2.3.5.3.7 0 .1 0 .2-.1.3-.1.3.1.7.4.8.8.3 1.4 1.2 1.4 2.2-.1 1.5-1 2.5-2.1 2.5zm-3.6-8.5c-.4.3-.9.4-1.4.3-.5-.1-1-.5-1.3-1-.1-.1-.2-.1-.3-.1-.1.1-.1.2-.1.3.4.6.9 1 1.6 1.2h.5c.5 0 .9-.1 1.3-.4.1-.1.1-.2.1-.3-.2 0-.3-.1-.4 0zm2.7 3.5c-1.4.5-2.1 2.1-1.6 3.6 0 .1.1.2.2.2h.1c.1 0 .2-.2.1-.3-.4-1.3.2-2.6 1.4-3.1.1 0 .2-.2.1-.3 0-.1-.1-.1-.3-.1zm-6.7-2.2c-.1-.1-.2 0-.3.1-.1.1 0 .2.1.3 1.4.8 2 2.7 1.3 4.2-.1.1 0 .2.1.3h.1c.1 0 .2-.1.2-.1.9-1.8.2-4-1.5-4.8zm3.3 11h-1.2v-2.2c.4.2.8.2 1.2.3v1.9zm6-9.2v-.2c0-.5-.1-.9-.4-1.3 0-.2.1-.4.1-.6 0-1.6-1.3-2.9-2.7-2.8-.1-1.8-1.5-3.3-3.3-3.3-1.4 0-2.6.9-3 2.2-1.5-.1-2.8 1.2-2.8 2.8v.5c-1.7.7-2.9 2.4-2.9 4.4 0 2.6 2 4.7 4.4 4.7.6 0 1.2-.1 1.8-.4.1.1.2.2.3.2v3h-1.8c-.4 0-.7.3-.7.7s.3.7.7.7h7.3c.4 0 .7-.3.7-.7 0-.4-.3-.7-.7-.7H20v-2c.5-.1 1-.4 1.5-.7.4.2.9.3 1.4.3 1.9 0 3.4-1.6 3.4-3.7.1-1.3-.6-2.5-1.6-3.1z"/></g></svg>
