<svg xmlns="http://www.w3.org/2000/svg" fill-rule="evenodd" clip-rule="evenodd" image-rendering="optimizeQuality" shape-rendering="geometricPrecision" text-rendering="geometricPrecision" version="1" viewBox="0 0 2461 1717">
  <g fill-rule="nonzero">
    <path fill="#553F2F" d="M2202 1715h-13v-90h-37l-2 57c-1 20-8 35-24 35l-9-2v-12l7 2c7 0 12-4 13-30l2-62h63v102zm-179-89l-18 47h35l-17-47zm47 89h-15l-11-31h-43l-11 31h-14l39-102h15l40 102zm-124-90h-34v90h-13v-90h-34v-12h81v12zm-191 37h26c12 0 22-4 22-19 0-16-11-18-24-18h-24v37zm28-49c19 0 34 8 34 29 0 23-15 31-35 31h-27v42h-13v-102h41zm-141 13l-18 47h35l-17-47zm47 89h-15l-11-31h-42l-12 31h-14l40-102h15l39 102zm-207-12h27c13 0 26-1 26-18 0-18-15-18-29-18h-24v36zm0-46h24c11 0 25-1 25-16 0-16-12-16-24-16h-25v32zm30-44c17 0 32 7 32 26 0 10-6 18-15 21 13 3 20 13 20 26 0 23-19 29-38 29h-42v-102h43zm-140 41l44 61h-17l-36-52-17 16v36h-13v-102h13v51l51-51h18l-43 41zm-226-48c-11 0-20-8-21-19h7c2 7 7 11 14 11 8 0 12-4 14-11h8c-2 11-9 19-22 19zm-39 7h13v86l50-86h16v102h-13v-86l-50 86h-16v-102zm-62 102h-13v-102h13v102zm-62-49h-26v37h26c15 0 22-6 22-18 0-13-7-19-22-19zm5 49h-44v-102h13v41h31c20 0 31 11 31 31 0 19-11 30-31 30zm-106 0h-13v-48h-53v48h-14v-102h14v43h53v-43h13v102zm-172-49h-29v37h29c15 0 22-6 22-18 0-13-7-19-22-19zm4-12c20 0 31 11 31 31 0 19-11 30-31 30h-47v-102h70v12h-56v29h33zm-186-41h14l30 62 28-62h15l-39 81c-9 17-17 23-27 23-5 0-10-1-13-3v-11c2 1 5 3 12 3s11-7 15-14l1-4-36-75zm-54 102h-13v-90h-37l-2 57c-1 20-8 35-23 35l-10-2v-12l7 2c7 0 13-4 13-30l2-62h63v102zm-177-61l44 61h-16l-37-52-17 16v36h-13v-102h13v51l51-51h18l-43 41zm2070-400h-100v5c0 78-13 130-38 177h138v-182zm34 293v-58h-203v58h-60v-111h22c33-45 45-105 45-189v-44h224v233h32v111h-60zm-544-112c7 3 18 6 30 6 19 0 28-12 28-24 0-13-7-26-13-37l-83-177h69l64 151 63-151h67l-96 210c-26 59-49 81-95 81-15 0-28-4-34-6v-53zm-326 4h92c27 0 53-5 53-39s-28-39-56-39h-89v78zm0-120h86c23 0 47-5 47-33 0-29-23-34-47-34h-86v67zm103-116c50 0 91 22 91 72 0 28-16 49-39 59 30 8 52 30 52 70 0 55-42 85-96 85h-171v-286h163zm-291 286h-62v-123h-145v123h-63v-286h63v108h145v-108h62v286zm-397 0h-63v-198h-1l-136 198h-70v-286h62v198h1l136-198h71v286zm-566-152h85c28 0 48-9 48-41 0-30-20-41-48-41h-85v82zm90-134c61 0 104 29 104 92 0 62-44 91-101 91h-93v103h-62v-286h152zm-250 54H62v232H0v-286h220v54z"/>
    <path fill="#097F43" d="M1568 284l4 4-4-4zm6-5l10 3c-5 2-8 1-10-3zm-571-6c-3 0-6 1-7 4 0-5 3-6 7-4zm-43-40c1 2 4 1 5 3-2 0-4-1-5-3zm11 23h6c-2 2-4 1-6 0zm383 165c-5 0-5-3-4-6 0 2 1 5 4 6zm232-139l3-3c0 2-1 3-3 3zm-210 165h6c-2 2-4 2-6 0zm133-336zm3 6zm130 571c-5 0-6-4-6-7 0-2 1-6 5-5 3 1 8 2 8 6 0 5-5 4-7 6zm-15-84c-3 3-4 10-12 7h-3c-6 0-14 2-14-6-1-7 7-5 12-7l5-2c4 0 9-2 13 1 2 2 1 5-1 7zm-37-321c-1 2-3 1-4-1l-1 1-1-1c-4 3-7 8-12 6-3 0-5 0-4-4 1-3 4-3 6-5-2-6-2-12 2-18 7 4 6 14 13 18 3 1 3 2 1 4zm-43 289c-4 6-6 4-11 8-6 5-21 5-21 5s-10 6-19 17c-10 10-4-5 0-17 4-13 7-7 25-14s9-5 22-15c14-11 4 0 8 6 3 5 1 4-4 10zm-122-318l-13 18c-5 7 2 1-7 10l-12 12c-7 6-14 14-18 12-3-2 3-8 3-8s7-6 15-17l11-15c4-8-4-6 9-14 13-7 19-12 19-12s-1 6-7 14zm-41 197c-3 2-7 3-10 0-2-1-1-4 2-4h6c3 0 4 3 2 4zm-25-32l-5 2-8 6c-3 2-7 3-9-2s1-7 5-8l8-2 5-3c3-3-1-11 6-9 4 1 5 7 6 11 1 7-5 3-8 5zm6 233c-12 9-28 13-41 21-7 5-13 12-24 16 12-19 26-34 42-47 5 4 12 6 19 5 3 0 5 0 4 5zm-48-49c1-8 8-2 13-1 6 0 5 4 3 8-6 13-15 23-25 33-4-16 6-27 9-40zm-7-410c1-4 2-9 7-9 4 1 5 3 5 6-1 5-4 8-9 8-3 0-3-3-3-5zm-35 429c-4 15-8 30-16 44-4 8-8 9-13 1-8-13-16-25-17-45-3-9 7-14 16-19l8-1c28-8 29-8 22 20zm77 303c8-1 25 1 30 2h-4l-2 10 6 1-1 5-6-1-1 9 6 1-1 2-7-1s-20-1-33 4l-5-19c-2-10 8-11 18-13zm38 57l156 22v11l3 15-78-9-84-12-1-6c0-7 3-14 4-21zm-2-29l172 18 1 2v2l-174-20 1-2zm1-15l168 15v6l-168-16v-5zm1-15l189 14c-6 1-11 2-15 5l-174-14v-5zm2-14l200 12-1 5-200-12 1-5zm3-13l200 9-2 6-199-10 1-5zm7-13l197 7-2 5-198-8 3-4zm181 91l-2 3-14-2v-3l16 2zm-19-14v-2-5l23 2-1 7-22-2zm25 41c0 9-5 25-7 35l-23-4c-1-7-3-12-2-17 0-10 8-16 16-17 8-2 15-7 16 3zm-247-10c0-5 0-11 2-15l37 5v10c-2 5-2 12-1 17l-34-5-4-12zm-125-246c-20-24-20-30-1-57 10 20 13 38 1 57zm-39-65l-6-49c-1-2-1-5 2-6 4 0 5 2 7 4 12 16 12 30-3 51zm-16-541c-5 16-4-1-16-13-12-13 6-13 16-24 0 0 4 1 4 3l3 15c1 10-2 3-7 19zm-9 423c-5-2-6 2-10-11-4-12-1-10-6-18-5-7-1-3-5-10-5-7-8 3-8-11v-16c0-7 2-28 8-20 5 8 3 6 6 16 4 10 3 9 5 17 2 7-4 1 3 14s7 11 7 18-3 2 0 10c4 9 0 11 0 11zm-90 54c3-4 7-1 11-2l3 8c2 4 6 2 8 3 3 2 6 8 7 12s10 7 14 9l19 18c4 4 13 18 17 25l7 26c-44-21-67-58-86-99zm-15-133c11-4 13 5 17 9-7 1-11-4-17-9zm-43 150c-3-2-6-4-5-8 3-5 6-1 9 0 14 1 23 11 35 17-16 4-28 0-39-9zm-9-37c-6 0-6-4-10-7s-11-5-14-11-3-8 0-14c3-5 2-15-2-20-4-6-6-17-3-14 4 2 13 7 14 15 0 7 0 14 5 18s2-1 8 10c5 11 11 14 15 19 3 6 9 11 6 15-4 4-15-10-15-10l-4-1zm-36-233c-3-12-3 0-3-12 0-11-2-21 3-18 4 3 0 14 9 18 8 4 16 0 19 4s1 2 2 8c2 6-3 7 1 15 3 7 0 13 0 13s-6 3-11-3c-5-7-4-12-9-13-6-1-8-1-11-12zm-24-133c2-4 5-2 9-1l15 4c2 0 4 0 5 3 5 6 13 10 12 20-2 5-4 3-6 0-9-8-18-15-30-19-3 0-7-2-5-7zm67 43c3 2 5 6 2 8-4 3-8 1-9-4-3-1-5-3-8-7 6-1 11-1 15 3zm6 154c0 13 5 16 13 19s8-4 11 6c3 11 15 24 15 24h-8c-11-3-14-1-18-8s-1-9-8-13-11 3-14-6l-4-15c-1-3 6-10 7-10 1 1 7-10 6 3zm17-237s3-3 5 1 1 7 6 10l8 8c6 5 3 7 2 10 0 3 0 6 2 11 2 6 2 7 9 15 8 9 0 8-2 12s-1 8 0 18c1 9-9 12-10 1l-4-17-10-21c-3-9 0-9 0-13s-1-5-6-12c-6-7-3-11 0-23zm60 340l-2-5c-1-3 1-4 3-3l4 3c1 3-2 2-5 5zm-21-149c3-2 3-13 7-4 3 8 8 8 12 10 3 2 6 0 9 5s4 4 3 11l-3 12c0 2 6-2 10 6 5 7 10 8 7 12s-11 6-11 6c-4-2-10-3-15-9-6-6-4-9-9-12-4-4 0 8-4-4l-6-18c-1-7-2-13 0-15zm61 240l6 23h-2c-5 1-7-4-11-6-3-2-10-6-13-10l-9-12c-2-2-5-5-4-8 1-4 7-4 9-4l1-2c14-2 20 6 23 19zm10-314c9 6 14 9 6 12-8 2-10 13-14 19-4 5-11 19-15 9l-3-15c7-10 16-31 26-25zM904 533c-5-2-4-9-6-12-2-2-7-3-15 0-9 3-8 0-9-9-1-8 4-7 10-5 7 2 8-1 16 0 8 0 4 2 8 5 3 4 3 0 6 9 3 10 8 12 8 12-1 15-13 3-18 0zm3 33c-5 5-2 8-9 10-8 1-4-6-14 4-11 10-5 10-14 11-10 1-7-2-17 0-10 1-10 5-20 3s-13-2-14-8c0-5-4-10 5-12 8-3-7-5 17-5s24-7 33-7h15c7 4 23-1 18 4zm-70-200c2-1 1-7 10 1 8 9-4-1 10 11s-2 2 17 13c18 10 10-2 18 10 8 13 15 18 8 15s7 20-2 12c-10-7-11-10-11-10-8-4-13-3-19-7-5-4-5-1-10-7l-7-9c-6-4-9 2-12-11s-3-18-2-18zm8-57c6 8 9 17 14 19s7 0 11 8c3 7 10 12 7 15-4 2-7 0-7 0-7-3-11 1-13-7-2-7-5-14-8-16-2-1-4 3-4-6s-6-20 0-13zm4-47c6 0 4 5 5 8-1 2 0 7-4 5-5-1-5-5-5-9 0-3 1-4 4-4zm912 187c6-11 9-24 12-37 2-9-3-16-7-22-3-7-9-3-15-2-4 1-9 1-5-7 5-9-2-11-9-13-4-2-9 2-13-3-2-4-16 4-9-9 3-5 11-1 14-7-2-5 2-4 5-5 8-1 11-6 11-15 1-9-6-11-13-12-11-6-20-17-34-18v1l-2 1c-3 5-6 10-13 11-4 0-9 0-9-5s4-5 7-5c5 0 11 1 15-1l2-2c-3-11 10-21 3-33l4-4c5-4 1-7-2-10-1-5-5-3-8-4-10-3-21 3-29-6-4-1-8 0-11 3-10 4-22-6-23-21 5-13 16-26-6-34-3-1-3-4-3-6-6-11-6-23-9-35-6-4-9-2-12 5-1 3-1 6-6 7-4 0-37-9-37-13 0-11-9-11-16-15-2-1-5-3-4-6 0-3 3-3 5-3 5-1 8-3 7-8-1-4-5-5-9-5-6 0-12 2-19-2-3-2-7 3-6 8-2 3-4 2-5 0-3-1-2-4-3-6-3-6-11-3-15-7l-4-2 2-4-1-5-1-5-2-2c-8-8-10-18-11-29l-3-12c-1-3-4-4-5-2-3 7-12 6-15 12-6 13-18 7-27 9s-11-7-13-14l-2-12c-1-12-9-16-19-9-3 2-6 1-9 0-5-3-11-2-16-2-17-1-36 8-49-11-5-2-10-3-10 5 0 5-4 5-8 7-10-1-17-4-21-14-2-5-7-8-12-10-4-2-12-4-13 5 0 5-3 9-7 10-6 1-5-6-7-9-2-4-2-11-9-10-6 1-5 7-5 11 0 8-3 15-11 9s-11 0-15 4c-11 11-25 15-36 6-9-8-15-18-30-15-4 1-2-5-2-8-1-2-1-5-4-4-2 0-4 1-5 3-1 12-9 6-16 5 0 5 2 10 0 13-8 11-12 24-14 37 0 6-4 4-8 3-14-1-24-9-33-19-7-7-20-6-24 3-5 10-14 7-17 4-7-8-11-5-18-2-4 2-9 1-9 7s0 15 5 17c20 6 4 13 1 18-2 4-8 5-12 8-1 2-6 2-5 7 1 9 5 15 14 19s11 13 5 16c-9 5-20 1-30 2-6 0-4-9-6-13-2-5-4-13-11-5 0 5-3 11-7 8-7-7-11-6-15 2l-7 1c-6-2-12-9-17 0l-8 18c-1 4-1 10 3 11 12 4 7 13 7 20l-1 2-2 3h-2c-4-3-3-8-6-10-10 0-5 10-9 14-2 5 0 12-6 13-8 2-6-6-9-10-1-3-4-6-8-5-3 1-5 3-5 7 1 3 0 7-1 10-3 2-4-3-6-3l-2-2c-4-6-6-13-14-6-4 3-5 8-3 12 7 12 3 27 7 40 2 6 1 13-5 19-4 3-8 5-11-1-5-12-10-9-17-2l-9 9c-1 2-5 3-3 6l6 3c2 2 6 0 6 4 0 2-2 3-4 2-4-2-10 2-14-3-2-3-5-2-8-1-5 5-17-2-15 5 2 9-5 22 9 28 6 3 8 12 15 15 4 2 3 8 1 12-3 4-7 7-14 5-17-5-26-1-30 13-2 9 8 16 16 21l1 2c0 6 2 10 9 12 5 1 11 1 16 3 2 6 11 5 12 12-5 0-11-5-13 3-1 4-5 4-6 2-5-10-16-5-23-10-4-2-8-4-12 0s-2 8 0 12c3 9 2 15-9 15-4 3-13-5-14 7 0 3-5 3-8 0-1-1-3-6-4-2-2 8-14 8-12 18 2 8 9 11 16 12 8 2 13 7 13 14-1 8 9 14 5 23l4 3c11-3 20 8 31 4l4 4c-1 7 11 7 9 16l-3 3v4c0 2 0 3 2 5 5 1 12-7 15 3a35 35 0 0 0 0 7c2 6-1 9-6 11-10 2-20 6-29 10h-3l-2 3c-6 8-15 15-8 28 5 10 14 16 18 26h5c9 0 18 9 14 17-8 16 14 11 13 22 0 0 4-1 5-3 2-7 7-7 13-4 2 2 5 1 5-2 2-15 17-10 25-15 2-1 5 0 6 3 1 2 1 4-1 5-11 4-6 13-7 20 3 5 5 11 11 9 7-1 8-7 8-13l1-5c-1-4 1-6 5-5 2-1 5-2 7 0 2 6 1 11 0 16 5 10 7 18 23 18 13 1 13 2 9-9-2-4 0-7 3-9 4-2 5-5 5-10-4-16-2-18 14-22 3-1 7 2 9-4 2-7 29-19 36-16 12 5 24 13 34 24-7 3-14-2-21 4 10 4 18 9 30 7 21-4 44-6 57 19 12 21 29 36 50 49 30 18 45 46 39 83-3 14-1 28 2 42 9 35-20 107-20 107-22 32-79 38-108 40-30 2-105 20-143 26-96 17-147 44-147 44h995c-29-9 8-6-149-36 2-8 8-28 8-38 0-9 5-18-2-20l-1-2-7-1 2-3 8 1 3-11-8-1 1-7 9 1 6-30h-11l1-6 11 1 1-10h-11l2-7h10l2-10h-10l2-5 10 1 2-7-227-5-3 4h6l-3 4h-5l-3 9h5l-2 5h-4l-2 7h5l-1 5h-4l-1 5v2c-10-2-31-3-43 3-17 8-8 22-5 30l2 7c-4 2-8 6-5 19 1 11 4 17 7 22-33-5-41-15-57-66-10-26-6-41-11-68-5-31-2-59 18-83 5-9 13-18 9-29 1-6 1-13 5-18 15-20 36-35 54-51a334 334 0 0 0 73-23l20-6c5-1 7-7 12-9 10-4 21-8 29 5 4-3 9 5 12-3l5-2c3 1 5 3 8 3l2 1 1-1c5 2 7-1 8-6 3-4 6-3 9 0 4 5 7 5 9 0s5-5 8-3c6 6 12 7 21 7-4 9-5 16 7 18 5 0 9 5 11 9 4 7 8 11 14 0 2-5 8-3 8-1 1 15 28 22 11 43 13-1 22 12 32 8 14-5 26-6 40-1 4 2 6-1 4-7-2-5 2-16 7-19s10-6 17-5c5 1 9 0 9-6 0-11 8-17 15-22 5-4 8-9 2-13-9-6-7-15-7-23h3c17 8 14-10 18-15 6-9-7-5-9-8-3-6-18 0-13-13-3-5-7-6-11-4l-3 1c-2 0-4 1-6-1l-5-5v-3c5-3 2-10 6-14 6-7 3-12-5-14-7-1-9-7-11-12-8-6-7-10 2-14 12-5 21 1 31 7 4 3 8 7 12 3 5-4 5-9 2-14-5-6-4-9 4-9 11 1 7-4 3-8-6-7-9-13-8-22 1-5-1-8-5-10-3-3-2-6 0-8 5-3 4-8 5-13 3-4 8-2 12-5z"/>
  </g>
</svg>
