<svg xmlns="http://www.w3.org/2000/svg" viewBox="0 0 36 45" width="36" height="45"><g fill-rule="evenodd" clip-rule="evenodd"><path fill="#00486E" d="M18 1.2c9.4 0 17 7.6 17 17 .1 10.6-13.7 19.2-17 25.5C15.2 37.5.9 29.1 1 18.3 1 8.9 8.6 1.2 18 1.2z"/><path fill="#FFF" d="M23.8 18.8H18v-6.1h5.8v6.1zm-1.6 2.9c.4 0 .7.3.7.7 0 .4-.3.7-.7.7-.4 0-.7-.3-.7-.7 0-.4.3-.7.7-.7zm0 1.9c.7 0 1.2-.5 1.2-1.2s-.5-1.2-1.2-1.2-1.2.5-1.2 1.2c.1.7.6 1.2 1.2 1.2zm-8.9-1.9c.4 0 .7.3.7.7 0 .4-.3.7-.7.7-.4 0-.7-.3-.7-.7 0-.4.3-.7.7-.7zm0 1.9c.7 0 1.2-.5 1.2-1.2s-.5-1.2-1.2-1.2-1.2.5-1.2 1.2.6 1.2 1.2 1.2zm10.5-1.2v-3.1h-12V23.2c0 .5.4.8.8.8h10.3c.5 0 .8-.4.8-.8v-.8h.1zm0 3.9H23v-.9c.3 0 .6-.1.8-.2v1.1zm-11.2 0h-.8v-1.1c.3.1.5.2.8.2v.9zm-.8-13.6h5.8v6.1h-5.8v-6.1zm.8-1h10.3c.4 0 .7.3.8.6H11.8c.1-.4.4-.6.8-.6zm10.3-1.4H12.6c-1.2 0-2.2 1-2.2 2.2V26.6c0 .5.4 1 1 1H13c.5 0 1-.4 1-1v-1.3h7.6v1.3c0 .5.4 1 1 1h1.6c.5 0 1-.4 1-1V12.5c-.1-1.2-1.1-2.2-2.3-2.2z"/></g></svg>
