<svg xmlns="http://www.w3.org/2000/svg" viewBox="0 0 36 45" width="36" height="45"><g fill-rule="evenodd" clip-rule="evenodd"><path fill="#D81257" d="M18 1.2c9.4 0 17 7.6 17 17 .1 10.6-13.7 19.2-17 25.5C15.2 37.5.9 29.1 1 18.3 1 8.9 8.6 1.2 18 1.2z"/><path fill="#FFF" d="M10.5 13c-.4 0-.7.3-.7.7v10.2c0 .4.3.7.7.7.4 0 .7-.3.7-.7V13.7c0-.4-.3-.7-.7-.7zm10.7 6.9h-6.3v-2.1h6.3v2.1zm.6-8.2c-.4 0-.7.3-.7.7v4.9h-6.3v-4.9c0-.4-.3-.7-.7-.7-.4 0-.7.3-.7.7v12.8c0 .4.3.7.7.7.4 0 .7-.3.7-.7v-4.9h6.3v4.9c0 .4.3.7.7.7.4 0 .7-.3.7-.7V12.4c0-.3-.3-.7-.7-.7zm1.8 0c-.4 0-.7.3-.7.7v12.8c0 .4.3.7.7.7.4 0 .7-.3.7-.7V12.4c0-.3-.3-.7-.7-.7zm1.9 1.3c-.4 0-.7.3-.7.7v10.2c0 .4.3.7.7.7.4 0 .7-.3.7-.7V13.7c-.1-.4-.4-.7-.7-.7zm-13.1-1.3c-.4 0-.7.3-.7.7v12.8c0 .4.3.7.7.7.4 0 .7-.3.7-.7V12.4c-.1-.3-.4-.7-.7-.7z"/></g></svg>
