<svg xmlns="http://www.w3.org/2000/svg" viewBox="0 0 48 48"><path fill="none" d="M0 0h48v48H0z"/><path d="M15 43A21 21 0 0 1 3.1 26h-3A24 24 0 0 0 24 48h1.3l-7.6-7.7L15 43zm1.8-13a3 3 0 0 1-1-.3c-.4 0-.6-.2-.8-.4a2 2 0 0 1-.6-.8l-.1-.9h-2.6c0 .7.1 1.4.4 2 .3.5.6 1 1.1 1.3l1.6.8a7 7 0 0 0 4 0c.7-.2 1.2-.5 1.7-.9s.8-.9 1.1-1.4a4.7 4.7 0 0 0 .3-3.1l-.5-1-.8-.9-1.2-.6a4.3 4.3 0 0 0 1.8-1.5l.5-1 .1-.9c0-.7-.1-1.3-.4-1.9-.2-.5-.5-1-1-1.4l-1.6-.8a6.8 6.8 0 0 0-4 0c-.6.2-1.2.5-1.6 1-.4.3-.8.7-1 1.3-.3.5-.4 1-.4 1.7h2.6c0-.4 0-.7.2-1l.5-.6.7-.5a3 3 0 0 1 1-.1c.8 0 1.4.2 1.8.6.4.4.6 1 .6 1.7 0 .4 0 .7-.2 1a2 2 0 0 1-.5.7c-.2.3-.5.4-.8.5-.3.2-.7.2-1.2.2H15v2h1.5l1.2.2 1 .5.5.8.2 1.1c0 .8-.2 1.5-.7 1.9-.5.4-1 .6-1.9.6zM34 18a6.5 6.5 0 0 0-2.2-1.5c-1-.3-1.9-.5-3-.5H24v16h4.6c1.1 0 2.1-.2 3-.5a6.5 6.5 0 0 0 3.8-4c.4-.9.5-2 .5-3.1v-.8a9 9 0 0 0-.5-3.1 7 7 0 0 0-1.5-2.4zm-.8 6.4c0 .8 0 1.6-.3 2.3a3.8 3.8 0 0 1-2.3 2.8 5 5 0 0 1-2 .3h-1.7V18.2h2c1.4 0 2.5.5 3.2 1.4.8 1 1.2 2.3 1.2 4v.8zM24 0h-1.3l7.6 7.7L33 5a21 21 0 0 1 11.9 17h3A24 24 0 0 0 24 0z"/></svg>
