<svg xmlns="http://www.w3.org/2000/svg" fill-rule="evenodd" clip-rule="evenodd" image-rendering="optimizeQuality" shape-rendering="geometricPrecision" text-rendering="geometricPrecision" viewBox="0 0 116.3 115.5">
  <path fill="#00823C" d="M110.3 66.4zM94.5 52.5zm-2.4-7zm13.5-8.8zm-16.4 4zm-34-33.8zm1.8 0zM.3 72.9v-.1C-.3 65 .3 56 .3 48.1.2 43.4 0 37.7 6 37c1.5-.2 11-.1 12.8-.1v41.6H11l-5.2-.1c-3-.6-4.6-2.3-5.5-5.6zm75.2-1.4l.5-.3.4-.3h.2v-.1h.1l.3-.3.3-.2 1.1-1 .3-.2 1.7-2c.2-.3.4-.3.7-.9l.2-.3v-.2c.9-1.4 1.1-2.4 1.5-3v-.1l.1-.6.2-.6v-.2l.2-.8v-.6l.2-1.6V57v-.6l-.1-.4v-.6l-.2-.7v-.2-.1L83 54l-.2-.4v-.1l-.7-2.1v-.1l-.2-.2-.4-1-.2-.2-.3-.5v-.1l-.5-.7-.1-.1-.1-.2-.2-.2-.2-.2v-.1l-.5-.5-1.8-1.8-.3-.2-.2-.2-.3-.2-.8-.5H76l-.2-.1-.7-.5v-.1l-.4-.1-.4-.2-.7-.3-.4-.1-1.1-.4v-.1h-1.7l-.2.2-.3.1-.4.3-.1.1-.1.1-.1.3-.3.7v.6l.1.3c0 .2 0 .5.3.8l.5.5c.2.2.7.4.9.4l.4.2h.4l.7.3c.5.2 1.4.7 1.7 1l1.4 1c.4.3.8.7 1.1 1.2l.3.4.5.6.2.4c.5.7.7 1.5.8 1.6v.1c.2.2 0 0 .1.3l.3 1.3c.3 1 .3 2.8.1 3.8v.8c-.2.2-.3 1-.4 1.3l-1 2.1-.9 1.3-.1.1-.1.1v.1l-.2.2-.2.2v-.1l-.2.4-.2.1-.2.2v-.1c-.2.5-1 .9-1.3 1.1l-.5.3-.7.4-.6.3H72c-.1 0-8.9-9-9.2-9V17.5v-3.9-.5l-.2-.6c-.2-.8.2-.2-.6-2l-.5-.8c-.2-.4 0-.3-.4-.6L61 9c-.4-.5 0-.2-.5-.5l-.2-.3H60l-.2-.2-.1-.1-.4-.2h-.1l-.7-.4-.3-.2C57.8 7 57.6 7 57 7l-.6-.1H55l-.7.3-1.8.7h-.1l-.6.3c-5.4 4.3-15.3 16.5-20 19.8C31.5 27.3 5.6 1.7 4.4.5l-1-.5H2.3C1.6.4 1 .9.8 1.6v.1 1.5l.2.2.1.3.4.4C38.3 41 75.3 77.7 112 114.6c1.4 1.3 2.8 1.2 3.8.1.6-.6.8-2.3-.3-3.2h.1l-17-17-.3-.2c.2-.3.3-.5.7-.7l.2-.2.2-.2.2-.1.4-.3.1-.1.4-.4c.8-.8 2-1.7 2.7-2.7l.8-.8.4-.4.7-.8 1-1.3h.2-.1c0-.2 0-.1.2-.3l.7-1 .3-.5.2-.2.3-.5.3-.4h.1l.1-.4.2-.3.1-.1.1-.1.1-.3.4-.6 1.3-2.4.4-.6.3-.8.1-.1.6-1.3v-.2l.5-1c.3-.7.4-1.2.6-1.4v-.1l.1-.2v-.1l.3-.8v-.1l.3-.8.1-.6.3-1 .3-1.2c0-.3 0-.2.2-.4l.1-.8v-.3l.2-.4v-.4l.3-1.2.2-1.9.4-5.2-.4-7h.1L115 48v-.1c-.2-.1-.1 0-.2-.4l-.4-1.9-.4-1.2c0-.2 0-.3-.2-.5l-.2-.6V43l-.1-.4-.2-.4-.1-.4v-.1l-.3-.9-.1-.3c-.3-.5-.2-.7-.4-.9l-.6-1.4v-.1l-.1-.2-.2-.3v-.2l-.3-.4-.7-1.4-.2-.5-.5-.7v-.1l-.7-1.2V33h-.1l-.2-.4-.7-1v-.2L107 30l-.2-.3-.3-.3c-.2-.2 0-.2-.3-.4V29l-.4-.5-.5-.5c0-.1 0-.2-.2-.3l-.7-.8v-.1l-1-1.1-1.8-1.8-.2-.2-.4-.4-1-.9-.2-.2c0-.1 0 0 0 0-.2-.1-.2 0-.3-.2l-.4-.4-.2-.1v-.1c-.3 0-.4-.2-.6-.4L97 19.8l-.7-.4-3-2.1-1-.5-1.5-.9c-.8-.3-.7-.4-1.5-.4h-.8l-.2.1-.4.3h-.1l-.1.2s-.3.3-.4.7l-.1.4v1.3l.1.5c.1.1 0 0 .1 0 .5 1 1.1 1.2 2.2 1.8h.1c.6.4.6.2.8.5l.3.1v.1c.3 0 .3.1.5.3h.2l.2.2v.1c.3 0 .5.2.7.4.2 0 .2 0 .3.2l.8.5h-.1l.6.3c.3.3-.2-.2 0 .1l.3.2.8.5 1 .8c.4.5.4.3 1 .9l3.5 3.5.1.1v.1h.2c0 .2 0 .2.2.3l.1.1 1.4 1.8h.1v.1l2.8 4v.1l.2.3v.1l.1.3h.1l.6 1.2 1.6 3.2v.4l.8 1.7v.2l.1.3.2.4.6 2c0 .5.6 2.2.6 2.8l.3 1.4c.2.4.1.7.2 1v.6l.1.5v.2h.1v.8l.2 1.1v5.3c0 .6-.1 2.6-.3 3l-.4 2.8-.2 1-.1.7c-.2.5-.3 1.5-.6 2l-1 3.4-.6 1.2-.3.7-.1.4-.8 1.6v.2l-.3.3-.1.3-.1.3h-.1c-.2.6-1 1.7-1.2 2.2l-1 1.6-.6.8-1 1.3-.1.1-.1.2h-.1l-.1.3-.2.1-.2.3c-.3.5-.5.5-.7.7l-.8 1-.4.4-.9.9-1.6 1.5-.6.5v.1l-.6.4-.7.6-.2.2-3-3h.1l-.7-.5h.1l-.6-.6-.6-.6-.6-.5v-.1l-.6-.5V85l-.6-.5v-.1l-.9-.9.3-.2.2-.2.9-.8.2-.2.6-.5.5-.6.6-.6.1-.1 1.1-1.3.6-.7.1-.1.6-.7v-.2l.7-1v-.1h.1l.6-1h.2V75l.2-.4.2-.5.3-.4c.3-.3.4-.8.6-1.1l.4-.7v-.3l.6-1.1.2-.5c.1-.6.3-.7.4-1.1.1-.7.2-.6.3-1l.3-1c.1-.5.3-.6.3-1v-.2l.1-.4.1-.3.3-1.5V63l.1-.2.1-.5.2-1.6.1-1V55c-.2-.4-.2-1.9-.4-2.3l-.2-1.6v-.3l-1-3.1v-.5l-.1-.2-.2-.5-.4-1-.2-.6-.5-1.2-.3-.5-1.5-2.8c0-.1 0 0 0 0l-.4-.6-.3-.4-.2-.4-.1-.1-.2-.3-1.6-2c0-.2-.2-.3-.3-.5l-1.7-1.8-.1-.2-.4-.4-.6-.5-.9-.7-.5-.5c-.6-.6-.4-.2-.7-.5l-1.5-1.2-.3-.2H85l-3.3-2h-1.1c-.7.3-.6.2-1.1.7-1 .9-1.1 2.3 0 3.3l2.6 1.7.3.2c0 .1 0 0 0 0l.6.4.2.2.2.2.7.5c.3.2.2 0 .7.5l.4.5.5.4h-.1l.4.2.1.2.1.1v.1c.2 0 .5.3.6.5v.1l.6.5v.1l.3.3.6.7.3.3.4.5.8 1v.1l1.5 2.5.2.4.2.2.2.3.2.6.2.3.1.3.2.3v.3c.4.5.3.8.6 1.1v.4l.3.5v.4l.1.2.1.2.2.4v.1l.1.5.1.3v.3l.2.6.1.3v.3l.2.9.1.7.1 1 .1 1.1v3.5l-.1 1.9-.1.7-.1.7-.1.4-.2 1v.3l-.2.2-.1.8-.3.8-.1.5v.2l-.3.6v.1l-.2.4v.2l-.5 1-.6 1.5-1.6 2.7-.2.3s0 .2-.2.3l-.1.2-.7.9-.2.2c0 .2-.2.3-.3.5l-.4.4-.3.4-.5.5-.7.8-.9.9-.4.3-.2.2-1.2 1a96.1 96.1 0 0 0-8.7-8.8zM25.6 34c-.2.2-2 2-2.2 2.4.3 13.8 0 27.8 0 41.7 0 .3 0 .9.3 1.2 8.8 9 18.5 18.8 27.5 27.5 3.7 3.6 11.6.8 11.5-8.5l-.2-27.6-.1-.1C58.7 67.1 25.9 34.2 25.6 34zm-2 45.3zm75.6 14zm5.8-5.9zm-15.7-5.2zm.6-.5zm.5-.6zm.6-.6zm15.8-3.6zm5.8-2.4zM78.6 60zM80 47.8zm-4-3.5zm36.5-4.6zm-2.6-5.4zm-29.4-1.7zm22.3-.6zm3.5-3zm-4.6-5.2zm-9.4-7zm-30-5.3z"/>
</svg>
