<svg xmlns="http://www.w3.org/2000/svg" fill-rule="evenodd" clip-rule="evenodd" image-rendering="optimizeQuality" shape-rendering="geometricPrecision" text-rendering="geometricPrecision" viewBox="0 0 53.8 47.8">
  <g fill-rule="evenodd" fill="#00823C">
    <path  d="M11.2 46.6V45c0-.3.3-.5.5-.5H42c.3 0 .5.2.5.5v2.2c0 .3.2.5.5.5h8c.2 0 .4-.2.4-.5 0-3.7.7-18.8-.6-21.3l2.5-.2c.6-.9.6-3 0-3.7-.5-.5-5.8-.4-6.3-.3-.7.1-.4 0-1 .6l-.3.3c-.5-3-2.3-8.3-5.6-8.6a198.1 198.1 0 0 0-26.4 0c-3.4.3-5.2 5.6-5.6 8.6l-.3-.3c-.6-.6-.3-.5-1-.6-.6 0-5.9-.2-6.4.3-.5.7-.6 2.8 0 3.7L3 26c-1.3 2.5-.7 17.6-.7 21.3 0 .3.3.5.5.5h8c.2 0 .4-.2.4-.5v-.7zM9.1 24c.7-.3 1.2-1.8 2-3 2.8-4.7 2.4-4.2 10.2-4.5 3.8-.2 16.7-.5 19.3-.8-2.2-1-20.3-.7-25-.4-2 .1-2.7 0-3.6 1.5a35 35 0 0 0-3 7.3zm38 8.6c-3.4-.5-4-.4-7.3 0-.5 0-.8.4-.8.8v2.7c0 .4.3.7.8.7 3.2.4 4 .5 7.3 0 .4 0 .8-.3.8-.7v-2.7c0-.4-.4-.7-.8-.8zm-1.7 8h-3l-2 .1c-.3 0-.6.2-.6.3v1c0 .2.3.3.7.3 2.8.1 3.4.2 6.2 0 .4 0 .7-.1.7-.3v-1l-.7-.3h-1.3zm-38.7-8c3.3-.5 3.9-.4 7.3 0 .4 0 .8.4.8.8v2.7c0 .4-.4.7-.8.7-3.3.4-4 .5-7.3 0-.5 0-.8-.3-.8-.7v-2.7c0-.4.3-.7.8-.8zm1.7 8h3l1.9.1c.3 0 .6.2.6.3v1c0 .2-.3.3-.6.3a39 39 0 0 1-6.3 0c-.3 0-.6-.1-.6-.3v-1l.6-.3h1.4z"/>
    <path fill-rule="evenodd" d="M26.1 0c-6.8 2.7-15.8 7.3-23 10.3-1.3.5-2.7.8-2.2 2.6.7 2.4 5-.3 6.6-1l13.2-5.8 3.4-1.5c1.2-.6 2.3-1.4 3.5-1L50.7 14c1.5.3 2.7-1 2-2.3-.5-1-17.1-8-19.5-9-1.4-.7-5.7-3-7-2.5z"/>
  </g>
</svg>
