<svg xmlns="http://www.w3.org/2000/svg" fill-rule="evenodd" clip-rule="evenodd" image-rendering="optimizeQuality" shape-rendering="geometricPrecision" text-rendering="geometricPrecision" viewBox="0 0 47.1 34.7">
  <g fill="#00823C">
    <path d="M5 24H1.8V10.7H5v13.5zm40.4 0H42V10.7h3.4v13.5zM22.7 13.3v8.2c-2.7-.6-3.9-3-3-5.6 0-.5.4-1 .8-1.4h.1l.2-.2c.6-.6 1-.7 1.9-1zm4.7 5.8v.2c-.3.7-1.3 1.7-2 2 0 .1 0 0-.2 0l-.8.2v-8.2a3.8 3.8 0 0 1 2.2 1.3c.8.8 1 1.3 1.1 2.5.1.7-.2 1.4-.3 2zm-19-1.7c0 .5-.2 1-.5 1.3-.3.3-.7.4-1.2.4v-3.3c1 0 1.7.6 1.7 1.6zm32-1.6V19c-2-.1-2-2.1-1.3-2.9.3-.3.7-.4 1.2-.4zm-33.7 5c2 0 3.4-1.8 3.4-3V17c0-1.2-1.5-3-3.4-3V9h-5V1.6h21v9.6c0 .4-.5.1-1.8.8-.7.4-1 .6-1.5 1.2a5.7 5.7 0 0 0 0 8 6 6 0 0 0 2.4 1.7c.4.1.9 0 .9.4V33h-21v-7.2h5v-5zM45.4 33h-21v-9.6c0-.4.5-.1 1.8-.8 1.6-.8 3.2-2.8 3.2-5 0-1.9-.4-3-1.6-4.3a5.8 5.8 0 0 0-2.5-1.6c-.5-.1-1 0-1-.5V1.7h21v7.2h-5v5C38.4 14 37 15.9 37 17v.7c0 1.2 1.4 3 3.3 3v5h5.1V33zm1.7-33H0v34.7h47V0zM28.3 15.3l-.1-.2.1.2z"/>
    <path d="M25.8 12.7c0-.2 0-.1-.2-.1 0 .2 0 .1.2.1z"/>
  </g>
</svg>
