<svg xmlns="http://www.w3.org/2000/svg" fill-rule="evenodd" clip-rule="evenodd" image-rendering="optimizeQuality" shape-rendering="geometricPrecision" text-rendering="geometricPrecision" viewBox="0 0 65.4 65.4">
  <path fill="#097F43" d="M64.8 33.5A3001 3001 0 0 0 34 .8c-.4-.5-.7-.7-1.1-.7-.6 0-1.1.2-1.5.7L.5 33.3c-.3.5-.5 1-.5 1.5s.2 1 .6 1.2c.7 1 1.8 1 2.6 0L32.8 4.9l29.4 31.6c.2.2.8.5 1.3.5.6 0 1-.3 1.3-.5.8-.8.8-2.2 0-3zm-10.2-1.4c-1.1 0-1.9.7-1.9 2v27.1H39.3v-11c0-1-.7-2-1.7-2H28c-1 0-2 1-2 2v11H12.7V35c0-1.2-1-2-1.9-2-1.1 0-1.9.8-1.9 2v28.4c0 1 .8 2 1.9 2h17.1c1 0 1.7-1 1.7-2V52.2h6v11.2c0 1 1 2 2 2h17c1 0 1.9-1 1.9-2V34c0-1.2-1-2-1.9-2z"/>
</svg>
