<svg viewBox="0 0 512 512" xmlns="http://www.w3.org/2000/svg"><path d="M373.4 0H138.6A138.7 138.7 0 0 0 0 138.6v234.8C0 449.8 62.2 512 138.6 512h234.8c76.4 0 138.6-62.2 138.6-138.6V138.6C512 62.2 449.8 0 373.4 0zM256 396c-77.2 0-140-62.8-140-140s62.8-140 140-140 140 62.8 140 140-62.8 140-140 140zm143.3-247a41.4 41.4 0 1 1 .1-82.8 41.4 41.4 0 0 1 0 82.8zm0 0"/><path d="M256 146a110.1 110.1 0 0 0 0 220 110.1 110.1 0 0 0 0-220zm0 0M399.3 96.3a11.4 11.4 0 1 0 0 22.7 11.4 11.4 0 0 0 0-22.7zm0 0"/></svg>
